<svg xmlns="http://www.w3.org/2000/svg" xmlns:xlink="http://www.w3.org/1999/xlink" width="2012.36" height="707.496" viewBox="0 0 2012.36 707.496">
  <defs>
    <style>
      .cls-1, .cls-13, .cls-4, .cls-5, .cls-6 {
        opacity: 0.1;
      }

      .cls-2 {
        fill: #3f3d56;
      }

      .cls-3, .cls-5 {
        fill: #fdc2cc;
      }

      .cls-14, .cls-6 {
        fill: #6c63ff;
      }

      .cls-13, .cls-7 {
        fill: none;
        stroke-miterlimit: 10;
      }

      .cls-7 {
        stroke: #3f3d56;
        stroke-width: 4px;
      }

      .cls-8 {
        fill: #444053;
      }

      .cls-9 {
        fill: #f0efff;
        font-size: 194px;
        font-family: RockwellNova, Rockwell Nova;
      }

      .cls-10 {
        fill: url(#linear-gradient);
      }

      .cls-11 {
        fill: #be6f72;
      }

      .cls-12 {
        fill: #ff6f61;
      }

      .cls-13 {
        stroke: #000;
      }

      .cls-15 {
        fill: url(#linear-gradient-2);
      }

      .cls-16 {
        fill: #2f2e41;
      }

      .cls-17 {
        fill: #fbbebe;
      }

      .cls-18 {
        fill: #e8e8f0;
      }

      .cls-19 {
        fill: #f86d70;
      }
    </style>
    <linearGradient id="linear-gradient" x1="0.5" y1="1" x2="0.5" gradientUnits="objectBoundingBox">
      <stop offset="0" stop-color="gray" stop-opacity="0.251"/>
      <stop offset="0.54" stop-color="gray" stop-opacity="0.122"/>
      <stop offset="1" stop-color="gray" stop-opacity="0.102"/>
    </linearGradient>
    <linearGradient id="linear-gradient-2" x1="0.5" y1="1" x2="0.5" y2="-0.001" xlink:href="#linear-gradient"/>
  </defs>
  <g id="contact_artwork" transform="translate(0 0.359)">
    <g id="Gruppe_24" data-name="Gruppe 24" class="cls-1" transform="translate(809.151 48.85)">
      <ellipse id="Ellipse_31" data-name="Ellipse 31" class="cls-2" cx="14" cy="18.33" rx="14" ry="18.33" transform="translate(52.765 378.389)"/>
      <path id="Pfad_390" data-name="Pfad 390" class="cls-2" d="M545.133,466.528a22.144,22.144,0,0,0,2.928-11.207c0-10.125-6.274-18.33-14.012-18.33S520,445.22,520,455.345a22.143,22.143,0,0,0,2.928,11.207,22.894,22.894,0,0,0,0,22.4,22.894,22.894,0,0,0,0,22.4A22.068,22.068,0,0,0,520,522.564c0,10.112,6.274,18.33,14,18.33s14.012-8.218,14.012-18.33a22.068,22.068,0,0,0-2.928-11.207,22.894,22.894,0,0,0,0-22.4,22.894,22.894,0,0,0,0-22.4Z" transform="translate(-467.284 -148.235)"/>
      <ellipse id="Ellipse_32" data-name="Ellipse 32" class="cls-2" cx="14" cy="18.33" rx="14" ry="18.33" transform="translate(52.765 266.378)"/>
      <ellipse id="Ellipse_33" data-name="Ellipse 33" class="cls-2" cx="14" cy="18.33" rx="14" ry="18.33" transform="translate(52.765 243.975)"/>
      <path id="Pfad_391" data-name="Pfad 391" class="cls-3" d="M491.507,311.255a65.3,65.3,0,0,1-5.216-7.677l36.784-6.04-39.785.3a67.195,67.195,0,0,1-1.23-53.145l53.379,27.692-49.209-36.193a67.084,67.084,0,1,1,110.72,75.043,67.092,67.092,0,0,1,7.652,12.228l-47.77,24.875,50.919-17.088a67.083,67.083,0,0,1-10.814,62.987,67.071,67.071,0,1,1-105.43,0,67.071,67.071,0,0,1,0-82.941Z" transform="translate(-477.149 -202.271)"/>
      <path id="Pfad_392" data-name="Pfad 392" class="cls-4" d="M611.293,324.755a66.764,66.764,0,0,1-14.357,41.471,67.071,67.071,0,1,1-105.43,0C482.514,354.809,611.293,317.226,611.293,324.755Z" transform="translate(-477.149 -174.301)"/>
    </g>
    <g id="Gruppe_25" data-name="Gruppe 25" class="cls-1" transform="translate(1077.569 110.154)">
      <ellipse id="Ellipse_34" data-name="Ellipse 34" class="cls-3" cx="10.469" cy="13.692" rx="10.469" ry="13.692" transform="translate(39.428 282.528)"/>
      <path id="Pfad_393" data-name="Pfad 393" class="cls-3" d="M674.509,449.39a16.522,16.522,0,0,0,2.177-8.365c0-7.566-4.687-13.7-10.457-13.7s-10.469,6.151-10.469,13.7a16.4,16.4,0,0,0,2.19,8.365,17.1,17.1,0,0,0,0,16.743,17.1,17.1,0,0,0,0,16.743,16.4,16.4,0,0,0-2.19,8.365c0,7.566,4.687,13.7,10.469,13.7s10.457-6.151,10.457-13.7a16.522,16.522,0,0,0-2.177-8.365,17.223,17.223,0,0,0,0-16.743A17.223,17.223,0,0,0,674.509,449.39Z" transform="translate(-616.344 -211.765)"/>
      <ellipse id="Ellipse_35" data-name="Ellipse 35" class="cls-3" cx="10.469" cy="13.692" rx="10.469" ry="13.692" transform="translate(39.428 198.824)"/>
      <ellipse id="Ellipse_36" data-name="Ellipse 36" class="cls-3" cx="10.469" cy="13.692" rx="10.469" ry="13.692" transform="translate(39.428 182.081)"/>
      <path id="Pfad_394" data-name="Pfad 394" class="cls-3" d="M634.447,333.306a47.991,47.991,0,0,1-3.9-5.733l27.5-4.515-29.734.221a50.242,50.242,0,0,1-.96-39.724l39.9,20.7-36.8-27.065a50.131,50.131,0,1,1,82.781,56.1,50.694,50.694,0,0,1,5.72,9.141l-35.676,18.539,38.051-12.77a50.144,50.144,0,0,1-8.083,47.068,50.119,50.119,0,1,1-78.734,0,50.119,50.119,0,0,1,0-61.978Z" transform="translate(-623.72 -252.103)"/>
      <path id="Pfad_395" data-name="Pfad 395" class="cls-5" d="M723.954,343.438a49.91,49.91,0,0,1-10.727,30.989,50.119,50.119,0,1,1-78.734,0C627.751,365.9,723.954,337.816,723.954,343.438Z" transform="translate(-623.716 -231.246)"/>
    </g>
    <g id="Gruppe_26" data-name="Gruppe 26" class="cls-1" transform="translate(1874.012 -0.359)">
      <ellipse id="Ellipse_37" data-name="Ellipse 37" class="cls-3" cx="14" cy="18.33" rx="14" ry="18.33" transform="translate(53.71 378.389)"/>
      <path id="Pfad_396" data-name="Pfad 396" class="cls-3" d="M1082.118,426.527a22.144,22.144,0,0,1-2.928-11.207c0-10.125,6.274-18.33,14.012-18.33s14,8.206,14,18.33a22.141,22.141,0,0,1-2.928,11.207,22.9,22.9,0,0,1,0,22.4,22.9,22.9,0,0,1,0,22.4,22.072,22.072,0,0,1,2.928,11.207c0,10.112-6.274,18.33-14,18.33s-14.012-8.218-14.012-18.33a22.068,22.068,0,0,1,2.928-11.207,22.894,22.894,0,0,1,0-22.4A22.9,22.9,0,0,1,1082.118,426.527Z" transform="translate(-1025.492 -108.235)"/>
      <ellipse id="Ellipse_38" data-name="Ellipse 38" class="cls-3" cx="14" cy="18.33" rx="14" ry="18.33" transform="translate(53.71 266.377)"/>
      <ellipse id="Ellipse_39" data-name="Ellipse 39" class="cls-3" cx="14" cy="18.33" rx="14" ry="18.33" transform="translate(53.71 243.975)"/>
      <path id="Pfad_397" data-name="Pfad 397" class="cls-3" d="M1155.658,271.255a65.329,65.329,0,0,0,5.216-7.676l-36.784-6.04,39.785.3a67.194,67.194,0,0,0,1.23-53.145l-53.379,27.692,49.209-36.193a67.084,67.084,0,1,0-110.719,75.043,67.113,67.113,0,0,0-7.652,12.228l47.769,24.875-50.919-17.088a67.084,67.084,0,0,0,10.814,62.987,67.072,67.072,0,1,0,105.43,0,67.071,67.071,0,0,0,0-82.941Z" transform="translate(-1035.541 -162.271)"/>
      <path id="Pfad_398" data-name="Pfad 398" class="cls-5" d="M1035.81,284.755a66.766,66.766,0,0,0,14.357,41.471,67.072,67.072,0,1,0,105.43,0C1164.589,314.809,1035.81,277.226,1035.81,284.755Z" transform="translate(-1035.479 -134.301)"/>
    </g>
    <g id="Gruppe_27" data-name="Gruppe 27" class="cls-1" transform="translate(1756.176 102.773)">
      <ellipse id="Ellipse_40" data-name="Ellipse 40" class="cls-3" cx="10.469" cy="13.692" rx="10.469" ry="13.692" transform="translate(39.925 282.528)"/>
      <path id="Pfad_399" data-name="Pfad 399" class="cls-3" d="M974.408,443.39a16.521,16.521,0,0,1-2.177-8.366c0-7.566,4.687-13.7,10.457-13.7s10.469,6.151,10.469,13.7a16.4,16.4,0,0,1-2.19,8.366,17.1,17.1,0,0,1,0,16.743,17.1,17.1,0,0,1,0,16.743,16.4,16.4,0,0,1,2.19,8.365c0,7.566-4.687,13.7-10.469,13.7s-10.457-6.151-10.457-13.7a16.52,16.52,0,0,1,2.177-8.365,17.222,17.222,0,0,1,0-16.743,17.223,17.223,0,0,1,0-16.743Z" transform="translate(-932.281 -205.765)"/>
      <ellipse id="Ellipse_41" data-name="Ellipse 41" class="cls-3" cx="10.469" cy="13.692" rx="10.469" ry="13.692" transform="translate(39.925 198.824)"/>
      <ellipse id="Ellipse_42" data-name="Ellipse 42" class="cls-3" cx="10.469" cy="13.692" rx="10.469" ry="13.692" transform="translate(39.925 182.081)"/>
      <path id="Pfad_400" data-name="Pfad 400" class="cls-3" d="M1029.321,327.306a47.979,47.979,0,0,0,3.9-5.733l-27.5-4.515,29.734.221a50.242,50.242,0,0,0,.96-39.724l-39.9,20.7,36.8-27.065a50.131,50.131,0,1,0-82.781,56.1,50.679,50.679,0,0,0-5.72,9.14l35.676,18.539-37.977-12.757a50.144,50.144,0,0,0,8.083,47.068,50.119,50.119,0,1,0,78.734,0,50.119,50.119,0,0,0,0-61.978Z" transform="translate(-939.757 -246.103)"/>
      <path id="Pfad_401" data-name="Pfad 401" class="cls-5" d="M939.8,337.438a49.91,49.91,0,0,0,10.728,30.989,50.119,50.119,0,1,0,78.734,0C1036.008,359.9,939.8,331.816,939.8,337.438Z" transform="translate(-939.751 -225.246)"/>
    </g>
    <g id="Gruppe_28" data-name="Gruppe 28" class="cls-1" transform="translate(8.992 -0.153)">
      <ellipse id="Ellipse_43" data-name="Ellipse 43" class="cls-3" cx="14" cy="18.33" rx="14" ry="18.33" transform="translate(52.777 378.183)"/>
      <path id="Pfad_402" data-name="Pfad 402" class="cls-3" d="M127.282,426.527a22.144,22.144,0,0,0,2.928-11.207c0-10.125-6.274-18.33-14-18.33s-14,8.206-14,18.33a22.144,22.144,0,0,0,2.916,11.207,22.968,22.968,0,0,0,0,22.4,22.968,22.968,0,0,0,0,22.4,22.058,22.058,0,0,0-2.916,11.207c0,10.112,6.262,18.33,14,18.33s14.037-8.193,14.037-18.306a22.071,22.071,0,0,0-2.928-11.207,22.894,22.894,0,0,0,0-22.4,22.894,22.894,0,0,0,0-22.4Z" transform="translate(-49.433 -108.441)"/>
      <ellipse id="Ellipse_44" data-name="Ellipse 44" class="cls-3" cx="14" cy="18.33" rx="14" ry="18.33" transform="translate(52.777 266.171)"/>
      <ellipse id="Ellipse_45" data-name="Ellipse 45" class="cls-3" cx="14" cy="18.33" rx="14" ry="18.33" transform="translate(52.777 243.769)"/>
      <path id="Pfad_403" data-name="Pfad 403" class="cls-3" d="M73.691,271.216a66.837,66.837,0,0,1-5.216-7.677l36.8-6.04-39.822.357a67.194,67.194,0,0,1-1.23-53.145L117.61,232.4,68.4,196.21a67.071,67.071,0,1,1,110.72,75.043,67.093,67.093,0,0,1,7.652,12.228l-47.782,24.813,50.931-17.088A67.158,67.158,0,0,1,179.1,354.194a67.071,67.071,0,1,1-105.43,0,67.071,67.071,0,0,1,0-82.941Z" transform="translate(-59.309 -162.439)"/>
      <path id="Pfad_404" data-name="Pfad 404" class="cls-5" d="M193.453,284.755A66.764,66.764,0,0,1,179.1,326.226a67.071,67.071,0,1,1-105.43,0C64.674,314.809,193.453,277.226,193.453,284.755Z" transform="translate(-59.309 -134.507)"/>
    </g>
    <g id="Gruppe_29" data-name="Gruppe 29" class="cls-1" transform="translate(161.011 102.772)">
      <ellipse id="Ellipse_46" data-name="Ellipse 46" class="cls-3" cx="10.469" cy="13.692" rx="10.469" ry="13.692" transform="translate(39.428 282.528)"/>
      <path id="Pfad_405" data-name="Pfad 405" class="cls-3" d="M233.679,443.39a16.522,16.522,0,0,0,2.177-8.366c0-7.566-4.675-13.7-10.457-13.7s-10.469,6.151-10.469,13.7a16.522,16.522,0,0,0,2.19,8.366,17.1,17.1,0,0,0,0,16.743,17.1,17.1,0,0,0,0,16.743,16.523,16.523,0,0,0-2.19,8.366c0,7.566,4.687,13.7,10.469,13.7s10.457-6.151,10.457-13.7a16.522,16.522,0,0,0-2.177-8.365,17.223,17.223,0,0,0,0-16.743A17.223,17.223,0,0,0,233.679,443.39Z" transform="translate(-175.502 -205.765)"/>
      <ellipse id="Ellipse_47" data-name="Ellipse 47" class="cls-3" cx="10.469" cy="13.692" rx="10.469" ry="13.692" transform="translate(39.428 198.824)"/>
      <ellipse id="Ellipse_48" data-name="Ellipse 48" class="cls-3" cx="10.469" cy="13.692" rx="10.469" ry="13.692" transform="translate(39.428 182.081)"/>
      <path id="Pfad_406" data-name="Pfad 406" class="cls-3" d="M193.607,327.306a49.466,49.466,0,0,1-3.9-5.733l27.5-4.515-29.734.221a50.242,50.242,0,0,1-.96-39.724l39.9,20.7-36.8-27.065a50.131,50.131,0,1,1,82.781,56.1,49.354,49.354,0,0,1,5.72,9.141l-35.676,18.539,38.051-12.77a50.144,50.144,0,0,1-8.083,47.068,50.119,50.119,0,1,1-78.734,0,50.119,50.119,0,0,1,0-61.978Z" transform="translate(-182.88 -246.103)"/>
      <path id="Pfad_407" data-name="Pfad 407" class="cls-5" d="M283.114,337.438a49.91,49.91,0,0,1-10.728,30.989,50.119,50.119,0,1,1-78.734,0C186.886,359.9,283.114,331.816,283.114,337.438Z" transform="translate(-182.876 -225.246)"/>
    </g>
    <ellipse id="Ellipse_49" data-name="Ellipse 49" class="cls-5" cx="1006.18" cy="10.9" rx="1006.18" ry="10.9" transform="translate(0 595.84)"/>
    <ellipse id="Ellipse_50" data-name="Ellipse 50" class="cls-6" cx="1006.18" cy="10.9" rx="1006.18" ry="10.9" transform="translate(0 685.338)"/>
    <ellipse id="Ellipse_51" data-name="Ellipse 51" class="cls-5" cx="1006.18" cy="10.9" rx="1006.18" ry="10.9" transform="translate(0 409.056)"/>
    <ellipse id="Ellipse_52" data-name="Ellipse 52" class="cls-5" cx="1006.18" cy="10.9" rx="1006.18" ry="10.9" transform="translate(0 502.442)"/>
    <path id="Pfad_408" data-name="Pfad 408" class="cls-5" d="M873.413,278.608a22.513,22.513,0,0,0-13.04,1.427,19.253,19.253,0,0,1-15.673,0,22,22,0,0,0-18.453.357,11.367,11.367,0,0,1-5.3,1.329c-7.48,0-13.692-7.529-14.984-17.457a14.61,14.61,0,0,0,3.691-4.023c4.38-7.061,11.158-11.6,18.786-11.6s14.32,4.478,18.7,11.466a14.369,14.369,0,0,0,12.413,6.815h.2C865.761,266.859,870.915,271.633,873.413,278.608Z" transform="translate(602.439 -142.746)"/>
    <path id="Pfad_409" data-name="Pfad 409" class="cls-5" d="M896.189,252.62l-12.081,7.652,7.381-13.336a11.933,11.933,0,0,0-7.307-2.6h-.2a13.967,13.967,0,0,1-2.46-.185l-4.158,2.6,1.759-3.2a14.5,14.5,0,0,1-7.172-5.438l-7.381,4.65,4.626-8.415c-4.281-5.142-10.063-8.292-16.411-8.292-7.627,0-14.406,4.527-18.8,11.589a14.036,14.036,0,0,1-12.413,6.692h-.406c-8.415,0-15.23,9.534-15.23,21.3s6.815,21.307,15.23,21.307a11.549,11.549,0,0,0,5.3-1.329,21.971,21.971,0,0,1,18.453-.369,19.13,19.13,0,0,0,15.673,0,22.046,22.046,0,0,1,18.281.357,11.439,11.439,0,0,0,5.24,1.3c8.415,0,15.23-9.547,15.23-21.307a26.977,26.977,0,0,0-3.161-12.979Z" transform="translate(612.368 -147.945)"/>
    <path id="Pfad_410" data-name="Pfad 410" class="cls-5" d="M452.091,271.515a15.8,15.8,0,0,0-9.141,1,13.434,13.434,0,0,1-10.961,0,15.353,15.353,0,0,0-12.905.258,8.144,8.144,0,0,1-3.691.923c-5.228,0-9.583-5.265-10.494-12.216a10.238,10.238,0,0,0,2.62-2.817c3.063-4.921,7.812-8.119,13.151-8.119s10.026,3.137,13.09,8.021a10.076,10.076,0,0,0,8.7,4.773h.135C446.727,263.31,450.332,266.656,452.091,271.515Z" transform="translate(250.813 -142.309)"/>
    <path id="Pfad_411" data-name="Pfad 411" class="cls-5" d="M468.027,253.341l-8.452,5.364,5.13-9.337a8.3,8.3,0,0,0-5.105-1.821h-.148a9.212,9.212,0,0,1-1.747-.135l-2.866,1.821,1.23-2.239a10.212,10.212,0,0,1-5.019-3.8l-5.13,3.248,3.248-5.88a15.021,15.021,0,0,0-11.49-5.819c-5.339,0-10.088,3.174-13.151,8.119a9.842,9.842,0,0,1-8.7,4.687h-.283c-5.893,0-10.666,6.668-10.666,14.91s4.773,14.91,10.666,14.91a8,8,0,0,0,3.691-.935,15.378,15.378,0,0,1,12.893-.246,13.213,13.213,0,0,0,10.974.074,15.427,15.427,0,0,1,12.794.246,7.972,7.972,0,0,0,3.691.91c5.88,0,10.654-6.68,10.654-14.91A18.858,18.858,0,0,0,468.027,253.341Z" transform="translate(253.934 -145.946)"/>
    <path id="Pfad_412" data-name="Pfad 412" class="cls-5" d="M321.59,349.925a15.772,15.772,0,0,1,9.128,1,13.458,13.458,0,0,0,10.974,0,15.4,15.4,0,0,1,12.9.246,7.959,7.959,0,0,0,3.691.935c5.228,0,9.583-5.278,10.481-12.228a10.028,10.028,0,0,1-2.608-2.817c-3.076-4.921-7.824-8.107-13.151-8.107s-10.026,3.125-13.1,8.021a10.075,10.075,0,0,1-8.685,4.773h-.135C326.941,341.769,323.325,345.1,321.59,349.925Z" transform="translate(179.326 -124.258)"/>
    <path id="Pfad_413" data-name="Pfad 413" class="cls-5" d="M309.038,331.779l8.464,5.364-5.142-9.325a8.353,8.353,0,0,1,5.118-1.833h.135a10.48,10.48,0,0,0,1.759-.123l2.866,1.808-1.23-2.227a10.2,10.2,0,0,0,5.007-3.8l5.13,3.248-3.2-5.893a15.008,15.008,0,0,1,11.49-5.807c5.327,0,10.088,3.174,13.151,8.119A9.842,9.842,0,0,0,361.273,326h.3c5.88,0,10.654,6.68,10.654,14.91s-4.773,14.91-10.654,14.91a7.985,7.985,0,0,1-3.691-.923,15.353,15.353,0,0,0-12.9-.258,13.36,13.36,0,0,1-5.511,1.23A13.534,13.534,0,0,1,334,354.71a15.4,15.4,0,0,0-12.782.246,7.971,7.971,0,0,1-3.691.91c-5.893,0-10.666-6.668-10.666-14.91a19,19,0,0,1,2.178-9.177Z" transform="translate(168.952 -127.886)"/>
    <path id="Pfad_414" data-name="Pfad 414" class="cls-7" d="M718.893,677.4c3.211-5.954-.431-13.237-4.613-18.539s-9.3-10.826-9.19-17.58c.16-9.706,10.469-15.452,18.7-20.594a91.4,91.4,0,0,0,16.793-13.532,24.763,24.763,0,0,0,5.155-6.914c1.71-3.789,1.661-8.119,1.55-12.3q-.529-20.778-2.054-41.532" transform="translate(506.843 -74.195)"/>
    <path id="Pfad_415" data-name="Pfad 415" class="cls-3" d="M756.115,548.553a15.144,15.144,0,0,0-7.566-12.413l-3.4,6.7.111-8.119a15.144,15.144,0,1,0,10.851,13.828Z" transform="translate(520.779 -77.027)"/>
    <path id="Pfad_416" data-name="Pfad 416" class="cls-3" d="M733.844,633.276a15.144,15.144,0,0,1-28.59-6.151,14.763,14.763,0,0,1,.984-6.151,15.156,15.156,0,0,1,28.295.16l-9.46,7.7,10.408-2.46A15.058,15.058,0,0,1,733.844,633.276Z" transform="translate(503.247 -59.248)"/>
    <path id="Pfad_417" data-name="Pfad 417" class="cls-3" d="M725.378,610.936a15.144,15.144,0,0,1-4.8-29.71l-.086,6.237,3.432-6.791h0a15.148,15.148,0,0,1,1.415,30.263Z" transform="translate(506.896 -66.311)"/>
    <path id="Pfad_418" data-name="Pfad 418" class="cls-3" d="M755.28,591.044a15.144,15.144,0,1,1,6.692-28.295l-2.67,7.381,5.45-5.388a15.144,15.144,0,0,1-9.522,26.29Z" transform="translate(532.27 -70.887)"/>
    <path id="Pfad_419" data-name="Pfad 419" class="cls-4" d="M754.077,551.034c-3.494.381-6.889,1.464-10.408,1.685s-7.381-.627-9.571-3.346a48.546,48.546,0,0,1-2.8-4.921,10.779,10.779,0,0,0-3.814-3.592,15.144,15.144,0,1,0,28.295,10.063C755.221,550.935,754.643,550.972,754.077,551.034Z" transform="translate(520.656 -75.472)"/>
    <path id="Pfad_420" data-name="Pfad 420" class="cls-4" d="M755.268,589.423a15.144,15.144,0,0,1-14.406-21.6,11.208,11.208,0,0,1,3.039,3.051,51.3,51.3,0,0,0,3,5.007c2.362,2.768,6.4,3.691,10.051,3.506s7.185-1.23,10.826-1.538c.5,0,1.009-.074,1.525-.086A15.144,15.144,0,0,1,755.268,589.423Z" transform="translate(532.183 -69.266)"/>
    <path id="Pfad_421" data-name="Pfad 421" class="cls-4" d="M725.377,609.26a15.144,15.144,0,0,1-14.529-21.32,12.3,12.3,0,0,1,3.211,3.076,50.72,50.72,0,0,0,3.285,5.105c2.547,2.842,6.852,3.851,10.715,3.691s7.381-1,11.072-1.23a15.169,15.169,0,0,1-13.754,10.678Z" transform="translate(506.697 -64.634)"/>
    <path id="Pfad_422" data-name="Pfad 422" class="cls-4" d="M733.844,631.472a15.144,15.144,0,0,1-28.59-6.151,14.762,14.762,0,0,1,.984-6.151,15.11,15.11,0,0,1,3.322,2.965c1.439,1.747,2.387,3.691,4.06,5.376,3.088,3.039,8.095,4.293,12.536,4.4a63.617,63.617,0,0,0,7.689-.443Z" transform="translate(502.745 -57.444)"/>
    <path id="Pfad_423" data-name="Pfad 423" class="cls-7" d="M108.893,605.4c3.211-5.954-.431-13.237-4.613-18.539s-9.3-10.851-9.19-17.58c.16-9.706,10.469-15.451,18.7-20.594a91.407,91.407,0,0,0,16.792-13.532,24.766,24.766,0,0,0,5.155-6.914c1.71-3.789,1.661-8.119,1.55-12.3q-.541-20.778-2.054-41.532" transform="translate(-42.08 -90.77)"/>
    <path id="Pfad_424" data-name="Pfad 424" class="cls-3" d="M146.115,476.553a15.144,15.144,0,0,0-7.566-12.413l-3.4,6.7.111-8.119a15.144,15.144,0,1,0,10.851,13.828Z" transform="translate(-37.302 -93.602)"/>
    <path id="Pfad_425" data-name="Pfad 425" class="cls-3" d="M123.844,561.276a15.144,15.144,0,0,1-28.59-6.151,14.763,14.763,0,0,1,.984-6.151,15.156,15.156,0,0,1,28.295.16l-9.46,7.7,10.408-2.46a15.058,15.058,0,0,1-1.636,6.9Z" transform="translate(-42.047 -75.824)"/>
    <path id="Pfad_426" data-name="Pfad 426" class="cls-3" d="M115.378,538.937a15.144,15.144,0,0,1-4.8-29.71l-.086,6.237,3.432-6.791h0a15.148,15.148,0,0,1,1.415,30.263Z" transform="translate(-41.06 -82.886)"/>
    <path id="Pfad_428" data-name="Pfad 428" class="cls-4" d="M144.077,479.034c-3.494.381-6.889,1.464-10.408,1.685s-7.381-.627-9.571-3.346a48.549,48.549,0,0,1-2.8-4.921,10.777,10.777,0,0,0-3.814-3.592,15.144,15.144,0,1,0,28.3,10.063C145.221,478.935,144.643,478.972,144.077,479.034Z" transform="translate(-37.307 -92.048)"/>
    <path id="Pfad_430" data-name="Pfad 430" class="cls-4" d="M115.377,537.26a15.144,15.144,0,0,1-14.529-21.32,12.3,12.3,0,0,1,3.211,3.076,50.716,50.716,0,0,0,3.285,5.105c2.547,2.842,6.852,3.851,10.715,3.691s7.381-1,11.072-1.23A15.169,15.169,0,0,1,115.377,537.26Z" transform="translate(-41.059 -81.209)"/>
    <path id="Pfad_431" data-name="Pfad 431" class="cls-4" d="M123.844,559.472a15.144,15.144,0,0,1-28.59-6.151,14.764,14.764,0,0,1,.984-6.151,15.121,15.121,0,0,1,3.322,2.965c1.439,1.747,2.387,3.691,4.06,5.376,3.088,3.039,8.095,4.293,12.536,4.4A63.62,63.62,0,0,0,123.844,559.472Z" transform="translate(-42.047 -74.02)"/>
    <path id="Pfad_432" data-name="Pfad 432" class="cls-7" d="M517.841,523.029c-3.211-5.942.43-13.225,4.626-18.527s9.288-10.826,9.177-17.58c-.148-9.719-10.457-15.451-18.7-20.594a91.034,91.034,0,0,1-16.78-13.532,24.333,24.333,0,0,1-5.167-6.9c-1.7-3.8-1.648-8.119-1.55-12.3Q490,412.814,491.5,392.06" transform="translate(322.285 -109.729)"/>
    <path id="Pfad_435" data-name="Pfad 435" class="cls-3" d="M509.122,456.577a15.144,15.144,0,0,0,4.81-29.71l.074,6.237-3.432-6.791h0a15.144,15.144,0,0,0-15.87,14.381,14.963,14.963,0,0,0,.652,5.167,15.132,15.132,0,0,0,13.766,10.715Z" transform="translate(324.295 -101.847)"/>
    <path id="Pfad_436" data-name="Pfad 436" class="cls-3" d="M479.249,436.664a15.144,15.144,0,1,0-6.7-28.295l2.682,7.381-5.511-5.278a15.021,15.021,0,0,0-4.921,10.457,14.652,14.652,0,0,0,.381,4.17,15.132,15.132,0,0,0,14.074,11.564Z" transform="translate(298.885 -106.428)"/>
    <path id="Pfad_437" data-name="Pfad 437" class="cls-5" d="M480.368,396.674c3.494.381,6.889,1.464,10.4,1.685s7.381-.627,9.583-3.346a48.467,48.467,0,0,0,2.793-4.921,10.814,10.814,0,0,1,3.826-3.592,15.144,15.144,0,1,1-28.295,10.051C479.224,396.563,479.789,396.612,480.368,396.674Z" transform="translate(310.611 -111.009)"/>
    <path id="Pfad_438" data-name="Pfad 438" class="cls-4" d="M479.167,435.043a15.156,15.156,0,0,0,14.406-21.6,11.257,11.257,0,0,0-3.051,3.051,51.326,51.326,0,0,1-3,5.007c-2.35,2.768-6.385,3.691-10.039,3.506s-7.184-1.23-10.826-1.538c-.5,0-1.021-.074-1.525-.086a15.131,15.131,0,0,0,14.037,11.662Z" transform="translate(299.091 -104.807)"/>
    <path id="Pfad_439" data-name="Pfad 439" class="cls-4" d="M508.994,454.9a15.132,15.132,0,0,0,14.529-21.32,12.092,12.092,0,0,0-3.2,3.076,50.706,50.706,0,0,1-3.285,5.105c-2.559,2.842-6.852,3.851-10.727,3.691s-7.381-1-11.072-1.23A15.132,15.132,0,0,0,508.994,454.9Z" transform="translate(324.622 -100.17)"/>
    <path id="Pfad_440" data-name="Pfad 440" class="cls-4" d="M500.34,477.112a15.144,15.144,0,0,0,27.618-12.3,14.537,14.537,0,0,0-3.322,2.965c-1.439,1.747-2.461,3.691-4.06,5.376-3.1,3.039-8.095,4.293-12.548,4.4a66.341,66.341,0,0,1-7.689-.443Z" transform="translate(328.74 -92.98)"/>
    <path id="Pfad_518" data-name="Pfad 518" class="cls-8" d="M122.973,0A122.973,122.973,0,1,1,0,122.973,122.973,122.973,0,0,1,122.973,0Z" transform="translate(1340.01 170.123)"/>
    <path id="Pfad_441" data-name="Pfad 441" class="cls-3" d="M895.007,443.014c-4.281-4.281-14.578-10.74-19.684-13.151-5.893-2.829-8.058-2.78-12.228.234-3.469,2.46-5.721,4.835-9.706,3.961s-11.884-6.828-19.523-14.443S820.3,404.151,819.447,400.1s1.489-6.249,3.974-9.719c3-4.17,3.088-6.336.234-12.228-2.46-5.105-8.845-15.378-13.163-19.683s-5.253-3.359-7.615-2.46A44.04,44.04,0,0,0,795.9,359.7c-4.281,2.866-6.68,5.253-8.365,8.845s-3.592,10.26,6.212,27.717a154.63,154.63,0,0,0,27.188,36.255h0a154.858,154.858,0,0,0,36.378,27.237c17.445,9.842,24.125,7.886,27.717,6.212s5.979-4.047,8.833-8.365a43.466,43.466,0,0,0,3.691-6.975C898.366,448.267,899.325,447.308,895.007,443.014Z" transform="translate(620.165 -117.203)"/>
    <path id="Pfad_442" data-name="Pfad 442" class="cls-4" d="M854.763,300.86a123.022,123.022,0,1,0,122.96,122.981A123.022,123.022,0,0,0,854.763,300.86Zm0,229.583A106.623,106.623,0,1,1,961.386,423.82,106.623,106.623,0,0,1,854.763,530.443Z" transform="translate(608.198 -130.724)"/>
    <path id="Pfad_517" data-name="Pfad 517" class="cls-8" d="M122.973,0A122.973,122.973,0,1,1,0,122.973,122.973,122.973,0,0,1,122.973,0Z" transform="translate(887.308 356.907)"/>
    <g id="email">
      <path id="Pfad_443" data-name="Pfad 443" class="cls-3" d="M685.334,522.489l-36.82,37.46a.664.664,0,0,0,0,.959l25.835,27.471a4.445,4.445,0,1,1-6.286,6.286l-25.7-27.372a.7.7,0,0,0-.984,0l-6.262,6.323a27.52,27.52,0,0,1-19.683,8.279,28.123,28.123,0,0,1-20.028-8.513l-6.016-6.151a.7.7,0,0,0-.984,0l-25.638,27.311a4.445,4.445,0,1,1-6.286-6.286l25.736-27.409a.738.738,0,0,0,0-.96l-36.82-37.46a.677.677,0,0,0-1.156.48v74.957A10.974,10.974,0,0,0,555.177,608.8h120.4a10.974,10.974,0,0,0,10.937-10.937v-74.9a.677.677,0,0,0-1.181-.48Z" transform="translate(394.742 -80.762)"/>
      <path id="Pfad_444" data-name="Pfad 444" class="cls-3" d="M614.611,575.211a18.626,18.626,0,0,0,13.434-5.536L681.67,515.09a10.7,10.7,0,0,0-6.766-2.46H554.416a10.629,10.629,0,0,0-6.766,2.46l53.637,54.585A18.553,18.553,0,0,0,614.611,575.211Z" transform="translate(395.555 -82.971)"/>
    </g>
    <path id="Pfad_445" data-name="Pfad 445" class="cls-4" d="M623.853,452.69a123.022,123.022,0,1,0,122.96,122.981A123.022,123.022,0,0,0,623.853,452.69Zm0,229.583A106.623,106.623,0,1,1,730.476,575.65,106.623,106.623,0,0,1,623.853,682.273Z" transform="translate(383.907 -95.771)"/>
    <text id="Kontakt" class="cls-9" transform="translate(158.201 393.84)"><tspan x="0" y="0">Kontakt</tspan></text>
    <path id="Pfad_434" data-name="Pfad 434" class="cls-3" d="M500.653,478.939a15.144,15.144,0,1,0-.726-12.191l9.46,7.7-10.408-2.46a15.058,15.058,0,0,0,1.673,6.951Z" transform="translate(327.941 -94.807)"/>
    <path id="Pfad_433" data-name="Pfad 433" class="cls-3" d="M478.393,394.193a15.131,15.131,0,0,1,7.554-12.413l3.4,6.7-.1-8.119a15.527,15.527,0,0,1,4.982-.6,15.144,15.144,0,1,1-15.833,14.43Z" transform="translate(310.428 -112.563)"/>
    <g id="location" transform="translate(26 21)">
      <ellipse id="Ellipse_55" data-name="Ellipse 55" class="cls-8" cx="99.654" cy="99.654" rx="99.654" ry="99.654" transform="translate(415.966 361.392)"/>
      <path id="Pfad_446" data-name="Pfad 446" class="cls-3" d="M364.728,430.16,325,521.819l3.709,3.709,36.029-15.891,36.03,15.891,3.709-3.709Z" transform="translate(150.582 -21.66)"/>
      <path id="Pfad_447" data-name="Pfad 447" class="cls-4" d="M364.544,378a99.636,99.636,0,1,0,.017,0Zm0,186.049a71.139,71.139,0,1,1,.01.04Z" transform="translate(151.034 -16.638)"/>
    </g>
    <path id="Pfad_448" data-name="Pfad 448" class="cls-10" d="M851.919,613.876q-1.673-4.084-3.432-8.144a24.173,24.173,0,0,0-4.2-7.246,7.674,7.674,0,0,0-2.461-1.845,10.487,10.487,0,0,0-3.211-.64,25.626,25.626,0,0,0-5.044-.135c-.652-.2-1.39-.455-2.116-.75a17.567,17.567,0,0,0,13.09-16.3v-.75a17.53,17.53,0,0,0-17.457-17.6,17.223,17.223,0,0,0-9.165,2.62,16.448,16.448,0,0,0-18.453,8.894,20.336,20.336,0,0,0-6.274,15.132c0,.258,0,.529,0,.775.32,9.559,6.5,17.223,14.3,18a8.188,8.188,0,0,0-2.264,1.513c-2.387,2.3-2.78,5.954-3.039,9.276l-.185,2.46-4.133,1.476a.763.763,0,0,0-.185,1.341l3.949,2.817v.7a3.076,3.076,0,0,0,.074.8,5.645,5.645,0,0,0-1.525,2.178,10.061,10.061,0,0,0-.357,3.986l.147,3.432a26.957,26.957,0,0,0,1.046,7.64c.517,1.526,2.756,5.2,4.367,5.228-1.488,6.766-1.882,21.037-1.882,21.037-.185.184.332.357,1.23.5.886,6.791,3.777,25.835,8.907,34.212a72.232,72.232,0,0,1,1.931,8.316s1.464,18.1,3.4,23.473c1.649,4.576,2.953,15.87,3.309,19.142a1.882,1.882,0,0,0-1.366,1.4c-.972,2.928-7.27,7.381-7.27,7.381a30.455,30.455,0,0,0-5.438,3.482c-1.981,1.784-1.907,3.4,6.889,2.387,16.977-1.956,19.88-7.381,19.88-7.381s-.271-.91-.677-2.091a22.711,22.711,0,0,0-2.227-5.253c-.246-.234-.492.16-.787.775a105.338,105.338,0,0,1-1.157-23.755s.48-8.316-1.944-14.185a26.851,26.851,0,0,1,0-9.288c.972-3.912-3.875-22.993-3.875-22.993l-2.78-14.049a4.036,4.036,0,0,1,.775,1.636l.074.283.074.406a.762.762,0,0,0,.2.381c1.894,7.873,7.086,29.685,7.086,32.884,0,3.912,4.847,13.692,4.847,13.692s1.932,16.14,5.327,22.488c2.583,4.835,2.645,11.921,2.522,15.046h0s-.578,4.023-1.55,4.995a11.884,11.884,0,0,0-1.833,3.186l-.111.234s-1.452,2.94-.48,3.432a23.83,23.83,0,0,0,11.638,1.464s1.944-2.46,1.944-3.42a15.425,15.425,0,0,0-.221-1.747c-.357-2.313-1.021-5.954-1.034-5.991.406-1.575-1.23-5.954-1.23-5.954l-.492-13.692a63.21,63.21,0,0,0-3.4-27.4s-2.461-8.8-1.932-11.244-.972-28.369-.972-28.369l-.148-.369a28.03,28.03,0,0,1,.148-5.5c.48-5.868-1.452-18.1-1.944-18.576a16.119,16.119,0,0,1-.689-4.047c.111-1.021.443-4.01.9-7.726a138.872,138.872,0,0,0,14.3-1.23,1.784,1.784,0,0,0,1.23-.492,1.722,1.722,0,0,0,.283-1C857.406,627.851,854.712,620.691,851.919,613.876Zm-9.756,15.513c.5-3.506,1.046-6.9,1.587-9.424l.074.221a68.512,68.512,0,0,1,2.338,7.75A26.389,26.389,0,0,1,842.163,629.389Z" transform="translate(589.986 -70.96)"/>
    <path id="Pfad_449" data-name="Pfad 449" class="cls-11" d="M802.37,648.86s2.9,26.117,9.19,36.267a70.381,70.381,0,0,1,1.932,8.218s1.452,17.887,3.383,23.2,3.383,19.831,3.383,19.831,6.766,7.726,9.19,1.452A101.9,101.9,0,0,1,828,712.683s.48-8.218-1.931-14.025a26.221,26.221,0,0,1,0-9.177c.959-3.875-3.875-22.722-3.875-22.722L818.326,647.9Z" transform="translate(584.698 -50.83)"/>
    <path id="Pfad_450" data-name="Pfad 450" class="cls-12" d="M832.321,726.3s-2.9,5.315-19.819,7.246c-8.784,1-8.845-.59-6.865-2.362a30.629,30.629,0,0,1,5.413-3.445s6.287-4.343,7.246-7.246,4.355-.48,4.355-.48c4.835,7.246,5.807-1.944,6.766-.972a21.82,21.82,0,0,1,2.227,5.179C832.05,725.392,832.321,726.3,832.321,726.3Z" transform="translate(586.808 -34.468)"/>
    <path id="Pfad_451" data-name="Pfad 451" class="cls-4" d="M832.321,725.319s-2.9,5.314-19.819,7.246c-8.784,1-8.845-.59-6.865-2.362,1.378.873,4.158,1.23,9.756-1.021,8.058-3.3,13.9-5.2,16.251-5.942C832.05,724.409,832.321,725.319,832.321,725.319Z" transform="translate(586.808 -33.485)"/>
    <path id="Pfad_452" data-name="Pfad 452" class="cls-4" d="M825.636,712.683s.48-8.218-1.932-14.025a26.225,26.225,0,0,1,0-9.177c.96-3.875-3.875-22.722-3.875-22.722L815.966,647.9l-3.346.2,3.826,18.662s4.835,18.847,3.875,22.722a26.219,26.219,0,0,0,0,9.177c2.46,5.807,1.931,14.025,1.931,14.025a101.885,101.885,0,0,0,1.452,25.146,4.234,4.234,0,0,1-1.4,1.993c1.8.812,3.691.775,4.785-1.993A101.887,101.887,0,0,1,825.636,712.683Z" transform="translate(588.949 -50.83)"/>
    <path id="Pfad_453" data-name="Pfad 453" class="cls-2" d="M826.974,562.42a17.225,17.225,0,0,0-9.128,2.6,16.424,16.424,0,0,0-18.453,8.8,20.029,20.029,0,0,0-6.262,14.959c0,10.285,6.926,18.613,15.464,18.613,6.151,0,11.539-4.38,14.012-10.715a16.97,16.97,0,0,0,4.355.566,17.408,17.408,0,1,0,0-34.815Z" transform="translate(585.392 -70.509)"/>
    <path id="Pfad_454" data-name="Pfad 454" class="cls-11" d="M835.873,650.65l1.452,3.863s1.452,25.625.96,28.049,1.944,11.072,1.944,11.072a61.891,61.891,0,0,1,3.383,27.065l.48,13.532s1.932,5.315.972,6.286-8.255-.861-8.255-.861.972-10.149-2.461-16.436-5.315-22.242-5.315-22.242-4.835-9.669-4.835-13.532-7.738-35.295-7.738-35.295Z" transform="translate(597.296 -50.197)"/>
    <path id="Pfad_455" data-name="Pfad 455" class="cls-2" d="M801.587,655.956s.492-17.408,2.461-22.722a36.076,36.076,0,0,0,2.153-7.714s29.267,5.29,31.69,3.358c0,0,.48,6.766.972,7.246s2.461,12.573,1.931,18.379,0,5.794,0,5.794-19.831,2.9-20.311,0-1.931-2.891-1.931-2.891S800.627,656.866,801.587,655.956Z" transform="translate(588.342 -55.982)"/>
    <g id="Gruppe_30" data-name="Gruppe 30" class="cls-1" transform="translate(1389.917 572.896)">
      <path id="Pfad_456" data-name="Pfad 456" d="M817.536,650.446s-12.228-.332-15.919-1v1c-.96.96,16.928,1.452,16.928,1.452a1.232,1.232,0,0,1,.664.271C818.557,650.446,817.536,650.446,817.536,650.446Z" transform="translate(-801.58 -623.369)"/>
      <path id="Pfad_457" data-name="Pfad 457" d="M835.317,635.5c-.492-.48-.972-7.246-.972-7.246a2.08,2.08,0,0,1-.824.3c.172,2.042.5,5.179.824,5.5s2.46,12.573,1.931,18.38,0,5.794,0,5.794-15.685,2.3-19.487.763a5.814,5.814,0,0,0,.148.689c.48,2.9,20.311,0,20.311,0s-.492,0,0-5.794S835.8,635.988,835.317,635.5Z" transform="translate(-798.078 -628.25)"/>
      <path id="Pfad_458" data-name="Pfad 458" d="M817.536,650.446s-12.228-.332-15.919-1v1c-.96.96,16.928,1.452,16.928,1.452a1.232,1.232,0,0,1,.664.271C818.557,650.446,817.536,650.446,817.536,650.446Z" transform="translate(-801.58 -623.369)"/>
      <path id="Pfad_459" data-name="Pfad 459" d="M835.317,635.5c-.492-.48-.972-7.246-.972-7.246a2.08,2.08,0,0,1-.824.3c.172,2.042.5,5.179.824,5.5s2.46,12.573,1.931,18.38,0,5.794,0,5.794-15.685,2.3-19.487.763a5.814,5.814,0,0,0,.148.689c.48,2.9,20.311,0,20.311,0s-.492,0,0-5.794S835.8,635.988,835.317,635.5Z" transform="translate(-798.078 -628.25)"/>
    </g>
    <path id="Pfad_460" data-name="Pfad 460" class="cls-11" d="M820.848,588.11a6.411,6.411,0,0,0,1.845,2.387,4.135,4.135,0,0,0,1.735.75c-1.083.627-2.263,1.095-3.346,1.722a59.468,59.468,0,0,0-4.921,3.691,10.014,10.014,0,0,1-5.647,2.19,6.914,6.914,0,0,0,.787-6.877,6.425,6.425,0,0,1-.861-2.387c0-1.39,1.23-2.46,2.374-3.2.923-.627,1.87-1.23,2.83-1.833.75-.467,1.882-1.452,2.829-1.415s1.058.873,1.23,1.735A13.641,13.641,0,0,0,820.848,588.11Z" transform="translate(586.945 -65.739)"/>
    <path id="Pfad_461" data-name="Pfad 461" class="cls-4" d="M820.848,588.11a6.411,6.411,0,0,0,1.845,2.387,4.135,4.135,0,0,0,1.735.75c-1.083.627-2.263,1.095-3.346,1.722a59.468,59.468,0,0,0-4.921,3.691,10.014,10.014,0,0,1-5.647,2.19,6.914,6.914,0,0,0,.787-6.877,6.425,6.425,0,0,1-.861-2.387c0-1.39,1.23-2.46,2.374-3.2.923-.627,1.87-1.23,2.83-1.833.75-.467,1.882-1.452,2.829-1.415s1.058.873,1.23,1.735A13.641,13.641,0,0,0,820.848,588.11Z" transform="translate(586.945 -65.739)"/>
    <circle id="Ellipse_56" data-name="Ellipse 56" class="cls-11" cx="11.121" cy="11.121" r="11.121" transform="translate(1416.209 528.658)"/>
    <path id="Pfad_462" data-name="Pfad 462" class="cls-12" d="M843.475,731.792c0,.972-1.932,3.383-1.932,3.383a23.941,23.941,0,0,1-11.6-1.452c-.972-.48.48-3.383.48-3.383l.111-.234a11.739,11.739,0,0,1,1.833-3.149c.96-.959,1.538-4.921,1.538-4.921,3-4.921,8.329,2.128,8.329,2.128s.677,3.691,1.033,5.93A16.859,16.859,0,0,1,843.475,731.792Z" transform="translate(603.05 -34.164)"/>
    <path id="Pfad_463" data-name="Pfad 463" class="cls-4" d="M843.475,729.962c0,.972-1.932,3.383-1.932,3.383a23.941,23.941,0,0,1-11.6-1.452c-.972-.48.48-3.383.48-3.383l.111-.234a23.373,23.373,0,0,0,10.531,2.165l2.2-2.2C843.389,729.064,843.475,729.716,843.475,729.962Z" transform="translate(603.05 -32.334)"/>
    <circle id="Ellipse_57" data-name="Ellipse 57" class="cls-11" cx="10.875" cy="10.875" r="10.875" transform="translate(1383.027 505.69)"/>
    <path id="Pfad_464" data-name="Pfad 464" class="cls-11" d="M803.559,600.684c-2.387,2.276-2.78,5.88-3.026,9.165l-.369,4.81a24.274,24.274,0,0,0-.086,3.9c0,.8.2,1.612.271,2.46s.1,1.919.111,2.891v7.111a8.39,8.39,0,0,0,.787,4.269,2.9,2.9,0,0,0,3.691,1.329,4.207,4.207,0,0,0,1.525-2.362,36.725,36.725,0,0,0,2.461-9.005c.1-1.07.111-2.141.209-3.211s.283-2.19.443-3.272c.689-4.527,1-9.1,1.3-13.668.086-1.353,1.3-6.68-.467-7.27-.861-.283-2.645.6-3.469.9a9.769,9.769,0,0,0-3.383,1.956Z" transform="translate(577.271 -62.369)"/>
    <path id="Pfad_465" data-name="Pfad 465" class="cls-4" d="M803.559,600.684c-2.387,2.276-2.78,5.88-3.026,9.165l-.369,4.81a24.274,24.274,0,0,0-.086,3.9c0,.8.2,1.612.271,2.46s.1,1.919.111,2.891v7.111a8.39,8.39,0,0,0,.787,4.269,2.9,2.9,0,0,0,3.691,1.329,4.207,4.207,0,0,0,1.525-2.362,36.725,36.725,0,0,0,2.461-9.005c.1-1.07.111-2.141.209-3.211s.283-2.19.443-3.272c.689-4.527,1-9.1,1.3-13.668.086-1.353,1.3-6.68-.467-7.27-.861-.283-2.645.6-3.469.9a9.769,9.769,0,0,0-3.383,1.956Z" transform="translate(577.271 -62.369)"/>
    <path id="Pfad_466" data-name="Pfad 466" class="cls-12" d="M825.088,588.16s-8.218,6.286-13.052,7.738c0,0-2.867,3.272-3.358,4.06s-1.476,9.473-2.461,11.416-3.383,6.286,0,10.629c0,0,.96,4.355.48,5.807s-2.239,6.766-.64,7.012,6.446,3.617,10.789,2.657S837.4,641.17,837.4,641.17s2.682-24.912,4.625-29.316l-4.355-1.452s-12.081-7.246-4.835-18.367C832.827,592.035,826.036,590.584,825.088,588.16Z" transform="translate(590.2 -64.583)"/>
    <path id="Pfad_467" data-name="Pfad 467" class="cls-2" d="M796.9,612.416l9.989,7.074a.738.738,0,0,0,.873,0l2.707-2.03a.763.763,0,0,0,0-1.156l-7.689-6.828a.738.738,0,0,0-.75-.147l-4.933,1.771a.75.75,0,0,0-.2,1.316Z" transform="translate(575.33 -59.72)"/>
    <path id="Pfad_468" data-name="Pfad 468" class="cls-11" d="M799.8,632.712a26.766,26.766,0,0,1-1.046-7.541l-.148-3.408a9.839,9.839,0,0,1,.357-3.937,6.434,6.434,0,0,1,4.146-3.629,14.317,14.317,0,0,1,5.647-.406,1.45,1.45,0,0,1,.726.2,1.353,1.353,0,0,1,.394.664,4.454,4.454,0,0,1,.221,3.555,3.69,3.69,0,0,1-1.132,1.169c-1.341.959-2.9,1.6-4.171,2.645a1.513,1.513,0,0,0-.566.714,1.662,1.662,0,0,0,0,.775,12.406,12.406,0,0,0,.64,1.981,1.956,1.956,0,0,0,.554.836c.234.2.541.271.787.455.529.43,1.636,1,1.575,1.673-.185,2.46-1.661,5.216-2.239,7.652C804.443,640.869,800.518,634.792,799.8,632.712Z" transform="translate(576.188 -58.709)"/>
    <g id="Gruppe_31" data-name="Gruppe 31" class="cls-1" transform="translate(1405.275 546.545)">
      <path id="Pfad_469" data-name="Pfad 469" d="M812.251,628.272h-.271a8.279,8.279,0,0,0,3.162,0h.308a11.079,11.079,0,0,0-3.2,0Z" transform="translate(-811.98 -601.921)"/>
      <path id="Pfad_470" data-name="Pfad 470" d="M833.719,606.83c-1.735,3.9-4.294,25.023-4.749,29.218,1.7.443,2.817.763,2.817.763s2.657-24.85,4.6-29.255Z" transform="translate(-808.069 -606.83)"/>
    </g>
    <path id="Pfad_471" data-name="Pfad 471" class="cls-11" d="M832.221,604.092a3.691,3.691,0,0,0,1.587,2.4,21.3,21.3,0,0,1,2.817,2.854,20.211,20.211,0,0,1,2.793,5.6,68.549,68.549,0,0,1,2.325,7.652c-6.151,2.854-13.139,2.719-19.683,4.6a15.709,15.709,0,0,0-7.381,4.367,10.174,10.174,0,0,0-2.719,8.009,1.048,1.048,0,0,0,.148.48,1.034,1.034,0,0,0,.861.344,7.382,7.382,0,0,0,4.515-1.55,21.5,21.5,0,0,0,3.457-3.4,5.56,5.56,0,0,1,2.461-1.821c3.555-1.083,7.381-1.021,11.072-1.083a139.569,139.569,0,0,0,16.5-1.3,1.329,1.329,0,0,0,1.476-1.476c.541-7.258-2.153-14.344-4.921-21.074q-1.661-4.047-3.42-8.058a23.872,23.872,0,0,0-4.183-7.16,7.382,7.382,0,0,0-2.461-1.82,10.408,10.408,0,0,0-3.3-.615,23.377,23.377,0,0,0-5.4-.1,11.49,11.49,0,0,0-.517,2.793c.1,3.322,1.55,6.434,2.977,9.436C831.41,603.624,831.939,603.649,832.221,604.092Z" transform="translate(597.652 -63.968)"/>
    <path id="Pfad_472" data-name="Pfad 472" class="cls-13" d="M812.64,606.67a9.016,9.016,0,0,0-1.23,4.7,6.325,6.325,0,0,0,.308,1.919,6.225,6.225,0,0,0,3.924,3.691" transform="translate(584.387 -60.322)"/>
    <path id="Pfad_473" data-name="Pfad 473" class="cls-2" d="M821.667,574.545a5.647,5.647,0,0,0-1.784.283c-1.612-2.46-5.4-4.158-9.842-4.158-5.88,0-10.641,3.039-10.641,6.779s4.761,6.766,10.641,6.766a14.969,14.969,0,0,0,6.385-1.353,5.794,5.794,0,1,0,5.216-8.316Z" transform="translate(582.514 -68.61)"/>
    <path id="Pfad_474" data-name="Pfad 474" class="cls-4" d="M822.151,583.824a5.782,5.782,0,0,1-5.217-3.286,14.975,14.975,0,0,1-6.384,1.354c-5.868,0-10.629-3.026-10.629-6.766a4.04,4.04,0,0,1,0-.677,4.588,4.588,0,0,0-.541,2.128c0,3.691,4.761,6.766,10.642,6.766a14.971,14.971,0,0,0,6.385-1.353,5.794,5.794,0,0,0,10.912-1.439,5.769,5.769,0,0,1-5.167,3.272Z" transform="translate(582.462 -67.739)"/>
    <path id="Pfad_475" data-name="Pfad 475" class="cls-4" d="M799.414,576.666a16.423,16.423,0,0,1,18.453-8.8,17.4,17.4,0,0,1,26.474,13.36v-1.452a17.4,17.4,0,0,0-26.536-14.763,16.424,16.424,0,0,0-18.453,8.8,20.028,20.028,0,0,0-6.262,14.959v1.452A19.684,19.684,0,0,1,799.414,576.666Z" transform="translate(585.362 -70.509)"/>
    <path id="Pfad_476" data-name="Pfad 476" class="cls-7" d="M890.973,601.511c3.211-5.942-.431-13.237-4.626-18.539s-9.288-10.814-9.177-17.58c.148-9.706,10.457-15.439,18.7-20.594a90.907,90.907,0,0,0,16.78-13.532,24.519,24.519,0,0,0,5.167-6.9c1.7-3.8,1.648-8.119,1.55-12.3q-.541-20.791-2.054-41.532" transform="translate(654.088 -91.664)"/>
    <path id="Pfad_477" data-name="Pfad 477" class="cls-3" d="M928.185,472.631a15.12,15.12,0,0,0-7.554-12.4l-3.4,6.7.1-8.119a14.861,14.861,0,0,0-4.982-.6,15.144,15.144,0,1,0,15.833,14.418Z" transform="translate(667.042 -94.503)"/>
    <path id="Pfad_478" data-name="Pfad 478" class="cls-3" d="M905.924,557.39a15.144,15.144,0,1,1,.726-12.2l-9.46,7.7,10.408-2.461a15.06,15.06,0,0,1-1.673,6.963Z" transform="translate(649.53 -76.748)"/>
    <path id="Pfad_479" data-name="Pfad 479" class="cls-3" d="M897.46,535.014a15.144,15.144,0,0,1-4.81-29.71l-.074,6.237,3.432-6.778h0a15.148,15.148,0,1,1,1.415,30.263Z" transform="translate(653.158 -83.786)"/>
    <path id="Pfad_480" data-name="Pfad 480" class="cls-3" d="M927.348,515.134a15.144,15.144,0,1,1,6.7-28.295l-2.682,7.381,5.511-5.29a15.059,15.059,0,0,1,4.921,10.457,14.611,14.611,0,0,1-.382,4.17A15.144,15.144,0,0,1,927.348,515.134Z" transform="translate(678.575 -88.363)"/>
    <path id="Pfad_481" data-name="Pfad 481" class="cls-4" d="M926.158,475.114c-3.494.394-6.9,1.476-10.408,1.7s-7.381-.627-9.583-3.358a47.022,47.022,0,0,1-2.793-4.921,10.889,10.889,0,0,0-3.814-3.592,15.144,15.144,0,1,0,28.295,10.051C927.29,475.015,926.724,475.052,926.158,475.114Z" transform="translate(666.898 -92.95)"/>
    <path id="Pfad_482" data-name="Pfad 482" class="cls-4" d="M927.337,513.513a15.156,15.156,0,0,1-14.406-21.6,11.21,11.21,0,0,1,3.051,3.039,48.536,48.536,0,0,0,3,5.007c2.35,2.78,6.385,3.69,10.039,3.518s7.185-1.23,10.826-1.538c.5,0,1.021-.086,1.525-.1A15.144,15.144,0,0,1,927.337,513.513Z" transform="translate(678.416 -86.741)"/>
    <path id="Pfad_483" data-name="Pfad 483" class="cls-4" d="M897.46,533.344A15.132,15.132,0,0,1,882.931,512a12.483,12.483,0,0,1,3.2,3.075c1.23,1.661,1.907,3.58,3.285,5.106,2.559,2.854,6.852,3.851,10.728,3.765s7.381-1.009,11.072-1.292a15.144,15.144,0,0,1-13.754,10.691Z" transform="translate(652.907 -82.116)"/>
    <path id="Pfad_484" data-name="Pfad 484" class="cls-4" d="M905.908,555.562a15.156,15.156,0,0,1-27.619-12.3,14.833,14.833,0,0,1,3.322,2.965c1.452,1.759,2.4,3.691,4.06,5.388,3.1,3.039,8.095,4.281,12.548,4.4a66.323,66.323,0,0,0,7.689-.455Z" transform="translate(648.907 -74.92)"/>
    <path id="Pfad_485" data-name="Pfad 485" class="cls-7" d="M1049.973,753.511c3.211-5.942-.431-13.237-4.626-18.539s-9.288-10.814-9.177-17.58c.148-9.706,10.457-15.439,18.7-20.594a90.921,90.921,0,0,0,16.78-13.532,24.52,24.52,0,0,0,5.167-6.9c1.7-3.8,1.648-8.119,1.55-12.3q-.529-20.791-2.055-41.532" transform="translate(838.615 -56.671)"/>
    <path id="Pfad_486" data-name="Pfad 486" class="cls-3" d="M1087.173,624.631a15.119,15.119,0,0,0-7.554-12.4l-3.4,6.7.1-8.119a14.863,14.863,0,0,0-4.921-.6,15.144,15.144,0,1,0,15.833,14.418Z" transform="translate(843.402 -59.51)"/>
    <path id="Pfad_487" data-name="Pfad 487" class="cls-14" d="M1064.924,709.39a15.144,15.144,0,1,1,.726-12.2l-9.46,7.7,10.408-2.46a15.052,15.052,0,0,1-1.673,6.963Z" transform="translate(838.648 -41.755)"/>
    <path id="Pfad_488" data-name="Pfad 488" class="cls-14" d="M1056.461,687.014a15.144,15.144,0,0,1-4.81-29.71l-.074,6.237,3.432-6.779h0a15.148,15.148,0,1,1,1.415,30.263Z" transform="translate(839.632 -48.793)"/>
    <path id="Pfad_489" data-name="Pfad 489" class="cls-3" d="M1086.348,667.134a15.144,15.144,0,1,1,6.7-28.3l-2.682,7.381,5.511-5.29a15.058,15.058,0,0,1,4.921,10.457,14.628,14.628,0,0,1-.381,4.17A15.144,15.144,0,0,1,1086.348,667.134Z" transform="translate(846.503 -53.37)"/>
    <path id="Pfad_490" data-name="Pfad 490" class="cls-4" d="M1085.158,627.114c-3.494.394-6.9,1.476-10.408,1.7s-7.381-.627-9.583-3.358a47,47,0,0,1-2.792-4.921,10.889,10.889,0,0,0-3.814-3.592,15.144,15.144,0,1,0,28.295,10.051C1086.29,627.015,1085.724,627.052,1085.158,627.114Z" transform="translate(843.388 -57.957)"/>
    <path id="Pfad_491" data-name="Pfad 491" class="cls-4" d="M1086.336,665.513a15.156,15.156,0,0,1-14.406-21.6,11.209,11.209,0,0,1,3.051,3.039,48.547,48.547,0,0,0,3,5.007c2.35,2.78,6.385,3.691,10.039,3.519s7.184-1.23,10.826-1.538c.5,0,1.021-.086,1.526-.1A15.143,15.143,0,0,1,1086.336,665.513Z" transform="translate(846.515 -51.748)"/>
    <path id="Pfad_492" data-name="Pfad 492" class="cls-4" d="M1056.46,685.344A15.132,15.132,0,0,1,1041.931,664a12.481,12.481,0,0,1,3.2,3.075c1.231,1.661,1.907,3.58,3.285,5.105,2.559,2.854,6.852,3.851,10.728,3.764s7.381-1.009,11.072-1.292A15.144,15.144,0,0,1,1056.46,685.344Z" transform="translate(839.633 -47.123)"/>
    <path id="Pfad_493" data-name="Pfad 493" class="cls-4" d="M1064.908,707.562a15.156,15.156,0,0,1-27.618-12.3,14.831,14.831,0,0,1,3.321,2.965c1.452,1.759,2.461,3.691,4.06,5.388,3.1,3.039,8.095,4.281,12.548,4.4A66.359,66.359,0,0,0,1064.908,707.562Z" transform="translate(838.664 -39.927)"/>
    <path id="Pfad_494" data-name="Pfad 494" class="cls-15" d="M560.866,594.374a12.068,12.068,0,0,0-4.81-9.743,14.148,14.148,0,0,0-11.822-13.877,14.122,14.122,0,0,0-9.411-10.518h0a12.011,12.011,0,0,0-1.747-.406H531a13.852,13.852,0,0,0-13.385,11.835c-4.318-1-8.267.3-8.993,3.026a3.69,3.69,0,0,0,.123,2.19c.738,2.116,3.137,4.146,6.348,5.142l.418.123.627.16h.135a10.877,10.877,0,0,0-1.033,4.663,10.752,10.752,0,0,0,5.794,9.6l-.283.172a3.839,3.839,0,0,0-.935,1.3,19.51,19.51,0,0,0-1.808,4.355c-.308,1.3-.357,2.657-.738,3.949-.714,2.374-2.534,4.38-2.743,6.852-.1,1.107.086,2.46-.7,3.174a3.838,3.838,0,0,1-.627.443,5.079,5.079,0,0,0-1.366,1.439,4.778,4.778,0,0,1-.96,1.378c-.713.529-1.882.48-2.227,1.3s.554,1.8.344,2.694-.972,1.07-1.525,1.575a5.474,5.474,0,0,0-1.316,2.461,8.07,8.07,0,0,1-6.643-1.7,12.414,12.414,0,0,1,.689,2.46,10.777,10.777,0,0,0-3.58-1.8A11.3,11.3,0,0,1,492.8,623.8l2.042-.283-9.017-13.766-2.67-.554,2.387,4.589a1.464,1.464,0,0,0-.812.972,4.17,4.17,0,0,0-.086,1.562,27.964,27.964,0,0,0,.615,3.691l.689,3.223c.062.3.135.6.221.9a8.475,8.475,0,0,0-2.67.3,23.231,23.231,0,0,0-5.548-1.317,3.076,3.076,0,0,0-1.23,0,3.186,3.186,0,0,0-1.169.947,37.84,37.84,0,0,0-4.121,5.807c-4.921,8.439-11.33,15.808-17.4,23.436-4.183,1.7-8.4,3.309-12.622,4.921l-9.079,3.469a13.768,13.768,0,0,1-5.634,1.23c-.861,0-1.931-.185-2.46.554a5.178,5.178,0,0,0-.554,1.23l-.935.1h0a10.75,10.75,0,0,0-2.178-4.011,1.377,1.377,0,0,0-1.021.787c-.221.406-.357.849-.615,1.23-.48.714-1.329,1.058-1.931,1.661s-.984,1.538-1.648,2.153a6.521,6.521,0,0,1-3.088,1.23,19.482,19.482,0,0,0-4.835,1.833,7.79,7.79,0,0,1-1.784.824,6.7,6.7,0,0,1-2.1.074l-4.8-.357a3.791,3.791,0,0,0-1.292.062,2.46,2.46,0,0,0-1.525,2.46,3.874,3.874,0,0,0,1.525,2.645,9.768,9.768,0,0,0,2.731,1.415,80.147,80.147,0,0,0,12.794,3.789v.972a21.835,21.835,0,0,0,9.842,2.337,1.525,1.525,0,0,0,.738-.135,1.624,1.624,0,0,0,.615-.96,39.58,39.58,0,0,0,1.919-9.424h0a4.92,4.92,0,0,0,1.735-.443c1.648-.455,3.3.677,5.007.861,2.1.234,4.047-1,6.04-1.747l.861-.283a9.446,9.446,0,0,1-1.993,1.907c-.824.59-1.747,1.033-2.547,1.649a17.538,17.538,0,0,1-2.165,1.673,13.562,13.562,0,0,1-1.661.64,10.958,10.958,0,0,0-2.374,1.23,4.81,4.81,0,0,0-1.612,1.575,2.362,2.362,0,0,0-.135,2.214,2.337,2.337,0,0,0,1.587,1.107,6.506,6.506,0,0,0,1.956,0c2.608-.2,5.2-.43,7.8-.664a20.81,20.81,0,0,0,3.26-.468c.566-.135,1.132-.32,1.7-.48a15.153,15.153,0,0,1,2.965-.443,2.462,2.462,0,0,1,.861.086c.6.2,1.033.812,1.648.935a2.462,2.462,0,0,0,1.23-.16,27.435,27.435,0,0,1,5.77-.615,2.382,2.382,0,0,0,2.239-1c.394-.787-.32-2.054-.64-3.1a9.483,9.483,0,0,1-.271-2.042,12.783,12.783,0,0,0-1.427-4.847,12.66,12.66,0,0,1-1.07-2.214,55.948,55.948,0,0,0,10.617-5.388,18.981,18.981,0,0,1,6.053-2.916,16.458,16.458,0,0,1,7.6.886,172.974,172.974,0,0,1,17.432,6.077c2.719,1.12,5.425,2.3,8.23,3.149a12.83,12.83,0,0,0,2.928,2.842,13.535,13.535,0,0,0,6.336,1.735,83.029,83.029,0,0,0,8.919.332,15.047,15.047,0,0,0,6.643-1.23,6.832,6.832,0,0,0,1.39-.923,5.511,5.511,0,0,0,4.38-1.612,10.617,10.617,0,0,0,3.334-5.266c.726-2.8.172-6.151,1.894-8.39.455-.615,1.058-1.107,1.513-1.722a4.848,4.848,0,0,0,.787-2.842.57.57,0,0,1,.074-.111,10.418,10.418,0,0,0,.738-2.83,16.171,16.171,0,0,1,.8-2.239,69.149,69.149,0,0,0,2.288-6.631,38.714,38.714,0,0,0,1.058-4.552c.185-1.23.3-2.46.394-3.691a22.926,22.926,0,0,1,1.119-5.7,46.354,46.354,0,0,0,2.583-13.631v-.271a9.14,9.14,0,0,0,8.095-9.3,9.705,9.705,0,0,0-.849-3.974,12.3,12.3,0,0,0,1.649-6.2Zm-44.017,53.478c.135.48.3.947.455,1.415-.726-.7-1.427-1.427-2.153-2.141.283.1.578.185.849.3a4.586,4.586,0,0,1,.812.43Zm-3.482-2.362c-4.257-3.691-9.177-6.557-13.532-10.137,2.374,1.169,4.687,2.534,6.975,3.838q4.072,2.325,8.255,4.466a6.758,6.758,0,0,1-1.735,1.833Zm1.808-9.3.209-.209v1.464l-1.144-.394a10.209,10.209,0,0,0,.9-.861Zm-37.436,9.965a35.22,35.22,0,0,0,4.527-6.459c1.685,2.94,4.429,5.068,6.754,7.541C485.27,646.757,481.505,646.351,477.741,646.154Z" transform="translate(264.598 -71.105)"/>
    <path id="Pfad_495" data-name="Pfad 495" class="cls-16" d="M415.35,438.25l2.682.541,9.141,13.52-4.023.541Z" transform="translate(349.498 100.975)"/>
    <path id="Pfad_496" data-name="Pfad 496" class="cls-17" d="M414.49,645.485a52.629,52.629,0,0,0,2.682,6.975,66.411,66.411,0,0,0,8.919-2.547,28.109,28.109,0,0,0-1.858-2.46,9.177,9.177,0,0,0-2.522-1.931,6.939,6.939,0,0,0-3.063,0C417.27,645.485,415.88,645.51,414.49,645.485Z" transform="translate(252.982 -51.417)"/>
    <path id="Pfad_497" data-name="Pfad 497" class="cls-16" d="M426.024,649.815a5.56,5.56,0,0,1-3.051-3.469,11.172,11.172,0,0,0-2.325-4.146,1.329,1.329,0,0,0-1.033.775c-.221.394-.357.837-.6,1.23-.492.7-1.353,1.046-1.968,1.636s-.984,1.513-1.648,2.116a6.544,6.544,0,0,1-3.112,1.23A20.185,20.185,0,0,0,407.362,651a8.485,8.485,0,0,1-1.808.812,7.155,7.155,0,0,1-2.116,0l-4.847-.344a3.786,3.786,0,0,0-1.23,0,2.35,2.35,0,0,0-1.538,2.46,3.691,3.691,0,0,0,1.538,2.608,10.213,10.213,0,0,0,2.756,1.4,81.072,81.072,0,0,0,12.991,3.691v.96a22.489,22.489,0,0,0,9.9,2.3,1.671,1.671,0,0,0,.738-.123,1.623,1.623,0,0,0,.615-.959,38.384,38.384,0,0,0,2.03-10.531,8.391,8.391,0,0,0-.209-2.719c-.271-.874.64-.5-.2-.849" transform="translate(240.297 -52.142)"/>
    <path id="Pfad_498" data-name="Pfad 498" class="cls-16" d="M513.785,634.257c-14.369.861-28.566-3.346-42.959-3.789a20.979,20.979,0,0,0-5.339.332,26.9,26.9,0,0,0-5.29,2.054c-7.714,3.592-15.7,6.57-23.669,9.534l-9.165,3.408a13.876,13.876,0,0,1-5.671,1.23c-.873,0-1.944-.184-2.46.541-1.488,2.214-.787,5.45.2,7.935.32.8.861,1.673,1.722,1.759a5.006,5.006,0,0,0,1.747-.443c1.661-.443,3.321.677,5.044.861,2.116.221,4.084-.984,6.09-1.722,3.322-1.23,6.939-1.23,10.432-1.771,5.844-.972,11.269-3.691,16.337-6.779a19.066,19.066,0,0,1,6.09-2.879,16.852,16.852,0,0,1,7.664.873,175.914,175.914,0,0,1,17.58,5.979,81.917,81.917,0,0,0,9.177,3.358,33.215,33.215,0,0,0,20.582-1.23c2.3-.91,4.8-2.46,4.921-4.995.086-1.415-1.021-2.657-1.747-3.875-.468-.775-.947-1.55-1.452-2.3C521.154,638.772,518.152,634,513.785,634.257Z" transform="translate(273.738 -54.853)"/>
    <path id="Pfad_499" data-name="Pfad 499" class="cls-4" d="M513.785,634.257c-14.369.861-28.566-3.346-42.959-3.789a20.979,20.979,0,0,0-5.339.332,26.9,26.9,0,0,0-5.29,2.054c-7.714,3.592-15.7,6.57-23.669,9.534l-9.165,3.408a13.876,13.876,0,0,1-5.671,1.23c-.873,0-1.944-.184-2.46.541-1.488,2.214-.787,5.45.2,7.935.32.8.861,1.673,1.722,1.759a5.006,5.006,0,0,0,1.747-.443c1.661-.443,3.321.677,5.044.861,2.116.221,4.084-.984,6.09-1.722,3.322-1.23,6.939-1.23,10.432-1.771,5.844-.972,11.269-3.691,16.337-6.779a19.066,19.066,0,0,1,6.09-2.879,16.852,16.852,0,0,1,7.664.873,175.914,175.914,0,0,1,17.58,5.979,81.917,81.917,0,0,0,9.177,3.358,33.215,33.215,0,0,0,20.582-1.23c2.3-.91,4.8-2.46,4.921-4.995.086-1.415-1.021-2.657-1.747-3.875-.468-.775-.947-1.55-1.452-2.3C521.154,638.772,518.152,634,513.785,634.257Z" transform="translate(273.738 -54.853)"/>
    <path id="Pfad_500" data-name="Pfad 500" class="cls-17" d="M436.92,647.119q3.371,1.144,6.8,2.116c1.23-2.1,3.691-3.568,4.22-5.979a.567.567,0,0,0,0-.32.589.589,0,0,0-.258-.234,12.894,12.894,0,0,0-5.339-1.563c-1.476-.086-2.153,1.452-2.817,2.534C439.27,644.155,437.523,647.353,436.92,647.119Z" transform="translate(271.756 -52.387)"/>
    <path id="Pfad_501" data-name="Pfad 501" class="cls-16" d="M443.638,645.419a4.92,4.92,0,0,1-3.309-2.178c-.308-.554-.652-1.3-1.292-1.23s-.849.738-.984,1.316a36.915,36.915,0,0,1-1.858,6.385,11.983,11.983,0,0,1-3.974,5.228c-.837.578-1.759,1.009-2.583,1.624a17.74,17.74,0,0,1-2.177,1.648,12.934,12.934,0,0,1-1.673.615,11.585,11.585,0,0,0-2.387,1.23,4.736,4.736,0,0,0-1.636,1.562,2.252,2.252,0,0,0-.123,2.178,2.325,2.325,0,0,0,1.587,1.083,6.69,6.69,0,0,0,1.981,0c2.62-.185,5.241-.418,7.861-.652a22.676,22.676,0,0,0,3.285-.455l1.71-.468a13.607,13.607,0,0,1,2.989-.443,2.324,2.324,0,0,1,.873.086c.6.2,1.033.8,1.661.923a2.781,2.781,0,0,0,1.23-.16,27.156,27.156,0,0,1,5.819-.6,2.456,2.456,0,0,0,2.264-.984c.492-.96-.32-2.03-.652-3.063a9.853,9.853,0,0,1-.271-2.005,12.226,12.226,0,0,0-1.439-4.773c-.664-1.23-1.575-2.583-1.107-3.887a3.691,3.691,0,0,0,.443-1.341C449.691,644.939,444.844,645.689,443.638,645.419Z" transform="translate(262.247 -52.187)"/>
    <path id="Pfad_502" data-name="Pfad 502" class="cls-17" d="M480.685,617.164a11.219,11.219,0,0,1-5.733-5.684c-.234-.541-.431-1.119-.664-1.661a12.624,12.624,0,0,0-3.42-4.761,1.685,1.685,0,0,0-1.23-.529,1.341,1.341,0,0,0-.923,1,3.8,3.8,0,0,0-.1,1.538,27.4,27.4,0,0,0,.615,3.592l.7,3.174a6.965,6.965,0,0,0,.431,1.415,4.921,4.921,0,0,0,1.169,1.39c.64.59,1.292,1.156,1.944,1.722a6.685,6.685,0,0,0,1.23.849,7.148,7.148,0,0,0,2.177.64A18.529,18.529,0,0,1,485.053,623v-2.362a3.124,3.124,0,0,0-.615-1.71A10.91,10.91,0,0,0,480.685,617.164Z" transform="translate(299.422 -60.814)"/>
    <path id="Pfad_503" data-name="Pfad 503" class="cls-4" d="M480.685,617.164a11.219,11.219,0,0,1-5.733-5.684c-.234-.541-.431-1.119-.664-1.661a12.624,12.624,0,0,0-3.42-4.761,1.685,1.685,0,0,0-1.23-.529,1.341,1.341,0,0,0-.923,1,3.8,3.8,0,0,0-.1,1.538,27.4,27.4,0,0,0,.615,3.592l.7,3.174a6.965,6.965,0,0,0,.431,1.415,4.921,4.921,0,0,0,1.169,1.39c.64.59,1.292,1.156,1.944,1.722a6.685,6.685,0,0,0,1.23.849,7.148,7.148,0,0,0,2.177.64A18.529,18.529,0,0,1,485.053,623v-2.362a3.124,3.124,0,0,0-.615-1.71A10.91,10.91,0,0,0,480.685,617.164Z" transform="translate(299.422 -60.814)"/>
    <ellipse id="Ellipse_58" data-name="Ellipse 58" class="cls-16" cx="3.494" cy="3.518" rx="3.494" ry="3.518" transform="translate(822.808 525.029)"/>
    <path id="Pfad_504" data-name="Pfad 504" class="cls-16" d="M504.964,590.5a3.777,3.777,0,0,0-2.756.394,3.827,3.827,0,0,0-.947,1.292,18.765,18.765,0,0,0-1.821,4.281c-.307,1.23-.357,2.62-.75,3.887-.714,2.337-2.547,4.318-2.756,6.754-.1,1.095.086,2.374-.713,3.112a4.519,4.519,0,0,1-.627.455,4.723,4.723,0,0,0-1.378,1.415,4.638,4.638,0,0,1-.972,1.341c-.713.529-1.894.48-2.239,1.23s.554,1.772.344,2.657-.984,1.058-1.538,1.55a5.376,5.376,0,0,0-1.329,2.46,8.206,8.206,0,0,1-6.692-1.661,21.3,21.3,0,0,1,1.046,7.652,3.125,3.125,0,0,1-.615,2.362,42.6,42.6,0,0,1,8.206,1.427,5.66,5.66,0,0,0,3.58,0,5.982,5.982,0,0,0,1.648-1.3c1.476-1.5,3.026-3.137,3.383-5.216a30.642,30.642,0,0,0,.061-3.531,19.908,19.908,0,0,1,.9-4.293,51.08,51.08,0,0,0,1.563-8.833c.16-1.845,1.759-3.322,2.6-4.921,1.575-3.113,3.2-6.348,3.309-9.842C506.514,592.037,506.12,590.622,504.964,590.5Z" transform="translate(311.553 -64.069)"/>
    <path id="Pfad_505" data-name="Pfad 505" class="cls-4" d="M504.964,590.5a3.777,3.777,0,0,0-2.756.394,3.827,3.827,0,0,0-.947,1.292,18.765,18.765,0,0,0-1.821,4.281c-.307,1.23-.357,2.62-.75,3.887-.714,2.337-2.547,4.318-2.756,6.754-.1,1.095.086,2.374-.713,3.112a4.519,4.519,0,0,1-.627.455,4.723,4.723,0,0,0-1.378,1.415,4.638,4.638,0,0,1-.972,1.341c-.713.529-1.894.48-2.239,1.23s.554,1.772.344,2.657-.984,1.058-1.538,1.55a5.376,5.376,0,0,0-1.329,2.46,8.206,8.206,0,0,1-6.692-1.661,21.3,21.3,0,0,1,1.046,7.652,3.125,3.125,0,0,1-.615,2.362,42.6,42.6,0,0,1,8.206,1.427,5.66,5.66,0,0,0,3.58,0,5.982,5.982,0,0,0,1.648-1.3c1.476-1.5,3.026-3.137,3.383-5.216a30.642,30.642,0,0,0,.061-3.531,19.908,19.908,0,0,1,.9-4.293,51.08,51.08,0,0,0,1.563-8.833c.16-1.845,1.759-3.322,2.6-4.921,1.575-3.113,3.2-6.348,3.309-9.842C506.514,592.037,506.12,590.622,504.964,590.5Z" transform="translate(311.553 -64.069)"/>
    <path id="Pfad_506" data-name="Pfad 506" class="cls-16" d="M511.207,641.538c-2.989-1.427-5.179-4.072-7.6-6.348-4.613-4.343-10.26-7.381-15.119-11.478-3.223-2.694-6.151-5.831-9.633-8.095a24.071,24.071,0,0,0-10.322-3.6,2.745,2.745,0,0,0-1.23,0,2.828,2.828,0,0,0-1.169.923,37.189,37.189,0,0,0-4.17,5.721c-6.151,10.457-14.9,19.241-22.144,28.959a1.846,1.846,0,0,0-.357.689,1.711,1.711,0,0,0,.271,1.07l1.476,2.879c.824,1.624,2.153,3.506,3.924,3.186a4.3,4.3,0,0,0,2.055-1.316l6.619-6.336,6.938-6.631c4.06-3.875,8.193-7.849,10.85-12.819,2.067,3.592,5.745,5.942,8.255,9.227.959,1.23,1.747,2.62,2.608,3.949,1.365,2.116,2.928,4.109,4.478,6.151l7.96,10.149a15.227,15.227,0,0,0,3.691,3.691,14.086,14.086,0,0,0,6.385,1.71,84.368,84.368,0,0,0,8.993.32,15.5,15.5,0,0,0,6.7-1.23,6.077,6.077,0,0,0,3.629-5.4,7.923,7.923,0,0,0-1.144-3.359C520.274,648.415,516.559,644.085,511.207,641.538Z" transform="translate(287.713 -59.108)"/>
    <ellipse id="Ellipse_59" data-name="Ellipse 59" class="cls-18" cx="2.694" cy="2.706" rx="2.694" ry="2.706" transform="translate(826.896 528.276)"/>
    <path id="Pfad_507" data-name="Pfad 507" class="cls-17" d="M504.161,594.112a5.179,5.179,0,0,1,.3,3.887,15.771,15.771,0,0,1-1.735,3.58,17.041,17.041,0,0,1-2.251,3.2c4.158.2,8.181-1.427,11.835-3.4,2.952-1.587,5.893-3.543,7.467-6.508a3.444,3.444,0,0,1-2.756-.517,9.844,9.844,0,0,1-2.1-1.956l-2.079-2.338a9.356,9.356,0,0,1-1.23-1.685,4.649,4.649,0,0,1-.554-2.719,15.83,15.83,0,0,1-2.756,2.288c-1.489.972-3.125,1.673-4.626,2.633-.517.345-1.7.886-1.39,1.575S503.742,593.373,504.161,594.112Z" transform="translate(326.91 -65.159)"/>
    <path id="Pfad_508" data-name="Pfad 508" class="cls-4" d="M504.161,594.112a5.179,5.179,0,0,1,.3,3.887,15.771,15.771,0,0,1-1.735,3.58,17.041,17.041,0,0,1-2.251,3.2c4.158.2,8.181-1.427,11.835-3.4,2.952-1.587,5.893-3.543,7.467-6.508a3.444,3.444,0,0,1-2.756-.517,9.844,9.844,0,0,1-2.1-1.956l-2.079-2.338a9.356,9.356,0,0,1-1.23-1.685,4.649,4.649,0,0,1-.554-2.719,15.83,15.83,0,0,1-2.756,2.288c-1.489.972-3.125,1.673-4.626,2.633-.517.345-1.7.886-1.39,1.575S503.742,593.373,504.161,594.112Z" transform="translate(326.91 -65.159)"/>
    <path id="Pfad_509" data-name="Pfad 509" class="cls-18" d="M506.574,592.942a3.506,3.506,0,0,0,0,4.06c.123.148.566,1.07.75,1.083a.677.677,0,0,0,.467-.246,30.881,30.881,0,0,0,2.633-3.137,5.855,5.855,0,0,1,3.346-2.19,7.235,7.235,0,0,1,4.613,1.439,4.38,4.38,0,0,1,1.587,1.23,4.294,4.294,0,0,1,.517,1.759,84.745,84.745,0,0,1,.468,11.183,44.052,44.052,0,0,1-.529,8.058c-.271,1.365-.664,2.706-.849,4.1a26.144,26.144,0,0,0-.172,3.691v5.142a13.539,13.539,0,0,0,.2,2.817c.246,1.12.775,2.165,1.132,3.26a21.326,21.326,0,0,1,.75,3.851l.7,5.315c.221,1.673.394,3.506-.627,4.921-.455.6-1.058,1.095-1.525,1.7-1.735,2.264-1.23,5.5-1.907,8.267a10.309,10.309,0,0,1-3.371,5.167,5.573,5.573,0,0,1-4.441,1.587c-2.165-.406-3.457-2.657-4.047-4.786s-.8-4.441-2.079-6.237a16.545,16.545,0,0,0-4.109-3.432,7.1,7.1,0,0,1-3.211-4.17c-.135-.775,0-1.575-.135-2.362a5.573,5.573,0,0,0-3.432-4.515c-1.107-.43-2.46-.59-3.1-1.6a7.468,7.468,0,0,0,3.236-4.343,22.3,22.3,0,0,0,.787-5.487l.369-6.151c.172-2.768.246-5.5,1.464-7.984.541-1.107,1.23-2.153,1.784-3.248a35.255,35.255,0,0,0,1.907-4.761c.886-2.534,1.771-5.069,2.559-7.627a14.376,14.376,0,0,1,1.4-3.555C504.372,594.578,505.332,593.188,506.574,592.942Z" transform="translate(320.863 -63.583)"/>
    <path id="Pfad_510" data-name="Pfad 510" class="cls-16" d="M492.393,633.3h1.636l.344-2.46a5.129,5.129,0,0,1,.344-1.439,8.6,8.6,0,0,1,.947-1.378c1.6-2.276,1.489-5.29,1.882-8.058a41,41,0,0,1,3.592-10.531l3.174-7.074a9.758,9.758,0,0,0,.689-1.808,10.846,10.846,0,0,0,.2-2.091c0-1.095.344-5.081.381-6.151,0-.406-.9-.185-1.083-.541-.394-.787-.935,1.341-1.685,1.808a4.134,4.134,0,0,0-1.464,2.141c-.689,1.772-1.107,3.691-1.747,5.45a11.133,11.133,0,0,1-2.965,4.822c-.652.566-1.4,1.021-2.018,1.636-1.968,1.944-2.165,5.032-2.227,7.812C492.344,617.139,492.024,633.3,492.393,633.3Z" transform="translate(318.734 -63.791)"/>
    <path id="Pfad_511" data-name="Pfad 511" class="cls-16" d="M514.293,590.5a5.585,5.585,0,0,0-2.916,4,20.222,20.222,0,0,1-1.476,4.921c-1.993,3.469-7.074,4.478-8.488,8.23a15.133,15.133,0,0,0-.566,3.875c-.246,2.694-1.132,5.29-1.4,7.972a35.516,35.516,0,0,0,.148,6.262l1.784,21.184a28.3,28.3,0,0,1-.529,9.325,8.98,8.98,0,0,0,5.339-.886c1.661-.763,3.186-1.808,4.8-2.694,2.756-1.525,5.807-2.6,8.23-4.626a5.035,5.035,0,0,0,1.107-1.23,10.636,10.636,0,0,0,.738-2.78,15,15,0,0,1,.8-2.19,64.518,64.518,0,0,0,2.313-6.545,37.6,37.6,0,0,0,1.058-4.478c.2-1.23.307-2.461.406-3.691a21.647,21.647,0,0,1,1.132-5.6,45.089,45.089,0,0,0,2.6-13.434,7.027,7.027,0,0,0-.135-1.968,10.534,10.534,0,0,0-1.083-2.251c-.738-1.39-1.23-2.916-1.87-4.33a21.294,21.294,0,0,0-7.271-7.64C517.577,590.957,515.9,589.923,514.293,590.5Z" transform="translate(328.214 -64.083)"/>
    <path id="Pfad_512" data-name="Pfad 512" class="cls-17" d="M484.895,619.907a12.827,12.827,0,0,1-3.383-2.571c-.443-.517-.812-1.095-1.23-1.612a8.378,8.378,0,0,0-4.257-2.46,20.784,20.784,0,0,0-4.921-.48,8.928,8.928,0,0,0-3.285.394,3.346,3.346,0,0,0-2.177,2.337,3.875,3.875,0,0,0,1.661,3.445,7.827,7.827,0,0,0,3.309,1.6,26.449,26.449,0,0,0,2.989.357c5.88.615,11.133,3.814,16.288,6.729q6.791,3.863,13.852,7.185a28.79,28.79,0,0,0,.234-4.244c0-1.058-.086-2.682-1.083-3.309a21.71,21.71,0,0,0-4.4-1.316,69.294,69.294,0,0,1-8.87-3.592A44.11,44.11,0,0,1,484.895,619.907Z" transform="translate(301.173 -58.919)"/>
    <ellipse id="Ellipse_60" data-name="Ellipse 60" class="cls-17" cx="10.481" cy="10.543" rx="10.481" ry="10.543" transform="translate(815.193 506.661)"/>
    <path id="Pfad_513" data-name="Pfad 513" class="cls-16" d="M518.766,600.43a16.8,16.8,0,0,0-2.03,3.8c-1.23,2.657-3.322,4.921-4.343,7.738s-1.033,6.434-3.137,8.735a3.061,3.061,0,0,0-.923,1.329,6.344,6.344,0,0,1-.1.96c-.307.836-1.673.873-1.931,1.735-.074.246,0,.517-.123.763-.209.554-.947.64-1.427.972-1.021.689-.812,2.288-1.538,3.285a2.768,2.768,0,0,1-2.62.923,9.228,9.228,0,0,1-2.719-1.021,2.622,2.622,0,0,0-.984-.307,2.029,2.029,0,0,0-1.132.394,6.976,6.976,0,0,0-2.83,5.967,19.486,19.486,0,0,0,1.624,6.68,2.682,2.682,0,0,0,.529,1,2.35,2.35,0,0,0,2.608.2,12.29,12.29,0,0,1,2.547-1.144c1.624-.3,3.211.824,4.859.726a6.753,6.753,0,0,0,3.272-1.44,18.08,18.08,0,0,0,4.4-3.691c.713-.947,1.23-2.018,1.87-3.026a38.81,38.81,0,0,1,2.645-3.531l6.053-7.381a17,17,0,0,0,1.624-2.239,15.78,15.78,0,0,0,1.23-3.383,25.907,25.907,0,0,0,1.23-6.016,23.107,23.107,0,0,0-.443-5.044,17.819,17.819,0,0,0-1.23-4.81C524.438,599.815,521.239,597.551,518.766,600.43Z" transform="translate(323.671 -62.066)"/>
    <path id="Pfad_514" data-name="Pfad 514" class="cls-19" d="M540.925,595.4a11.811,11.811,0,0,0-4.847-9.6,14.037,14.037,0,0,0-11.921-13.668,13.619,13.619,0,0,0-26.831.726c-4.355-.984-8.341.3-9.067,2.977s2.35,6.151,6.938,7.381a12.928,12.928,0,0,0,4.453.443,13.631,13.631,0,0,0,9.374,5.844,13.987,13.987,0,0,0,10.235,10.555,11.748,11.748,0,0,0,3.162,4.367v1.021a8.87,8.87,0,1,0,17.74,0,9.473,9.473,0,0,0-.849-3.924A11.86,11.86,0,0,0,540.925,595.4Z" transform="translate(323.43 -70.791)"/>
    <path id="Pfad_515" data-name="Pfad 515" class="cls-4" d="M491.215,576.408c.726-2.682,4.712-3.961,9.067-2.977a13.853,13.853,0,0,1,13.532-11.663h.9a13.335,13.335,0,0,0-3.863-.578,13.852,13.852,0,0,0-13.532,11.663c-4.355-.984-8.341.3-9.067,2.977s2.35,6.151,6.938,7.381a13.533,13.533,0,0,0,2.633.455C493.429,582.35,490.489,579.151,491.215,576.408Z" transform="translate(317.97 -70.792)"/>
    <path id="Pfad_516" data-name="Pfad 516" class="cls-4" d="M523.124,601.679a9.3,9.3,0,0,1,0-1.009,11.489,11.489,0,0,1-3.162-4.367,13.951,13.951,0,0,1-10.235-10.568,13.594,13.594,0,0,1-9.387-5.831,11.8,11.8,0,0,1-2.62-.074,13.667,13.667,0,0,0,9.042,5.376A13.988,13.988,0,0,0,517,595.761a11.748,11.748,0,0,0,3.162,4.367v1.021a9.03,9.03,0,0,0,8.821,9.177A9.178,9.178,0,0,1,523.124,601.679Z" transform="translate(327.074 -66.501)"/>
    <ellipse id="Ellipse_61" data-name="Ellipse 61" class="cls-17" cx="1.612" cy="2.153" rx="1.612" ry="2.153" transform="translate(829.038 518.62) rotate(-37.22)"/>
  </g>
</svg>
