<svg id="teamwork_icon" data-name="teamwork icon" xmlns="http://www.w3.org/2000/svg" xmlns:xlink="http://www.w3.org/1999/xlink" width="772.243" height="583.552" viewBox="0 0 772.243 583.552">
  <defs>
    <style>
      .cls-1, .cls-7 {
        fill: #6c63ff;
      }

      .cls-1, .cls-14, .cls-6 {
        opacity: 0.1;
      }

      .cls-2 {
        fill: url(#linear-gradient);
      }

      .cls-3 {
        fill: #d38884;
      }

      .cls-4 {
        fill: #444053;
      }

      .cls-5 {
        fill: #b07473;
      }

      .cls-8 {
        fill: #67647e;
      }

      .cls-9 {
        fill: #585268;
      }

      .cls-10 {
        fill: #e1e7ef;
      }

      .cls-11 {
        fill: url(#linear-gradient-2);
      }

      .cls-12 {
        fill: #a27772;
      }

      .cls-13 {
        fill: #cc818c;
      }

      .cls-15 {
        fill: #f6f8fb;
      }

      .cls-16 {
        fill: url(#linear-gradient-3);
      }

      .cls-17 {
        fill: #65617d;
      }

      .cls-18 {
        fill: #fbbebe;
      }

      .cls-19, .cls-26 {
        opacity: 0.05;
      }

      .cls-20 {
        fill: #7c5c5c;
      }

      .cls-21 {
        fill: url(#linear-gradient-4);
      }

      .cls-22 {
        fill: #fdc2cc;
      }

      .cls-23 {
        fill: #d39999;
      }

      .cls-24 {
        fill: #7e5659;
      }

      .cls-25 {
        fill: #865a61;
      }

      .cls-27 {
        fill: url(#linear-gradient-5);
      }

      .cls-28 {
        fill: #fff;
        opacity: 0.5;
      }

      .cls-29 {
        fill: #3f2b3b;
      }

      .cls-30 {
        fill: none;
        stroke: #3f2b3b;
        stroke-miterlimit: 10;
      }

      .cls-31 {
        fill: #a8a8a8;
      }

      .cls-32 {
        opacity: 0.2;
      }
    </style>
    <linearGradient id="linear-gradient" x1="0.5" y1="1" x2="0.5" gradientUnits="objectBoundingBox">
      <stop offset="0" stop-color="gray" stop-opacity="0.251"/>
      <stop offset="0.54" stop-color="gray" stop-opacity="0.122"/>
      <stop offset="1" stop-color="gray" stop-opacity="0.102"/>
    </linearGradient>
    <linearGradient id="linear-gradient-2" x1="0.5" x2="0.5" y2="0" xlink:href="#linear-gradient"/>
    <linearGradient id="linear-gradient-3" x1="0.5" x2="0.5" y2="0" xlink:href="#linear-gradient"/>
    <linearGradient id="linear-gradient-4" x1="1.096" x2="1.096" y2="0" xlink:href="#linear-gradient"/>
    <linearGradient id="linear-gradient-5" x1="0.5" x2="0.5" y2="0" xlink:href="#linear-gradient"/>
  </defs>
  <path id="Pfad_115" data-name="Pfad 115" class="cls-1" d="M43.44,426.65c12.218,47.616,38.086,88.778,78.969,108.727,85,41.467,276.569,20.078,419.568-4.466,73.987-12.7,138.973-47.718,186.21-97.066Z" transform="translate(-35.096 -150.722)"/>
  <path id="Pfad_116" data-name="Pfad 116" class="cls-1" d="M802.684,71.946h-78.46c-3.733,0-6.788-2.783-6.788-6.184s3.048-6.184,6.788-6.184H737.8c-3.733,0-6.788-2.783-6.788-6.184s3.048-6.177,6.788-6.177h-9.686c-3.733,0-6.788-2.783-6.788-6.184s3.048-6.184,6.788-6.184h40.951a116.02,116.02,0,0,0-31.943-8.023C625.454,13.747,585.582,22.395,571.5,31.294A164.339,164.339,0,0,1,514.107,54.23c-68.9,12.958-197.742,28.549-314.526-5C141.538,32.57,98.4,60.773,72.54,107.819H816.307c-.971-13.684-3.876-26.323-9.211-37.38A7.114,7.114,0,0,1,802.684,71.946Z" transform="translate(-44.443 -20.144)"/>
  <path id="Pfad_117" data-name="Pfad 117" class="cls-1" d="M32.832,280.23a287.762,287.762,0,0,0,3.048,83.076l688.88,22.97a294.019,294.019,0,0,0,47.861-66.52Zm272.442,59.264H291.7c3.727,0,6.788,2.783,6.788,6.184s-3.055,6.177-6.788,6.177H213.273c-3.727,0-6.788-2.776-6.788-6.177s3.055-6.184,6.788-6.184h13.576c-3.726,0-6.788-2.783-6.788-6.184s3.055-6.184,6.788-6.184h-9.7c-3.727,0-6.788-2.776-6.788-6.177s3.055-6.184,6.788-6.184h78.46c3.733,0,6.788,2.783,6.788,6.184s-3.048,6.177-6.788,6.177h9.666c3.733,0,6.788,2.783,6.788,6.184S309.028,339.494,305.274,339.494Z" transform="translate(-31.147 -103.689)"/>
  <path id="Pfad_118" data-name="Pfad 118" class="cls-1" d="M803.89,149.94,51.8,166.618C42.638,188.06,36.577,212.3,33.78,237.428H790.708A270.827,270.827,0,0,0,801.637,192.3,195.5,195.5,0,0,0,803.89,149.94Zm-617.4,54.649H172.91c3.727,0,6.788,2.783,6.788,6.184s-3.055,6.184-6.788,6.184H94.456c-3.727,0-6.788-2.783-6.788-6.184s3.055-6.184,6.788-6.184h13.576c-3.727,0-6.788-2.776-6.788-6.177s3.055-6.184,6.788-6.184h-9.7c-3.727,0-6.788-2.783-6.788-6.184s3.055-6.184,6.788-6.184h78.46c3.733,0,6.788,2.783,6.788,6.184s-3.048,6.184-6.788,6.184h9.693c3.726,0,6.788,2.783,6.788,6.184S190.212,204.589,186.485,204.589Z" transform="translate(-31.993 -61.837)"/>
  <ellipse id="Ellipse_1" data-name="Ellipse 1" class="cls-1" cx="51.065" cy="11.465" rx="51.065" ry="11.465" transform="translate(399.885 497.577)"/>
  <ellipse id="Ellipse_2" data-name="Ellipse 2" class="cls-1" cx="92.124" cy="7.562" rx="92.124" ry="7.562" transform="translate(477.483 537.89)"/>
  <ellipse id="Ellipse_3" data-name="Ellipse 3" class="cls-1" cx="92.124" cy="11.465" rx="92.124" ry="11.465" transform="translate(107.595 522.522)"/>
  <ellipse id="Ellipse_4" data-name="Ellipse 4" class="cls-1" cx="69.317" cy="11.465" rx="69.317" ry="11.465" transform="translate(270.862 465.132)"/>
  <ellipse id="Ellipse_5" data-name="Ellipse 5" class="cls-1" cx="55.49" cy="11.465" rx="55.49" ry="11.465" transform="translate(304.041 560.622)"/>
  <path id="Pfad_119" data-name="Pfad 119" class="cls-2" d="M545.318,262.279c-1.466-9.869-10.433-32.9-10.433-32.9h0q-.234-1.018-.529-2.036c-6.36-21.857-15.164-23.757-15.164-23.757L487.656,196.8a2.444,2.444,0,0,1,.679.631,4.373,4.373,0,0,0-.5.075,12.354,12.354,0,0,1-2.763-5.973c-.061-.326-.115-.679-.156-1.011a22.183,22.183,0,0,0-1.806-33.348c-.333-.258-.679-.509-1.011-.747,1.487-1.582,1.534-3.781.421-5.98-2.484-5.159-7.887-8.424-13.44-10.019a22.785,22.785,0,0,0-13.046-.278,47.129,47.129,0,0,0-6.829,3.17c-4.188,2.091-8.824,3.747-11.953,7.188a3.508,3.508,0,0,0-1.195,2.885,7.785,7.785,0,0,0,1.188,2.1,6.33,6.33,0,0,1,.061,5.254,50.913,50.913,0,0,0-1.948,5.05,5.28,5.28,0,0,0,1.052,5.07,22.339,22.339,0,0,0,1.968,1.358,10.324,10.324,0,0,1,1.88,2.111q1.873,2.511,3.733,5.043a51.951,51.951,0,0,1,4.677,7.107,34.638,34.638,0,0,0,2.892,5.43,8.052,8.052,0,0,0,1.242,1.3l-.367-.143a5.654,5.654,0,0,0,4.147,1.69h.19a1.14,1.14,0,0,0,.76-.312c0,.231,0,.462,0,.679.075,2.423.061,5-.109,7.426l-.292-.149a2.545,2.545,0,0,0-2.715.285l-29.031,23.3s-6.313,8.634-5.43,23.54l-5.091,22.352s-6.36,18.965-1.466,32.507,7.731,21.287,7.731,21.287,1.955,15.388,4.894,16.644,4.208,1.935,4.208,1.935l.584,3.679h0s.2.36.543.964c2.138,3.72,10.06,16.847,14.662,15.442a58.848,58.848,0,0,1,.747,10.786l4.555,30.579s3.177,8.315,2.98,12.673,3.706,10.569,3.706,10.569a20.194,20.194,0,0,0-1.955,14.22c1.86,8.145,4.208,45.668,4.208,45.668l3.394,9.1-.1,10.664a10.182,10.182,0,0,1-2.1,4.751c-2.2,2.389-2.036,5.152-7.338,8.417s-8.661,4.5-8.661,8.824a11.352,11.352,0,0,1-.163,1.8c-.489,3.177-1.439,4.9,8.308,5.824a25.7,25.7,0,0,0,19.087-6.381s1.683-3.055,9.612-4.29c0,0,2.715-.143,2.858-2.539.054-.828.041-2.41,0-4.154-.129-3.319-.448-7.2-.869-7.385-.529-.238-1.453-3.577-1.772-4.785h2.206s2.036-15.388,0-25.352-.2-17.031-.2-17.031l-.394-26.316s-2.715-2.905-.584-8.037,0-30.477,0-30.477.787-9.1,3.034-11.227.109-13.324,0-13.908l4,13.433s1.758,26.7,5.485,31.536l1.072,12.1s7.63,11.132,6.163,17.126,1.568,27.674,1.568,27.674v22.162s-3.428,8.9,1.358,12.1l2.036-.081c-.679.631-1.2,1.581-2,2.4-.916.943-1.439,4.534-1.731,7.623-.244,2.613-.326,4.86-.326,4.86a8,8,0,0,0,5.871,3.482c3.835.224,16.474,9.836,16.474,9.836s12.483,0,15.714-.679l.19-.048a4.243,4.243,0,0,0,2.437-1.989,5.091,5.091,0,0,0,.584-3.659c-.4-1.907-1.914-4-5.267-5.776-8.342-4.4-9.584-8.519-9.584-8.519l-5.478-8.22h.781s-.482-8.709,5.478-18.483l-.387-43.055s2.444-14.8-1.758-22.841c0,0-.346-8.512,2.464-11.125S528,387.148,528,387.148s-1.358-14.18-2.953-27.117h0c6.6,6.265,13.453-16.291,14.607-20.3h.17l-.075-.292c.047-.19.075-.285.075-.285h0s-1.466-5.213-.394-4.154,3.72-2.905,3.72-2.905-.394-21.578,4.208-32.452S545.318,262.279,545.318,262.279Zm-19.685,13.732.034-.061c.679,13.175-.129,41.29-.129,41.29s-.91,3.6-1.88,7.847l-.679-26.71h0l-.679-25.162Zm-84.243-9.082s3.326,41.6,0,47.6a31.431,31.431,0,0,0-2.4,8.22c-1.1-2.885-3.428-9.659-2.593-13.25,1.079-4.643-2.152-16.841-2.152-17.126s-.292-6.788,2.036-11.757.8-7.12.8-7.12S439.042,265.354,441.39,266.929Z" transform="translate(-153.341 -58.424)"/>
  <path id="Pfad_120" data-name="Pfad 120" class="cls-3" d="M459.13,455.576c-2.9,12.741-14.424-6.523-17.051-11.146-.339-.6-.529-.957-.529-.957l1.249-5.858,6.6-2.715a18.446,18.446,0,0,1,2.959,1.928C455.981,439.672,461.364,445.706,459.13,455.576Z" transform="translate(-162.977 -153.372)"/>
  <path id="Pfad_121" data-name="Pfad 121" class="cls-3" d="M590.191,433.1a.891.891,0,0,1-.075.285,1.444,1.444,0,0,1-.088.305c-1.134,3.978-7.854,26.371-14.343,20.153-7.1-6.788-3.652-22.481-3.652-22.481h.047l14.933-1.527,2.959,3.041h0Z" transform="translate(-204.622 -151.746)"/>
  <path id="Pfad_122" data-name="Pfad 122" class="cls-4" d="M543.223,544.121l.38,42.763c-5.858,9.707-5.376,18.327-5.376,18.327l-19.3.76c-4.711-3.17-1.358-12-1.358-12v-22.02s-2.98-21.511-1.541-27.47-6.048-16.969-6.048-16.969L508.918,515.5c-3.652-4.8-5.383-31.305-5.383-31.305l-3.917-13.386c.109.577,2.145,11.75,0,13.806s-2.98,11.139-2.98,11.139,2.111,25.169,0,30.253.57,7.976.57,7.976l.387,26.126s-1.826,7.012.19,16.9,0,25.169,0,25.169h-20.71l.1-10.664-3.353-9.028s-2.308-37.265-4.134-45.336a20.254,20.254,0,0,1,1.914-14.119s-3.835-6.143-3.645-10.467S464.994,500,464.994,500l-4.466-30.348a58.96,58.96,0,0,0-2.213-17.289c-2.593-8.648-6.435-19.983-6.435-19.983l4.337.387,21.884,1.948s53.21-3.577,55.592-.6a9.986,9.986,0,0,1,1,3.1c2.389,10.732,5.546,44.351,5.546,44.351s6.435,26.221,3.672,28.814-2.423,11.037-2.423,11.037C545.633,529.391,543.223,544.121,543.223,544.121Z" transform="translate(-166.295 -152.562)"/>
  <path id="Pfad_123" data-name="Pfad 123" class="cls-5" d="M501.538,696.8c-.149,2.383-2.8,2.525-2.8,2.525-7.779,1.222-9.435,4.249-9.435,4.249a24.984,24.984,0,0,1-18.728,6.34c-9.571-.923-8.641-2.627-8.145-5.783a11.966,11.966,0,0,0,.156-1.778c0-4.324,3.312-5.552,8.5-8.824s5.043-5.98,7.2-8.356,2.383-6.985,2.383-6.985c2.444-4.256,8.641.679,8.641.679.292,1.507,9.5,1.3,9.5,1.3s1.222,4.9,1.853,5.186c.414.19.726,4.032.849,7.331C501.578,694.414,501.592,695.982,501.538,696.8Z" transform="translate(-169.592 -230.966)"/>
  <path id="Pfad_124" data-name="Pfad 124" class="cls-6" d="M501.538,704.487c-.149,2.383-2.8,2.525-2.8,2.525-7.779,1.222-9.435,4.249-9.435,4.249a24.984,24.984,0,0,1-18.728,6.34c-9.571-.923-8.641-2.627-8.145-5.783,4.276,1.059,12.449,2.539,17.221-.054,6.632-3.6,11.39-6.109,11.39-6.109l10.48-5.274C501.578,702.1,501.592,703.665,501.538,704.487Z" transform="translate(-169.592 -238.649)"/>
  <path id="Pfad_125" data-name="Pfad 125" class="cls-5" d="M587.672,710.926a4.141,4.141,0,0,1-2.389,1.975l-.183.047c-3.17.679-15.422.679-15.422.679s-12.388-9.578-16.135-9.795a7.879,7.879,0,0,1-5.763-3.462s.075-2.226.312-4.819c.292-3.068.8-6.632,1.7-7.568,1.656-1.731,2.036-4.073,5.763-2.593,0,0,5.322-9.381,11.594-2.131l6.489,9.842s1.222,4.073,9.442,8.492c3.285,1.765,4.752,3.842,5.166,5.736A5.057,5.057,0,0,1,587.672,710.926Z" transform="translate(-197.1 -232.266)"/>
  <path id="Pfad_126" data-name="Pfad 126" class="cls-6" d="M587.672,718.044c-.733.618-1.541,1.283-2.389,1.975l-.183.047c-3.17.679-15.422.679-15.422.679s-12.388-9.578-16.135-9.795a7.879,7.879,0,0,1-5.763-3.462s.075-2.226.312-4.819c3.815,1.14,9.591,3.156,11.139,5.328,2.376,3.306,9.591,7.921,9.591,7.921s13.453-1.3,19.427-1.473A5.058,5.058,0,0,1,587.672,718.044Z" transform="translate(-197.1 -239.385)"/>
  <path id="Pfad_127" data-name="Pfad 127" class="cls-3" d="M512.441,220.869,494.725,239.6s-21.47-1.582-17.723-7.921c1.907-3.231,2.206-9.992,2.036-15.87-.156-5.668-.74-10.494-.74-10.494s30.111-14.987,27.83-1.011a23,23,0,0,0-.081,7.976C507.33,219.335,512.441,220.869,512.441,220.869Z" transform="translate(-174.223 -77.384)"/>
  <path id="Pfad_128" data-name="Pfad 128" class="cls-6" d="M506.923,204.3a23,23,0,0,0-.081,7.976,22.1,22.1,0,0,1-15.761,6.577c-4.073,0-8.478-3.346-11.77-5.281-.156-5.675-.19-8.261-.19-8.261S509.231,190.324,506.923,204.3Z" transform="translate(-175.045 -77.384)"/>
  <path id="Pfad_129" data-name="Pfad 129" class="cls-3" d="M508.418,183.673a22.189,22.189,0,1,1-8.349-17.336A22.189,22.189,0,0,1,508.418,183.673Z" transform="translate(-170.2 -65.548)"/>
  <path id="Pfad_130" data-name="Pfad 130" class="cls-6" d="M536.288,437.39c-5.525,13.148-41.066,13.419-41.066,13.419V436.473l-2.152-.143c.93,4.107-1.3,14.119-1.3,14.119-28.088,3.964-34.937-12.042-34.937-12.042l.977-5.478,21.884,1.948s53.21-3.577,55.592-.6A9.987,9.987,0,0,1,536.288,437.39Z" transform="translate(-167.885 -152.739)"/>
  <path id="Pfad_131" data-name="Pfad 131" class="cls-7" d="M495.222,383.116V368.78l-2.152-.136c.93,4.073-1.3,14.119-1.3,14.119-21.137,2.98-30.246-5.342-33.457-9.645a13.134,13.134,0,0,1-1.48-2.389l8.58-48.261,2.036-71.028,3.075-12.462.713-5.98v-.068h.075l2.186.937,13.08,5.654,14.858-11.22.217-.156.74-.563,1.229.984,3.055,2.45,9.795,63.256s16.969,48.7,20.146,68.36c.129.787.231,1.52.312,2.206C539.023,382.783,495.222,383.116,495.222,383.116Z" transform="translate(-167.885 -86.776)"/>
  <ellipse id="Ellipse_6" data-name="Ellipse 6" class="cls-8" cx="1.263" cy="1.263" rx="1.263" ry="1.263" transform="translate(319.015 152.879)"/>
  <ellipse id="Ellipse_7" data-name="Ellipse 7" class="cls-8" cx="1.263" cy="1.263" rx="1.263" ry="1.263" transform="translate(319.599 164.405)"/>
  <ellipse id="Ellipse_8" data-name="Ellipse 8" class="cls-8" cx="1.263" cy="1.263" rx="1.263" ry="1.263" transform="translate(320.861 183.064)"/>
  <ellipse id="Ellipse_9" data-name="Ellipse 9" class="cls-8" cx="1.263" cy="1.263" rx="1.263" ry="1.263" transform="translate(322.945 203.163)"/>
  <ellipse id="Ellipse_10" data-name="Ellipse 10" class="cls-8" cx="1.263" cy="1.263" rx="1.263" ry="1.263" transform="translate(324.208 222.033)"/>
  <ellipse id="Ellipse_11" data-name="Ellipse 11" class="cls-8" cx="1.263" cy="1.263" rx="1.263" ry="1.263" transform="translate(325.47 242.132)"/>
  <ellipse id="Ellipse_12" data-name="Ellipse 12" class="cls-8" cx="1.263" cy="1.263" rx="1.263" ry="1.263" transform="translate(324.968 262.013)"/>
  <path id="Pfad_132" data-name="Pfad 132" class="cls-6" d="M472.072,331.922s-1.412,18.483-4,23.859-3.747,20.458-3.747,20.458l-6.021-.679a13.133,13.133,0,0,1-1.48-2.389l8.58-48.261,2.036-71.028,3.082-12.469.713-5.98.081-.034a2.43,2.43,0,0,1,2.145.034l.285.149q-.129.367-.244.753c-2.349,7.351-3.224,20.9-3.224,20.9s3.394,24.782,3.747,36.308S472.072,331.922,472.072,331.922Z" transform="translate(-167.882 -89.214)"/>
  <path id="Pfad_133" data-name="Pfad 133" class="cls-6" d="M452.363,436.848a3.476,3.476,0,0,1-.231.448c-2.335,3.944-8.254,6.448-10.053,7.134-.339-.6-.529-.957-.529-.957l1.249-5.858,6.6-2.715A18.45,18.45,0,0,1,452.363,436.848Z" transform="translate(-162.977 -153.372)"/>
  <path id="Pfad_134" data-name="Pfad 134" class="cls-8" d="M427.414,298.81l-5.478,3.265-4.989,22.189s-6.245,18.823-1.446,32.269,7.589,21.144,7.589,21.144,1.921,15.273,4.806,16.522,4.127,1.921,4.127,1.921l.577,3.652s7.82-2.654,10.582-7.331-2.036-16.291-2.036-16.291-4.127-9.9-3.068-14.506-2.118-16.712-2.118-16.969S435.675,337.948,438,333s.774-7.059.774-7.059l-1.446-14.119Z" transform="translate(-154.027 -109.657)"/>
  <path id="Pfad_135" data-name="Pfad 135" class="cls-6" d="M557.683,367.5s-14.505,5.471-19.114.679-4.134-27.28-4.134-27.28-4.412-41.494-7.2-48.309-1.358-56-1.358-56-1.873-6.36-3.509-8.023a1.78,1.78,0,0,0-.346-.278l.563.122,1.969.421,3.055,2.45,9.795,63.256s16.969,48.7,20.146,68.36Z" transform="translate(-188.825 -87.005)"/>
  <path id="Pfad_136" data-name="Pfad 136" class="cls-6" d="M590.581,433.675h-.163c-1.826.238-17.94,2.186-18.008-1.168a9.832,9.832,0,0,1,.061-1.161L587.4,429.82l2.959,3.041h0c.054.2.1.367.136.5Z" transform="translate(-205.011 -151.74)"/>
  <path id="Pfad_137" data-name="Pfad 137" class="cls-8" d="M575.118,266.07l10.589,5.525s8.824,22.848,10.236,32.643c0,0,6.537,26.242,2.036,37.034s-4.127,32.215-4.127,32.215-2.593,3.937-3.652,2.885.387,4.127.387,4.127-18.1,2.4-18.178-1.154,4.154-20.553,4.154-20.553,1.154-40.435-.482-46.775S575.118,266.07,575.118,266.07Z" transform="translate(-205.011 -99.14)"/>
  <path id="Pfad_138" data-name="Pfad 138" class="cls-6" d="M525.759,329.52s-5.96,14.594-7.881,15.558.387,4.8.387,4.8S529.119,334.706,525.759,329.52Z" transform="translate(-187.249 -119.522)"/>
  <path id="Pfad_139" data-name="Pfad 139" class="cls-6" d="M520.211,254.1c.068-.278-7.107,7.039-9.028,8.145S518.195,262.174,520.211,254.1Z" transform="translate(-185.258 -95.292)"/>
  <path id="Pfad_140" data-name="Pfad 140" class="cls-6" d="M490.621,327.82s-10.949,7.08-9.5,9.883S490.621,327.82,490.621,327.82Z" transform="translate(-175.644 -118.976)"/>
  <path id="Pfad_141" data-name="Pfad 141" class="cls-6" d="M524.47,480.07s9.32,5.994,23.818,7.467Z" transform="translate(-189.612 -167.881)"/>
  <path id="Pfad_142" data-name="Pfad 142" class="cls-6" d="M491.5,501.3s8.641,10.861,12.585,11.139S491.5,501.3,491.5,501.3Z" transform="translate(-179.022 -174.701)"/>
  <path id="Pfad_143" data-name="Pfad 143" class="cls-6" d="M504.4,564c-.387.19-4.9,9.795-9.5,10.087S504.4,564,504.4,564Z" transform="translate(-179.815 -194.841)"/>
  <path id="Pfad_144" data-name="Pfad 144" class="cls-6" d="M568.33,594.865s8.566-1.921,10.474,4.222C578.8,599.067,578.227,597.146,568.33,594.865Z" transform="translate(-203.701 -204.664)"/>
  <path id="Pfad_145" data-name="Pfad 145" class="cls-6" d="M559.84,646.405s10.379-2.118,12.585.767S559.84,646.405,559.84,646.405Z" transform="translate(-200.974 -221.071)"/>
  <path id="Pfad_146" data-name="Pfad 146" class="cls-6" d="M511.767,654c0,.095-10.562,2.118-10.182,3.462s11.268,1.154,11.655-.964a2.036,2.036,0,0,0-1.473-2.5Z" transform="translate(-182.258 -223.751)"/>
  <path id="Pfad_147" data-name="Pfad 147" class="cls-6" d="M554.75,667.131s17.356-2.118,16.291,1.534S554.75,667.131,554.75,667.131Z" transform="translate(-199.339 -227.773)"/>
  <path id="Pfad_148" data-name="Pfad 148" class="cls-6" d="M420.89,352.44c.1.285,11.431,1.826,12.965,5.478,0,0-11.139-5.193-12.9-5.193" transform="translate(-156.34 -126.884)"/>
  <path id="Pfad_149" data-name="Pfad 149" class="cls-6" d="M440.226,396.16s-9.415,2.98-8.743,7.467S430.527,401.549,440.226,396.16Z" transform="translate(-159.732 -140.928)"/>
  <path id="Pfad_150" data-name="Pfad 150" class="cls-6" d="M437.92,427.972s3.428-4.7,6.693-3.842S437.92,427.972,437.92,427.972Z" transform="translate(-161.811 -149.878)"/>
  <path id="Pfad_151" data-name="Pfad 151" class="cls-6" d="M500.084,166.335a5.342,5.342,0,0,1-1.1.821c-2.715,1.582-3.462,4.018-4.751,6.829-1.2,2.573-2.525,5.294-4.948,6.754-3.129,1.887-7.249,1.195-10.5,2.837a8.145,8.145,0,0,0-4.344,8.03,23.167,23.167,0,0,0,.923,3.679,26.236,26.236,0,0,1,.991,7.989,1.355,1.355,0,0,1,0,.238,22.183,22.183,0,1,1,23.757-37.177Z" transform="translate(-170.216 -65.546)"/>
  <path id="Pfad_152" data-name="Pfad 152" class="cls-9" d="M494.265,153.564c-2.437-5.118-7.738-8.363-13.189-9.944a22.151,22.151,0,0,0-12.809-.272,46.985,46.985,0,0,0-6.7,3.143c-4.113,2.077-8.634,3.72-11.729,7.134a3.575,3.575,0,0,0-1.174,2.864,8,8,0,0,0,1.161,2.077,6.3,6.3,0,0,1,.061,5.22,47.879,47.879,0,0,0-1.914,5.016,5.278,5.278,0,0,0,1.032,5.03,18.807,18.807,0,0,0,1.941,1.358,10.218,10.218,0,0,1,1.839,2.091l3.665,5.009a50.809,50.809,0,0,1,4.589,7.053,33.606,33.606,0,0,0,2.837,5.383,6.142,6.142,0,0,0,5.145,2.749,1,1,0,0,0,.815-.387,1.073,1.073,0,0,0,.1-.509,26.053,26.053,0,0,0-.971-7.962,22.976,22.976,0,0,1-.923-3.679,8.179,8.179,0,0,1,4.344-8.03c3.258-1.643,7.378-.95,10.5-2.831,2.43-1.466,3.754-4.188,4.948-6.788,1.31-2.81,2.036-5.247,4.751-6.829S495.616,156.259,494.265,153.564Z" transform="translate(-164.973 -59.454)"/>
  <path id="Pfad_153" data-name="Pfad 153" class="cls-6" d="M501.63,693.06s3.394,4.324,2.511,6.788S501.63,693.06,501.63,693.06Z" transform="translate(-182.275 -236.298)"/>
  <path id="Pfad_154" data-name="Pfad 154" class="cls-6" d="M569.28,706.195s.753-5.8,3.774-5.851,3.17-.312,5.478.577,4.473,2.267,3.781,2.471-3.971-3.312-7.338-1.514a24.245,24.245,0,0,0-5.695,4.317Z" transform="translate(-204.006 -238.613)"/>
  <path id="Pfad_155" data-name="Pfad 155" class="cls-6" d="M482.521,249.336l9.5-6.659s-13.9-8.213-15.558-7.059-2.8,11.539-2.8,11.539Z" transform="translate(-173.294 -89.323)"/>
  <path id="Pfad_156" data-name="Pfad 156" class="cls-10" d="M482.461,248.645l9.5-6.788s-13.9-8.213-15.558-7.059-2.8,12.109-2.8,12.109Z" transform="translate(-173.275 -89.059)"/>
  <path id="Pfad_157" data-name="Pfad 157" class="cls-7" d="M482.461,248.645l9.5-6.788s-13.9-8.213-15.558-7.059-2.8,12.109-2.8,12.109Z" transform="translate(-173.275 -89.059)"/>
  <path id="Pfad_158" data-name="Pfad 158" class="cls-8" d="M462.6,234.735l-.285-.143a2.464,2.464,0,0,0-2.668.278L431.136,258s-6.2,8.573-5.335,23.364l16.813,23.818s1.921-8.064,4.222-6.53c0,0,3.265,41.3,0,47.257s-4.7,28.237-4.7,28.237l11.044,1.249s1.154-15.083,3.747-20.458,4-23.859,4-23.859,2.335-26.853,1.948-38.378-3.747-36.308-3.747-36.308S460.073,241.862,462.6,234.735Z" transform="translate(-157.891 -88.943)"/>
  <path id="Pfad_159" data-name="Pfad 159" class="cls-6" d="M516.285,242.813l-11.845-4.385s15.082-16.521,16.97-7.358Z" transform="translate(-183.178 -87.008)"/>
  <path id="Pfad_160" data-name="Pfad 160" class="cls-10" d="M516.285,241.963l-11.845-4.385s15.082-16.522,16.97-7.358Z" transform="translate(-183.178 -86.735)"/>
  <path id="Pfad_161" data-name="Pfad 161" class="cls-7" d="M516.285,241.963l-11.845-4.385s15.082-16.522,16.97-7.358Z" transform="translate(-183.178 -86.735)"/>
  <path id="Pfad_162" data-name="Pfad 162" class="cls-6" d="M521.32,228.116a.679.679,0,0,1,.489.109Z" transform="translate(-188.6 -86.946)"/>
  <path id="Pfad_163" data-name="Pfad 163" class="cls-8" d="M523,226.424l31.427,6.788s8.648,1.921,14.892,23.628-8.553,48.3-8.553,48.3l-3.265-2.776,1.636,63.391s-14.505,5.471-19.114.679-4.127-27.3-4.127-27.3-4.419-41.487-7.209-48.309-1.358-55.993-1.358-55.993S524.765,226.044,523,226.424Z" transform="translate(-189.14 -86.401)"/>
  <path id="Pfad_164" data-name="Pfad 164" class="cls-6" d="M565.165,285.805c-.441.407-.957,19.59.964,34.19a186.331,186.331,0,0,0,5.43,26.316l-2.851-58.49S566.509,284.556,565.165,285.805Z" transform="translate(-202.552 -105.388)"/>
  <path id="Pfad_165" data-name="Pfad 165" class="cls-6" d="M559.7,261.6c.767.482,4.134,8.451,2.593,11.716S559.7,261.6,559.7,261.6Z" transform="translate(-200.929 -97.704)"/>
  <path id="Pfad_166" data-name="Pfad 166" class="cls-6" d="M502.12,155.366a17.349,17.349,0,0,0-6.91-7.236,16.434,16.434,0,0,1,5.179,6.109c1.358,2.715.957,5.43-1.683,6.917s-3.462,4.018-4.751,6.829c-1.2,2.573-2.525,5.294-4.955,6.788-3.122,1.887-7.243,1.188-10.5,2.831a8.2,8.2,0,0,0-4.344,8.037,23.079,23.079,0,0,0,.93,3.672,26.256,26.256,0,0,1,.991,7.989,1.071,1.071,0,0,1-.109.509.971.971,0,0,1-.808.387,4.677,4.677,0,0,1-2.369-.441,5.512,5.512,0,0,0,4.073,1.6.8.8,0,0,0,.91-.9,26.045,26.045,0,0,0-.984-7.989,22.3,22.3,0,0,1-.93-3.679,8.179,8.179,0,0,1,4.344-8.03c3.258-1.643,7.378-.95,10.5-2.831,2.43-1.466,3.754-4.188,4.948-6.788,1.31-2.81,2.036-5.247,4.751-6.829S503.478,158.061,502.12,155.366Z" transform="translate(-173.012 -61.256)"/>
  <path id="Pfad_167" data-name="Pfad 167" class="cls-11" d="M738.255,247.992c-9.354-.183-17.608-6.788-22.284-14.859a14.932,14.932,0,0,1-2.254-6.36,7.339,7.339,0,0,1,.258-1.521,15.78,15.78,0,0,0,.679-2.328,4.073,4.073,0,0,0,0-.95s0,0,0-.054a5.616,5.616,0,0,0-2.036-4.568c-1.249-1.174-2.817-2.036-4.12-3.2-4.018-3.53-5.24-9.191-5.315-14.58v-.285c.048-2.308.231-4.622.211-6.93a29.148,29.148,0,0,0-.17-3.923c-.387-3.265-1.629-6.591-4.195-8.675-6.693-5.43-17.947.224-24.877-4.908-1.683-1.256-3.048-3.109-5.091-3.6a8.576,8.576,0,0,0-4.65.631c-5.1,1.683-10.8,3.9-12.795,8.824-1.14,2.831-.821,6.062-1.867,8.926-.679,1.921-1.975,3.57-2.919,5.39a8.437,8.437,0,0,0-1.086,4.5,5.078,5.078,0,0,0,.333,2.4,6.109,6.109,0,0,0,1.663,2.383,7.91,7.91,0,0,1-.991,1.588c-1.3,1.6-3.306,2.715-4.663,4.3-2.511,2.912-2.417,6.869-1.181,10.29s3.469,6.537,5.009,9.869c.679,1.446,1.195,3.061.509,4.5a12.9,12.9,0,0,1-2.254,2.62,8.233,8.233,0,0,0-2.036,4.548c-15.279,3.489-15.293,15.768-15.293,15.768h0l-8.254,20.757s-1.324,3.5-2.878,8.111L605.94,284.9l6.788,11.363c-1.283,4.629-2.192,8.919-1.894,11.078,0,0-3.034,14.254,2.362,16.746l11.906,5.356a7.053,7.053,0,0,0,1.649.74l.482.217a1.276,1.276,0,0,0,1.113,0h.163a1.6,1.6,0,0,0,.679-.1,1.357,1.357,0,0,0,.6-.645.2.2,0,0,1,0-.068l3.564-1.032,3.021,3.577c1.358.957,2.715,1.785,4,2.532l-4.677,46.442s-.753,61.769-3.034,75.847a39.427,39.427,0,0,0-.529,11.186l-.088.149c.563,3.971,2.036,4.752,2.036,4.752v-.054a.441.441,0,0,0,.088.054,40,40,0,0,1,2.444-5.24v1.018c-.048,5.24-.21,12.578-.753,17.35-.923,8.145,2.362,34.991,2.362,34.991L639.35,545.6a22.59,22.59,0,0,1-2.783,11.906c-2.715,4.88-6.184,11.75-6.435,14.8a3.053,3.053,0,0,0,0,.5h0l-5.824,7.005s-2.274,3.516,2.864,4.935c2.763.767,7.528,0,11.356-.9a7.589,7.589,0,0,0,5.885-7.385,26.132,26.132,0,0,1,4.806-9.225l.957,5.627,6.408,1.588.821-15.422a6.788,6.788,0,0,0,.441-2.715h0c1.263-10.969-2.973-9.985-2.973-9.985a.59.59,0,0,1,.2.38l-.2-.373h0c-2.6-5.132-1.357-13.576-1.357-13.576s3.394-24.436,4.555-30.891c.835-4.561.489-19.495.21-27.83a9.937,9.937,0,0,0-.034-1.011c9.937-.129,22.115-.462,30.66-1.29v1l-1.575,57.73A31.692,31.692,0,0,1,685.12,541.2a.586.586,0,0,1-.075.2,46.835,46.835,0,0,0-3.129,15.13l-.733,18.327v.509h0c-1.276.489-3.292,1.907-3.346,6.021-.088,6.028,10.535,4.018,10.535,4.018,10.616,0,10.7-11.051,10.7-11.051s.333-10.134.842-16.915-1.6-5.288-1.6-5.288l-.163,19.291V554.678l.163-2.45v-.068h0v-.523l1.337-19.9s9.781-33.152,11.295-39.512c1.079-4.521.631-18.137.278-25.665a5.981,5.981,0,0,0-.054-1c3.034-.272,5.715-.3,6.788-.3h.5s-.5-53.243-1.772-73.308-3.285-38.426-8.342-43.951c-3.055-3.34-7.311-13.65-10.182-21.287a106.486,106.486,0,0,0,18.714,6.109c16.012,3.353,13.82-10.548,13.82-10.548l-1.622-26.289h.109a134.04,134.04,0,0,0-1.765-20.553,60.47,60.47,0,0,0-4.127-14.933c1.738-.679,3.455-1.405,5.138-2.152,4.351-1.921,9.252-4.643,9.876-9.333h-.21a6.066,6.066,0,0,0,.163-1.032ZM639,286h0c.034,2.715-.068,7.426-.231,12.632l-5.084-6.788,5.1-8.268ZM707.119,299.789Zm2.118,10.27-8.471-2.715A38.014,38.014,0,0,1,706,300.869l.733-.679-.265.054.407-.373.244-.054-.387.373.462-.1a14.449,14.449,0,0,0,2.885,5.8c3.041,3.319-.835,4.161-.835,4.161Z" transform="translate(-215.782 -68.64)"/>
  <path id="Pfad_168" data-name="Pfad 168" class="cls-12" d="M647.061,715.66l-.991,18.789-6.319-1.582-1.33-7.813Z" transform="translate(-205.064 -229.887)"/>
  <path id="Pfad_169" data-name="Pfad 169" class="cls-6" d="M647.061,715.66l-.991,18.789-6.319-1.582-1.33-7.813Z" transform="translate(-205.064 -229.887)"/>
  <path id="Pfad_170" data-name="Pfad 170" class="cls-13" d="M716.48,710.423l9.639,2,7.148-6.313V688.315l.163-2.43v-.075h0v-.516l1.33-19.773s9.646-32.914,11.146-39.234c1.059-4.48.618-18,.265-25.475-.143-3.061-.265-5.111-.265-5.111l-21.28-5.152-.448,16.359-1.554,57.316a31.76,31.76,0,0,1-2.179,10.664l-.075.2a46.648,46.648,0,0,0-3.088,15.015l-.719,18.225v.5Z" transform="translate(-251.29 -203.37)"/>
  <path id="Pfad_171" data-name="Pfad 171" class="cls-6" d="M741.45,730.144v.5h0v-.516Z" transform="translate(-259.31 -248.205)"/>
  <path id="Pfad_172" data-name="Pfad 172" class="cls-6" d="M716.48,764.391l9.639,2,7.148-6.313V758.56a2.036,2.036,0,0,1-1.025,1.629l-.1.061a19.209,19.209,0,0,1-10.82,2.138l-3.76-.319a3.522,3.522,0,0,0-1,.244v.5Z" transform="translate(-251.29 -257.338)"/>
  <path id="Pfad_173" data-name="Pfad 173" class="cls-5" d="M730.6,751.792l.1-.054a2.036,2.036,0,0,0,1.039-1.765l.156-19.148s2.077-1.487,1.575,5.247-.828,16.793-.828,16.793-.081,10.969-10.555,10.969c0,0-10.474,2-10.392-3.991s4.324-6.231,4.324-6.231l3.76.326A19.163,19.163,0,0,0,730.6,751.792Z" transform="translate(-249.754 -248.383)"/>
  <path id="Pfad_174" data-name="Pfad 174" class="cls-13" d="M642.52,709.318c.244,4.324,12.965,1.826,12.965,1.826l8.559-16.617s7.148-5.491,3.57-10.311a7.684,7.684,0,0,1-.523-.821l-.034-.041h0c-.075-.122-.143-.251-.21-.387h0c-2.566-5.091-1.3-13.44-1.3-13.44s3.319-24.273,4.487-30.674c.821-4.521.482-19.352.21-27.647-.109-3.448-.21-5.763-.21-5.763l-21.117-5.654v6.3c-.048,5.206-.21,12.49-.747,17.227-.91,8.057,2.328,34.74,2.328,34.74l1.12,24.28a22.487,22.487,0,0,1-2.715,11.818c-2.647,4.846-6.109,11.675-6.347,14.7a2.97,2.97,0,0,0-.034.468Z" transform="translate(-227.532 -206.338)"/>
  <path id="Pfad_175" data-name="Pfad 175" class="cls-6" d="M642.517,748.883c.244,4.324,12.965,1.826,12.965,1.826l8.559-16.617s7.148-5.491,3.57-10.311a7.693,7.693,0,0,1-.523-.821c-.115,2.518-2.878,8.824-2.878,8.824s-7.066,14.139-9.313,17.377-12.008-.6-12.374-.74a2.973,2.973,0,0,0-.007.462Z" transform="translate(-227.529 -245.902)"/>
  <path id="Pfad_176" data-name="Pfad 176" class="cls-5" d="M663.86,722.289s4.181-.971,2.932,9.917h0a7.012,7.012,0,0,1-3.306,6.224c-2.994,1.88-7.609,5.926-9.944,13.793h0a7.521,7.521,0,0,1-5.8,7.331c-3.774.882-8.478,1.656-11.2.9-5.07-1.412-2.824-4.9-2.824-4.9l5.817-6.9s10.141,3.991,12.381.747,9.313-17.37,9.313-17.37S665.1,723.206,663.86,722.289Z" transform="translate(-224.545 -245.68)"/>
  <path id="Pfad_177" data-name="Pfad 177" class="cls-6" d="M728.268,593.52l-.448,16.359c5.668-.55,9.727-1.317,10.419-2.4,1.5-2.321,6.944-3.3,11.573-3.7-.143-3.061-.265-5.111-.265-5.111Z" transform="translate(-254.932 -204.324)"/>
  <path id="Pfad_178" data-name="Pfad 178" class="cls-6" d="M651.94,609.019a7.764,7.764,0,0,1,2.328-2.81c2.24-1.242,2,7.982,2,7.982s7.467.068,17-.054c-.109-3.448-.21-5.77-.21-5.77L651.94,602.72S651.981,605.34,651.94,609.019Z" transform="translate(-230.558 -207.279)"/>
  <path id="Pfad_179" data-name="Pfad 179" class="cls-4" d="M647.349,542.287s2.5-6.788,4.751-8,2,7.976,2,7.976,54.859.5,57.6-3.74,18.7-3.991,18.7-3.991-.5-52.863-1.744-72.806-3.238-38.154-8.227-43.639c-3.224-3.55-7.813-15.035-10.65-22.692-1.541-4.181-2.566-7.229-2.566-7.229l-52.361,2.987-.428,4.242L648.862,451s-.747,61.341-2.993,75.3S647.349,542.287,647.349,542.287Z" transform="translate(-228.377 -138.361)"/>
  <g id="Gruppe_7" data-name="Gruppe 7" class="cls-14" transform="translate(416.834 249.809)">
    <path id="Pfad_180" data-name="Pfad 180" d="M713.12,538.527c2.715-4.236,18.7-3.991,18.7-3.991s-.5-52.863-1.744-72.806-3.238-38.154-8.227-43.639c-3.238-3.564-7.813-15.035-10.65-22.692-1.3-3.516-2.226-6.224-2.484-7l4.073-.231s1.025,3.048,2.573,7.229c2.837,7.657,7.419,19.142,10.643,22.692,4.989,5.485,6.985,23.689,8.227,43.639s1.751,72.806,1.751,72.806-15.958-.244-18.707,3.991c-2.342,3.618-42.709,3.788-54.425,3.754C677.885,542.246,711,541.8,713.12,538.527Z" transform="translate(-650.897 -388.17)"/>
    <path id="Pfad_181" data-name="Pfad 181" d="M647.867,603.385c1.011-.563,1.514,1,1.765,2.892a39.157,39.157,0,0,0-2.355,5.1s-1.446-.781-2.036-4.751A9.238,9.238,0,0,1,647.867,603.385Z" transform="translate(-645.24 -457.264)"/>
  </g>
  <path id="Pfad_182" data-name="Pfad 182" class="cls-9" d="M667.288,196.191c-3.625,4.942.041,11.967-3.849,16.773-1.283,1.588-3.258,2.715-4.6,4.276-2.478,2.892-2.383,6.822-1.167,10.216s3.394,6.489,4.942,9.8c.679,1.432,1.181,3.041.5,4.466a12.649,12.649,0,0,1-2.226,2.6c-2.5,2.79-2.566,6.666-1.222,9.951s3.91,6.109,6.442,8.892c1,1.093,2.26,2.3,3.923,2.267a5.43,5.43,0,0,0,2.464-.808,25.115,25.115,0,0,0,11.431-32.778c-2.1-5.043-5.614-9.876-5.647-15.2,0-4.229,2.172-8.268,2.559-12.476.468-5.118-2.559-13.243-8.736-15.476C672.515,191.975,669.128,193.652,667.288,196.191Z" transform="translate(-232.134 -74.284)"/>
  <path id="Pfad_183" data-name="Pfad 183" class="cls-6" d="M667.288,196.191c-3.625,4.942.041,11.967-3.849,16.773-1.283,1.588-3.258,2.715-4.6,4.276-2.478,2.892-2.383,6.822-1.167,10.216s3.394,6.489,4.942,9.8c.679,1.432,1.181,3.041.5,4.466a12.649,12.649,0,0,1-2.226,2.6c-2.5,2.79-2.566,6.666-1.222,9.951s3.91,6.109,6.442,8.892c1,1.093,2.26,2.3,3.923,2.267a5.43,5.43,0,0,0,2.464-.808,25.115,25.115,0,0,0,11.431-32.778c-2.1-5.043-5.614-9.876-5.647-15.2,0-4.229,2.172-8.268,2.559-12.476.468-5.118-2.559-13.243-8.736-15.476C672.515,191.975,669.128,193.652,667.288,196.191Z" transform="translate(-232.134 -74.284)"/>
  <path id="Pfad_184" data-name="Pfad 184" class="cls-6" d="M712.627,464.55c-7.256.38-14.085,3.5-20.438,7.032s-12.5,7.528-19.339,10.032" transform="translate(-237.275 -162.896)"/>
  <path id="Pfad_185" data-name="Pfad 185" class="cls-6" d="M708.691,489.74a29.914,29.914,0,0,0-18.836,9.164c-1.765,1.867-3.285,3.957-5.125,5.749a22.766,22.766,0,0,1-10.1,5.722" transform="translate(-237.846 -170.987)"/>
  <path id="Pfad_186" data-name="Pfad 186" class="cls-6" d="M707.563,508.91a32.934,32.934,0,0,0-15.15,9.136c-1.113,1.2-2.125,2.484-3.238,3.686-6.007,6.448-14.492,9.869-22.685,13.107" transform="translate(-235.232 -177.145)"/>
  <path id="Pfad_187" data-name="Pfad 187" class="cls-13" d="M712.461,242.894a148.956,148.956,0,0,0,1.493,17.323c.679,4.073,1.629,7.738,2.993,9.36,3.991,4.751-19.447,11.1-19.447,11.1L683.66,269.95s10.969-10.1,5.858-19.949S712.461,242.894,712.461,242.894Z" transform="translate(-240.747 -91.583)"/>
  <path id="Pfad_188" data-name="Pfad 188" class="cls-6" d="M658.79,395.4h55.354c-1.541-4.181-2.566-7.229-2.566-7.229l-52.361,2.987Z" transform="translate(-232.758 -138.361)"/>
  <path id="Pfad_189" data-name="Pfad 189" class="cls-7" d="M648.426,357.162h59.183c-1.663-5.953,0-11.458,2.369-15.693a34.682,34.682,0,0,1,6.2-8.037l.407-.373,20.662-4.575,1.113-.244s.17-37.57-13.134-42.729a77.78,77.78,0,0,1-21.28-12.13l-18.28,5.647L672.2,272.24c-4.324,4.65-15.8,2.824-15.8,2.824-18.782,2.159-18.782,16.291-18.782,16.291s10.969,25.6,11.8,25.6S648.426,357.162,648.426,357.162Z" transform="translate(-225.958 -101.122)"/>
  <path id="Pfad_190" data-name="Pfad 190" class="cls-6" d="M675.985,358.681s-12.069-2.674-16.175-7.351" transform="translate(-233.086 -126.527)"/>
  <path id="Pfad_191" data-name="Pfad 191" class="cls-6" d="M766.666,341.51l-14,11.471a23.83,23.83,0,0,0,.462,2.715l.407-.373,20.662-4.575Z" transform="translate(-262.914 -123.373)"/>
  <path id="Pfad_192" data-name="Pfad 192" class="cls-6" d="M717.46,383.761s3.061,1.724,7.752,3.991h8.044c-1.663-5.953,0-11.458,2.369-15.693l-14.18-4.589C726.271,371.957,717.46,383.761,717.46,383.761Z" transform="translate(-251.604 -131.712)"/>
  <path id="Pfad_193" data-name="Pfad 193" class="cls-7" d="M638.058,293.76l-8.308,4.487L621.6,318.861s-8.478,22.6-7.65,28.59c0,0-2.987,14.132,2.328,16.623l13.847,6.272a1.29,1.29,0,0,0,1.663-1.778c-1.975-3.74-4.147-9.591-.679-12.809l-3.991-8.308,14.424-23.608,4.819-8.145Z" transform="translate(-218.088 -108.035)"/>
  <path id="Pfad_194" data-name="Pfad 194" class="cls-6" d="M677.039,352.5c.72,2.932,3.15,7.467,11.193,9.157l8.824,7.229,9.388,4.256,3.828,1.731,1.622-11.723-3.686-2.036-4.3-2.349s-9.693-17.56-25.04-10.182a3.394,3.394,0,0,0-1.833,3.917Z" transform="translate(-238.585 -125.064)"/>
  <path id="Pfad_195" data-name="Pfad 195" class="cls-13" d="M677.786,351.049c.719,2.939,3.143,7.467,11.186,9.157l8.824,7.229,9.394,4.256,3.822,1.731,1.622-11.723-3.686-2.036-4.263-2.328s-9.7-17.56-25.047-10.148a3.394,3.394,0,0,0-1.853,3.862Z" transform="translate(-238.83 -124.61)"/>
  <ellipse id="Ellipse_13" data-name="Ellipse 13" class="cls-6" cx="21.443" cy="21.443" rx="21.443" ry="21.443" transform="translate(434.808 123.63)"/>
  <ellipse id="Ellipse_14" data-name="Ellipse 14" class="cls-13" cx="21.443" cy="21.443" rx="21.443" ry="21.443" transform="translate(434.808 123.135)"/>
  <path id="Pfad_196" data-name="Pfad 196" class="cls-6" d="M719.828,290.273l-6.448-12.53s9.435-3.815,10.121-8.234,9.041,5.179,7.236,8.363S719.828,290.273,719.828,290.273Z" transform="translate(-250.294 -99.878)"/>
  <path id="Pfad_197" data-name="Pfad 197" class="cls-7" d="M719.828,288.8l-6.448-12.53s9.435-3.815,10.121-8.234,9.041,5.186,7.236,8.363S719.828,288.8,719.828,288.8Z" transform="translate(-250.294 -99.406)"/>
  <path id="Pfad_198" data-name="Pfad 198" class="cls-15" d="M632.962,344.656l35.629,47.9s-13.134,7.148-31.224-5.647l-7.813-9.313L607.25,340Z" transform="translate(-216.203 -122.888)"/>
  <path id="Pfad_199" data-name="Pfad 199" class="cls-13" d="M634.4,379.39l3.245-.088s19.82-19.237,24.687-9.5-12.347,18.829-12.347,18.829l-5.233,2.824-6.822,2.036-4.365-5.858Z" transform="translate(-224.657 -131.577)"/>
  <path id="Pfad_200" data-name="Pfad 200" class="cls-6" d="M637.066,394.657a4.843,4.843,0,0,1,.081,3.353,1.357,1.357,0,0,1-.591.645,1.514,1.514,0,0,1-.679.1,6.822,6.822,0,0,1-4.473-2.213,20.428,20.428,0,0,1-2.9-4.195c-.882-1.541-1.8-3.245-1.487-5,.353-1.907,2.036-3.231,3.686-4.3,3.285-2.172,3.394.36,4.113,3.156S636.313,391.833,637.066,394.657Z" transform="translate(-222.533 -136.451)"/>
  <path id="Pfad_201" data-name="Pfad 201" class="cls-7" d="M636.335,394.657a4.882,4.882,0,0,1,.081,3.353,1.358,1.358,0,0,1-.591.645,1.527,1.527,0,0,1-.679.1,6.788,6.788,0,0,1-4.473-2.213,20.2,20.2,0,0,1-2.905-4.195c-.882-1.541-1.8-3.245-1.48-5,.346-1.907,2.036-3.231,3.679-4.3,3.292-2.172,3.394.36,4.12,3.156S635.575,391.833,636.335,394.657Z" transform="translate(-222.298 -136.451)"/>
  <path id="Pfad_202" data-name="Pfad 202" class="cls-6" d="M623.85,316.613l1.656-2.8-1.446,5.206Z" transform="translate(-200.384 -100.805)"/>
  <path id="Pfad_203" data-name="Pfad 203" class="cls-6" d="M721.19,378.458l3.822,1.731,1.622-11.723-3.686-2.036C725.493,369.349,723.267,374.745,721.19,378.458Z" transform="translate(-252.802 -131.378)"/>
  <path id="Pfad_204" data-name="Pfad 204" class="cls-6" d="M735.47,362.863s-12.34.753-17.58-2.613" transform="translate(-251.742 -129.393)"/>
  <g id="Gruppe_8" data-name="Gruppe 8" class="cls-14" transform="translate(429.656 172.095)">
    <path id="Pfad_205" data-name="Pfad 205" d="M738.928,343.478a34.744,34.744,0,0,1,6.2-8.044,16.557,16.557,0,0,1,1.826-.991l19.237-3.951,1.113-.244s.17-37.57-13.128-42.729a79.907,79.907,0,0,1-20.744-11.682l1.459-.448a77.575,77.575,0,0,0,21.28,12.13c13.3,5.152,13.128,42.729,13.128,42.729h-2l-19.685,3.767s-.848.821-1.106,1.059a38.151,38.151,0,0,0-6.292,8.322,20.866,20.866,0,0,0-1.649,15.775h-2.036C734.889,353.219,736.586,347.714,738.928,343.478Z" transform="translate(-686.391 -274.229)"/>
    <path id="Pfad_206" data-name="Pfad 206" d="M664.13,277.939c.319-.048.624-.1.957-.129a34.423,34.423,0,0,0,4.073.333A37.034,37.034,0,0,1,664.13,277.939Z" transform="translate(-664.13 -275.007)"/>
    <path id="Pfad_207" data-name="Pfad 207" d="M699.937,280.488l-12.177-6.163a6.445,6.445,0,0,0,.679-.645l12.707,6.428Z" transform="translate(-671.72 -273.68)"/>
  </g>
  <path id="Pfad_208" data-name="Pfad 208" class="cls-7" d="M756.073,340l8.145,9.978,1.663,27.1s2.159,13.793-13.63,10.467-34.061-13.6-34.061-13.6,8.824-11.8,3.991-16.291l22.61,7.317s3.822-.835.828-4.154S742.1,351.5,742.1,351.5Z" transform="translate(-251.839 -122.888)"/>
  <path id="Pfad_209" data-name="Pfad 209" class="cls-6" d="M779.42,382.17l4.487,5.152a6.469,6.469,0,0,1-4.487-5.152Z" transform="translate(-271.507 -136.434)"/>
  <path id="Pfad_210" data-name="Pfad 210" class="cls-6" d="M736.99,360.8l6.985,8.973-3.489.835Z" transform="translate(-236.727 -115.899)"/>
  <path id="Pfad_211" data-name="Pfad 211" class="cls-6" d="M665.413,204.633c-.767-1.88-.177-4.073.747-5.844a46.163,46.163,0,0,0,2.885-5.356c1.025-2.837.713-6.048,1.833-8.824,1.975-4.921,7.589-7.12,12.619-8.824a8.484,8.484,0,0,1,4.589-.624c2.036.482,3.36,2.328,5.023,3.57,6.828,5.091,17.933-.516,24.538,4.874,2.525,2.036,3.754,5.369,4.134,8.607s0,6.523-.041,9.788c-.109,5.715.964,11.967,5.24,15.755,1.29,1.14,2.81,2,4.073,3.177a5.561,5.561,0,0,1,2.036,4.541,15.733,15.733,0,0,1-.679,2.308c-.849,2.98.421,6.109,1.968,8.824,4.616,7.989,12.754,14.573,21.979,14.757-.618,4.656-5.43,7.358-9.74,9.265-5.43,2.437-11.214,4.826-17.194,4.521s-12.218-4.134-13.263-10.026c-.36-2.036-.312-4.487-2.036-5.546-1.059-.645-2.43-.482-3.57-.964-1.649-.679-2.464-2.532-3.007-4.236a38.124,38.124,0,0,1-1.772-10.86c-.075-4.371.5-9.143-1.975-12.741-2.294-3.333-6.367-5.023-9.014-8.084-2.444-2.837-5.1-6.258-9.1-6.788C680.143,205.121,668.685,212.649,665.413,204.633Z" transform="translate(-234.772 -69.897)"/>
  <path id="Pfad_212" data-name="Pfad 212" class="cls-9" d="M665.413,203.163c-.767-1.88-.177-4.073.747-5.844a46.16,46.16,0,0,0,2.885-5.356c1.025-2.837.713-6.048,1.833-8.824,1.975-4.928,7.589-7.127,12.619-8.824a8.484,8.484,0,0,1,4.589-.624c2.036.482,3.36,2.328,5.023,3.57,6.828,5.091,17.933-.516,24.538,4.874,2.525,2.036,3.754,5.369,4.134,8.614s0,6.516-.041,9.781c-.109,5.715.964,11.967,5.24,15.755,1.29,1.14,2.81,2,4.073,3.177A5.561,5.561,0,0,1,733.087,224a15.733,15.733,0,0,1-.679,2.308c-.849,2.98.421,6.109,1.968,8.824,4.629,7.962,12.734,14.567,21.958,14.75-.618,4.656-5.43,7.358-9.74,9.272-5.43,2.43-11.214,4.819-17.194,4.514s-12.218-4.134-13.263-10.026c-.36-2.036-.312-4.487-2.036-5.546-1.059-.645-2.43-.482-3.57-.964-1.649-.679-2.464-2.532-3.007-4.236a38.08,38.08,0,0,1-1.772-10.86c-.075-4.371.5-9.143-1.975-12.741-2.294-3.333-6.367-5.023-9.014-8.084-2.444-2.837-5.1-6.258-9.1-6.788C680.143,203.651,668.685,211.193,665.413,203.163Z" transform="translate(-234.772 -69.425)"/>
  <path id="Pfad_213" data-name="Pfad 213" class="cls-6" d="M686,289.013l12.293-9.978s-8.417-4.561-9.421-8.451-7.738,1.846-7.053,5.335S686,289.013,686,289.013Z" transform="translate(-240.139 -100.172)"/>
  <path id="Pfad_214" data-name="Pfad 214" class="cls-7" d="M686.728,286.806l12.293-9.971s-8.417-4.561-9.381-8.451-7.738,1.846-7.052,5.335S686.728,286.806,686.728,286.806Z" transform="translate(-240.387 -99.465)"/>
  <ellipse id="Ellipse_15" data-name="Ellipse 15" class="cls-6" cx="0.977" cy="0.977" rx="0.977" ry="0.977" transform="translate(458.138 184.741)"/>
  <ellipse id="Ellipse_16" data-name="Ellipse 16" class="cls-6" cx="0.977" cy="0.977" rx="0.977" ry="0.977" transform="translate(458.138 190.171)"/>
  <ellipse id="Ellipse_17" data-name="Ellipse 17" class="cls-6" cx="0.977" cy="0.977" rx="0.977" ry="0.977" transform="translate(458.138 195.595)"/>
  <g id="Gruppe_9" data-name="Gruppe 9" class="cls-14" transform="translate(430.442 111.528)">
    <path id="Pfad_215" data-name="Pfad 215" d="M672.286,192.8c.971-2.668.76-5.661,1.67-8.349a9.124,9.124,0,0,0-1.039,1.914c-1.127,2.8-.808,6.014-1.839,8.824l-.068.163A15.509,15.509,0,0,0,672.286,192.8Z" transform="translate(-667.126 -184.45)"/>
    <path id="Pfad_216" data-name="Pfad 216" d="M748,267.061c-5.43,2.43-11.213,4.819-17.193,4.514s-12.218-4.134-13.263-10.019c-.36-2.036-.312-4.494-2.036-5.552-1.059-.645-2.43-.482-3.57-.964-1.649-.679-2.464-2.532-3.007-4.236a38.08,38.08,0,0,1-1.772-10.86c-.075-4.365.509-9.136-1.969-12.741-2.3-3.333-6.374-5.016-9.021-8.084-2.444-2.831-5.1-6.258-9.1-6.788-5.491-.747-16.97,6.788-20.214-1.235a6.313,6.313,0,0,1,.21-4.636c-.237.4-.468.8-.679,1.208-.923,1.806-1.507,3.971-.74,5.851,3.265,8.01,14.723.482,20.214,1.235,4,.543,6.659,3.971,9.1,6.788,2.647,3.068,6.72,4.751,9.014,8.091,2.484,3.6,1.9,8.369,1.975,12.734a38.08,38.08,0,0,0,1.772,10.861c.543,1.711,1.358,3.543,3.007,4.236,1.14.482,2.511.326,3.57.964,1.751,1.059,1.7,3.536,2.036,5.552,1.059,5.885,7.29,9.713,13.263,10.019s11.729-2.077,17.193-4.514c3.937-1.751,8.322-4.174,9.5-8.145C754.406,263.919,751.067,265.7,748,267.061Z" transform="translate(-665.288 -191.52)"/>
  </g>
  <path id="Pfad_217" data-name="Pfad 217" class="cls-16" d="M902.306,316.094c-14.37-8.268-19.8-10.3-19.827-10.3l-.3-.21A11.952,11.952,0,0,1,878.562,301a9.555,9.555,0,0,1,0-.984.412.412,0,0,0,0,.1c.224-4.378,3.34-8.363,6.292-11.838l7.555-8.885a8.756,8.756,0,0,0,1.948-3.082,7.108,7.108,0,0,0,.2-1.894q0-.387,0-.774c-.041-2.206-.1-4.419-.183-6.625-.068-1.928-.563-4.358-2.491-4.751-1-.2-2.335.156-2.864-.679a1.649,1.649,0,0,1-.129-1.147.4.4,0,0,0,0,.1v-.109a25.555,25.555,0,0,0,.713-4.541,6.191,6.191,0,0,0-.312-2.3c-1.113-3.2-4.962-4.514-8.363-5.118s-7.215-1.12-9.347-3.781a27.652,27.652,0,0,0-1.86-2.559,7.338,7.338,0,0,0-3.475-1.717,19.684,19.684,0,0,0-12.646,1.1c-1.643.733-3.292,1.724-5.1,1.615s-3.475-1.412-5.322-1.724c-2.987-.509-5.844,1.683-7.317,4.283a10.474,10.474,0,0,0-1.358,5.05v.3h0a7.385,7.385,0,0,0,1.941,5.159c1.29,1.358,3.2,2.254,3.74,4.012.217.713.163,1.487.36,2.213a1.985,1.985,0,0,0,.082.265l-.1.129a22.4,22.4,0,0,0-4.751,13.806,22.916,22.916,0,0,0,16.1,21.721v.679a9.766,9.766,0,0,1-3.122,7.6l-20.357,8.132s-12.272-1.459-16.7,16.474a30.58,30.58,0,0,0-.76,9.1c.163,2.715-.21,7.467-3.394,13.623-5.03,9.856-3.883,32.48,6.408,34.72,9.713,2.118,13.515,1.235,13.915,1.134v.394c-.163,4.249-1.7,40.863-7.3,45.288-1.548,1.229-1.262,2.036,0,2.613,0,0,0,.238-.034.679-.17,2.715-1.032,12.9-4.751,18.68-4.351,6.72-3.9,45.478-3.9,45.478l-2.966,22.848s1.826,14.112,0,16.576c-1.636,2.192-3.808,54.4-4.263,65.719h-.19a5.512,5.512,0,0,0-4.4,2.715c-2.4,3.9-10.82,11.118-10.82,11.118-1.826,2.593-8.58,5.077-12.15,6.245a7.55,7.55,0,0,0-1.358.6,7.242,7.242,0,0,0-3.068,3.231,3.469,3.469,0,0,0-.326,2.715c.91,2.233,19.9,3.808,24.7,1.561,3.774-1.758,18.734-4.073,24.945-4.982a5.118,5.118,0,0,0,4.439-4.439,2.925,2.925,0,0,0-.57-2.22h0c-1.188-1.473-1.792-5.5-2.036-8.145a5.506,5.506,0,0,0,1.4-.828,59.632,59.632,0,0,1,3.394-23.968c4.575-12.1,5.946-34.5,4.806-49.055,0,0,13.949-60.031,24.932-65.631h0c.17.217,5.5,7.053,6.177,28.224.679,21.5,8.458,35.616,8.458,35.616s-3.435,36.512,0,50.175l-4.487,21.551c-.333-.278-.543-.5-.543-.5s.136.6.319,1.554l-.095.462.2.041c.509,2.715,1.263,7.392.95,10.182-.177,1.568-.618,3.72-.916,5.831-.475,3.319-.6,6.537,1.14,7.243,2.865,1.154,19.685,2.715,22.536-.977a5.288,5.288,0,0,0,.828-5.532,5.6,5.6,0,0,0-.828-1.412s-4.466-7.3-3.2-12.442a3.787,3.787,0,0,0-.536-2.953,151.751,151.751,0,0,1,3.849-24.137c2.864-10.779,8.9-34.414,4.46-49.951h0q-.251-.916-.57-1.792a67.089,67.089,0,0,1-2.518-26.208,53.414,53.414,0,0,1,0-22.848c2.749-12.544,4.67-24.864,4.67-24.864s1.514-16.576.19-26.737a6.679,6.679,0,0,0-.088-.679l.719-.163s-3.889-17.248-5.26-28.224c-.326-2.593-.747-5.871-1.208-9.374a23.928,23.928,0,0,0,3.726-.93c12.347-4.256,16.236-42.763,16.236-42.763V343.163S916.716,324.381,902.306,316.094ZM810.291,613.562c-.38-.19-.6-.319-.6-.319h0Z" transform="translate(-269.192 -90.714)"/>
  <path id="Pfad_218" data-name="Pfad 218" class="cls-17" d="M910.621,627.907c5.356,15.4-.9,40.4-3.8,51.587a155.941,155.941,0,0,0-3.794,24.558,51.72,51.72,0,0,1-19.644-.448l4.69-22.99c-3.353-13.616,0-50.006,0-50.006s-7.589-14.064-8.261-35.493c-.679-21.09-5.858-27.911-6.021-28.122h0c-10.711,5.58-24.327,65.407-24.327,65.407,1.113,14.506-.231,36.831-4.69,48.872a60.41,60.41,0,0,0-3.346,23.88c-1.561,1.358-3.733,1.548-6.109,1.167-6.374-1.032-14.017-6.523-14.017-6.523s2.45-65.163,4.242-67.634,0-16.521,0-16.521l2.9-22.766s-.448-38.623,3.794-45.315c3.665-5.783,4.507-15.951,4.67-18.619v-.679l6.462-7.738s62.5-4.69,67.2,0c1.147,1.147,1.86,3.767,2.281,7.059,1.29,10.127-.19,26.642-.19,26.642S910.784,566.5,908.1,579a54.385,54.385,0,0,0,0,22.773A68.169,68.169,0,0,0,910.621,627.907Z" transform="translate(-284.96 -180.206)"/>
  <path id="Pfad_219" data-name="Pfad 219" class="cls-12" d="M935.977,810.847c-2.79,3.686-19.2,2.125-21.992.977-1.7-.679-1.575-3.917-1.113-7.222.292-2.1.719-4.242.9-5.8.441-4.018-1.358-12.17-1.358-12.17s3.679,3.91,4.568,0a4.257,4.257,0,0,1,3.19-3.027,8.335,8.335,0,0,1,5.8.36c2.9,1.263,7.731,3.944,6.869,7.568-1.229,5.125,3.122,12.4,3.122,12.4a5.644,5.644,0,0,1,.815,1.4,5.356,5.356,0,0,1-.794,5.518Z" transform="translate(-314.226 -265.266)"/>
  <path id="Pfad_220" data-name="Pfad 220" class="cls-6" d="M936.054,820.955c-2.79,3.686-19.2,2.125-21.992.977-1.7-.679-1.575-3.917-1.113-7.222,1.765.828,4.751,1.514,9.754,1.052a27.5,27.5,0,0,1,3.509-.109,81.629,81.629,0,0,0,10.657-.217A5.355,5.355,0,0,1,936.054,820.955Z" transform="translate(-314.303 -275.374)"/>
  <path id="Pfad_221" data-name="Pfad 221" class="cls-6" d="M856.086,653.3c1.113,14.505-.231,36.831-4.69,48.872a60.412,60.412,0,0,0-3.346,23.879c-1.561,1.358-3.733,1.548-6.109,1.168,1.358-9.415,7.086-49.979,10.759-82.031,4.188-36.5,23.757-61.606,23.757-61.606l3.9,4.3C869.7,593.47,856.086,653.3,856.086,653.3Z" transform="translate(-291.59 -201.131)"/>
  <path id="Pfad_222" data-name="Pfad 222" class="cls-18" d="M915.731,327.975l-2.715,13.392L899.665,363.8l-16.46-7.032s-22.4-23.438-8.315-26.785a12.463,12.463,0,0,0,4.67-2.077,9.657,9.657,0,0,0,3.645-8.077,24.762,24.762,0,0,0-2.267-9.6l28.794-9.041a46.217,46.217,0,0,0-2.036,11.661c-.224,7.847,2.715,11.709,5.084,13.576A8.649,8.649,0,0,0,915.731,327.975Z" transform="translate(-300.68 -110.421)"/>
  <path id="Pfad_223" data-name="Pfad 223" class="cls-6" d="M914.767,301.19a46.217,46.217,0,0,0-2.036,11.661,21.91,21.91,0,0,1-1.677,1.785,22.78,22.78,0,0,1-22.766,5.193,24.762,24.762,0,0,0-2.288-9.6Z" transform="translate(-305.743 -110.421)"/>
  <path id="Pfad_224" data-name="Pfad 224" class="cls-18" d="M911.7,284.986a22.665,22.665,0,1,1-6.64-16.13,22.773,22.773,0,0,1,6.64,16.13Z" transform="translate(-299.367 -97.903)"/>
  <path id="Pfad_225" data-name="Pfad 225" class="cls-6" d="M915.731,339.908,913.016,353.3l-13.352,22.434L883.2,368.7s-22.4-23.438-8.315-26.785a12.464,12.464,0,0,0,4.67-2.077c-2.539,6.978,7.942,21.5,7.942,21.5,1.222,1.8,4.018.679,4.018.679,6.754-1.025,19.182-20.445,21.212-23.676A8.647,8.647,0,0,0,915.731,339.908Z" transform="translate(-300.68 -122.355)"/>
  <path id="Pfad_226" data-name="Pfad 226" class="cls-6" d="M920.3,527.59c-3.964.9-25.9,5.756-34.211,4.541-9.15-1.358-26.941-2.226-26.941-2.226s-11.329.611-14.818-.984v-.679l6.462-7.738s62.5-4.69,67.2,0C919.166,521.678,919.878,524.3,920.3,527.59Z" transform="translate(-292.357 -180.2)"/>
  <path id="Pfad_227" data-name="Pfad 227" class="cls-7" d="M871.824,362.109s-11.777-16.291-7.338-22.671l-19.9,8.145S832.617,346.13,828.3,364a31.1,31.1,0,0,0-.74,9.068c.163,2.715-.2,7.467-3.279,13.576-4.908,9.822-3.794,32.371,6.252,34.618s13.61,1.113,13.61,1.113-1.358,40.849-7.141,45.539,14.8,3.57,14.8,3.57,17.791.9,26.948,2.233,34.821-4.69,34.821-4.69-3.794-17.187-5.138-28.122-4.473-34.231-4.473-34.231l22.766-30.844s4.018-18.639-10.046-26.9-19.352-10.284-19.352-10.284-14.132,23.011-21.5,24.124C875.842,362.774,873.046,363.9,871.824,362.109Z" transform="translate(-285.009 -122.454)"/>
  <path id="Pfad_228" data-name="Pfad 228" class="cls-6" d="M855.384,382.74s-.217,7.372,1.12,10.27,6.252,19.006,6.252,19.006H851.59s6.028-6.476,5.586-9.6S855.384,382.74,855.384,382.74Z" transform="translate(-294.69 -136.617)"/>
  <path id="Pfad_229" data-name="Pfad 229" class="cls-18" d="M889.025,449.825s-24.653-6.028-26.948-11.159-8.627-16.623-8.627-16.623l2.6-3.5,11.987,9.408s14.254,11.383,20.988,12.5S889.025,449.825,889.025,449.825Z" transform="translate(-295.287 -148.117)"/>
  <path id="Pfad_230" data-name="Pfad 230" class="cls-19" d="M889.025,449.825s-24.653-6.028-26.948-11.159-8.627-16.623-8.627-16.623l2.6-3.5,11.987,9.408s14.254,11.383,20.988,12.5S889.025,449.825,889.025,449.825Z" transform="translate(-295.287 -148.117)"/>
  <path id="Pfad_231" data-name="Pfad 231" class="cls-18" d="M916.185,421.81v13.372H914.04a62.507,62.507,0,0,0-30.366,7.866l-4.021,2.227-1.079.6-6.924-15.612,6.476-5.8h.333c1.582.156,8.43.726,11.336-.251,2.756-.937,6.177-3.9,14.3-1.833,4,1.025,7.419,5.5,11.295,4.107Z" transform="translate(-301.133 -149.119)"/>
  <path id="Pfad_232" data-name="Pfad 232" class="cls-6" d="M946,378.819l4.46,5.023v12.171s-3.794,38.392-15.843,42.634-33.573-2.457-33.573-2.457-5.559-14.73-2.959-15.612,22.977-6.272,22.977-6.272-.285-22.522,4.175-29.221c0,0-2.9-20.981,7.148-21.429S946,378.819,946,378.819Z" transform="translate(-309.401 -130.484)"/>
  <path id="Pfad_233" data-name="Pfad 233" class="cls-7" d="M947,378.819l4.466,5.023v12.171s-3.794,38.392-15.849,42.634-33.572-2.457-33.572-2.457-5.559-14.73-2.953-15.612,22.977-6.272,22.977-6.272-.292-22.522,4.174-29.221c0,0-2.905-20.981,7.141-21.429S947,378.819,947,378.819Z" transform="translate(-309.724 -130.484)"/>
  <path id="Pfad_234" data-name="Pfad 234" class="cls-6" d="M907.655,294.614a8.974,8.974,0,0,0-.509-4.351,3.313,3.313,0,0,0-3.543-2.036c-1.907.448-2.715,2.932-4.6,3.53-1.582.5-3.306-.618-4.073-2.091a10.414,10.414,0,0,1-.774-4.86v-5.593c0-2.036-.068-4.222-1.317-5.817-1.554-1.982-5.213-2.851-7.657-2.769a6.5,6.5,0,0,0-4.371,1.758,5.626,5.626,0,0,1-4.6,1.636,3.957,3.957,0,0,1-3.2-2.769v-.068A22.766,22.766,0,1,1,906.854,301.4a61.4,61.4,0,0,0,.8-6.788Z" transform="translate(-301.57 -97.865)"/>
  <path id="Pfad_235" data-name="Pfad 235" class="cls-20" d="M873.421,266.824a3.991,3.991,0,0,1-3.211-2.776c-.183-.72-.136-1.487-.346-2.2-.523-1.758-2.4-2.668-3.652-4-2.511-2.668-2.349-7.053-.57-10.263,1.439-2.586,4.222-4.751,7.141-4.263,1.805.312,3.394,1.6,5.2,1.717s3.394-.876,4.975-1.609a18.748,18.748,0,0,1,12.367-1.1,7.127,7.127,0,0,1,3.394,1.717,29.687,29.687,0,0,1,1.812,2.545c2.077,2.647,5.8,3.17,9.123,3.767s7.073,1.914,8.145,5.1c.726,2.118,0,4.412-.394,6.611a2,2,0,0,0,.088,1.358c.523.855,1.819.5,2.8.679,1.88.4,2.362,2.824,2.437,4.751q.115,3.3.177,6.6a8.408,8.408,0,0,1-.2,2.444,8.628,8.628,0,0,1-1.894,3.075l-7.372,8.858c-3.272,3.923-6.74,8.5-6.109,13.576-1.548.679-3.394-.645-3.9-2.267a10.14,10.14,0,0,1,.244-5.03,61.675,61.675,0,0,0,1.181-8.722,8.947,8.947,0,0,0-.509-4.344,3.312,3.312,0,0,0-3.543-2.036c-1.914.448-2.715,2.932-4.6,3.53-1.582.5-3.306-.618-4.073-2.091a10.386,10.386,0,0,1-.774-4.853V272c0-2.036-.068-4.222-1.317-5.817-1.554-1.982-5.213-2.851-7.657-2.769a6.5,6.5,0,0,0-4.365,1.758A5.636,5.636,0,0,1,873.421,266.824Z" transform="translate(-298.777 -91.328)"/>
  <path id="Pfad_236" data-name="Pfad 236" class="cls-6" d="M885.3,381.92l6.991,28.719S897.8,410.605,885.3,381.92Z" transform="translate(-305.518 -136.353)"/>
  <path id="Pfad_237" data-name="Pfad 237" class="cls-6" d="M917.458,374.85s-9.15,14.987-5.58,30.491l1.7.122S910.542,398.288,917.458,374.85Z" transform="translate(-313.79 -134.082)"/>
  <path id="Pfad_238" data-name="Pfad 238" class="cls-6" d="M929,499.443s11.241-3.72,12.055,4.908C941.082,504.35,938.964,498.438,929,499.443Z" transform="translate(-319.555 -173.848)"/>
  <path id="Pfad_239" data-name="Pfad 239" class="cls-6" d="M872.1,426.81s-2.233,15.612,1.785,21.877a48.957,48.957,0,0,1-19.644,2.681L852.88,426.81Z" transform="translate(-295.104 -150.773)"/>
  <path id="Pfad_240" data-name="Pfad 240" class="cls-6" d="M879.653,446.6l-1.079.6-6.924-15.612,6.476-5.8h.333C878.356,426.564,876.551,439.983,879.653,446.6Z" transform="translate(-301.133 -150.445)"/>
  <path id="Pfad_241" data-name="Pfad 241" class="cls-7" d="M869.042,425.83s-2.233,15.612,1.785,21.87a48.814,48.814,0,0,1-19.644,2.681L843.37,425.83Z" transform="translate(-292.049 -150.458)"/>
  <path id="Pfad_242" data-name="Pfad 242" class="cls-12" d="M827.7,801.074a5.057,5.057,0,0,1-4.338,4.426c-6.061.9-20.662,3.211-24.348,4.969-4.69,2.233-23.214.679-24.11-1.561a3.543,3.543,0,0,1,.319-2.715,7.155,7.155,0,0,1,2.993-3.217,7.935,7.935,0,0,1,1.358-.6c3.489-1.161,10.08-3.631,11.858-6.224,0,0,8.22-7.188,10.562-11.071a5.362,5.362,0,0,1,4.29-2.674c1.955-.088,4.134.9,5.03,5.179,0,0,10.7,6.109,13.576.753,0,0,.448,8.227,2.226,10.48h0A2.986,2.986,0,0,1,827.7,801.074Z" transform="translate(-270.013 -264.996)"/>
  <path id="Pfad_243" data-name="Pfad 243" class="cls-6" d="M827.7,808.844a5.057,5.057,0,0,1-4.338,4.426c-6.061.9-20.662,3.211-24.348,4.969-4.69,2.233-23.214.679-24.11-1.561a3.543,3.543,0,0,1,.319-2.715,7.155,7.155,0,0,1,2.993-3.217c3.021,2.036,9.727,3.964,24.477,1.663,14.071-2.2,21.042-4.351,24.436-5.817h0a2.987,2.987,0,0,1,.57,2.253Z" transform="translate(-270.013 -272.766)"/>
  <g id="Gruppe_10" data-name="Gruppe 10" class="cls-14" transform="translate(565.518 160.977)">
    <path id="Pfad_244" data-name="Pfad 244" d="M942.45,269.7v-.109a19.99,19.99,0,0,0,.679-5.07,33.45,33.45,0,0,1-.679,4.073A2.471,2.471,0,0,0,942.45,269.7Z" transform="translate(-889.373 -259.619)"/>
    <path id="Pfad_245" data-name="Pfad 245" d="M904.336,288.273a6.455,6.455,0,0,1,.55,2.552,7.7,7.7,0,0,0-.55-3.557,3.3,3.3,0,0,0-3.536-2.036c-1.914.448-2.715,2.932-4.609,3.53-1.575.5-3.3-.618-4.073-2.091a10.327,10.327,0,0,1-.774-4.86v-5.593c0-2.036-.068-4.222-1.317-5.817-1.561-1.989-5.213-2.851-7.657-2.776A6.5,6.5,0,0,0,878,269.389a5.64,5.64,0,0,1-4.6,1.636,3.978,3.978,0,0,1-3.2-2.769c-.183-.72-.136-1.493-.346-2.206-.523-1.751-2.4-2.668-3.652-4a7.311,7.311,0,0,1-1.88-4.751,7.609,7.609,0,0,0,1.88,5.722c1.256,1.358,3.129,2.247,3.652,4,.21.679.163,1.487.346,2.206A3.978,3.978,0,0,0,873.4,272a5.64,5.64,0,0,0,4.6-1.636,6.5,6.5,0,0,1,4.371-1.765c2.444-.075,6.109.787,7.657,2.776,1.249,1.6,1.31,3.788,1.317,5.817v5.593a10.272,10.272,0,0,0,.774,4.853c.774,1.459,2.478,2.6,4.073,2.1,1.873-.6,2.715-3.082,4.609-3.53A3.428,3.428,0,0,1,904.336,288.273Z" transform="translate(-864.285 -257.3)"/>
    <path id="Pfad_246" data-name="Pfad 246" d="M943.034,293.2a8.581,8.581,0,0,1-1.9,3.068l-7.372,8.858c-3.1,3.727-6.381,8.044-6.109,12.8.224-4.365,3.265-8.335,6.109-11.8l7.372-8.858a8.58,8.58,0,0,0,1.9-3.068,8.474,8.474,0,0,0,.2-2.45,6.453,6.453,0,0,1-.2,1.446Z" transform="translate(-884.635 -268.366)"/>
    <path id="Pfad_247" data-name="Pfad 247" d="M921.884,327.545a5.222,5.222,0,0,1-.224-1.195,6.021,6.021,0,0,0,.224,2.2c.5,1.615,2.342,2.953,3.9,2.26a9.506,9.506,0,0,1-.081-.977C924.151,330.45,922.359,329.133,921.884,327.545Z" transform="translate(-882.708 -279.48)"/>
  </g>
  <path id="Pfad_248" data-name="Pfad 248" class="cls-6" d="M812.69,789.36s2.335,4.073,10.793.489" transform="translate(-282.194 -267.231)"/>
  <path id="Pfad_249" data-name="Pfad 249" class="cls-6" d="M918,790.82s7.29,8.587,16.481,2.817" transform="translate(-316.022 -267.7)"/>
  <path id="Pfad_250" data-name="Pfad 250" class="cls-6" d="M946.742,641.23s-5.152,3.217-5.315,5.057,2.661-1.358,2.661-1.358Z" transform="translate(-323.545 -219.649)"/>
  <path id="Pfad_251" data-name="Pfad 251" class="cls-6" d="M947.883,677.59a10.772,10.772,0,0,1-6.347,2.478c-3.855.17-3.53,5.193-1.011,3.686S947.883,677.59,947.883,677.59Z" transform="translate(-322.65 -231.328)"/>
  <path id="Pfad_252" data-name="Pfad 252" class="cls-6" d="M951.58,682.34s-2.471,12.143-4.48,9.8" transform="translate(-325.369 -232.854)"/>
  <path id="Pfad_253" data-name="Pfad 253" class="cls-21" d="M246.961,628.017s15.51,4.256,22.977-1.405,10.7-3.842,10.7-3.842,17.8-.984,19.271-5.193-6.829-19.495-6.829-19.495c-.591-1.358-1.453-3.082-1.839-3.082l.081-6.448h0l2.579-26.982c5.953-15.266.109-34.991.109-34.991l-1.066-4.894a12.381,12.381,0,0,1,1.011-8.145l10.813-21.721a32.506,32.506,0,0,1,2.036-4.168c.679-1.242,1.582-2.776,2.715-4.616.333-.529.679-1.079,1.059-1.656,1.31-2.036,2.9-4.344,4.819-7.005,4.785-6.632,7.3-14.933,8.607-21.042l.577,1.914h.129l.156.034h.258l.278.047h.1l3.326,42.329c.2,16.508,6.265,25.644,6.265,25.644l-.835,36.444c1.14,8.777-1.358,20.479-2.5,25.149l-2.62,5.912a7.107,7.107,0,0,0-3.862,5.376c-.516,4.365-5.111,13.772-5.111,13.772-1.778,2.254-5.641,8.342-5.641,8.342s-1.819,5.878-.692,8.078,10.548,1.975,10.548,1.975c10.759,2.382,19.006-3.394,18.483-7.372s1.677-4.989,1.677-4.989c4.276-1.358,3.862-4.256,3.862-4.256a26.636,26.636,0,0,0-3.238-17.336l-.679,1.568a23.872,23.872,0,0,1,1.29-9.252l-.394.271-.122.075h-.041c.679-5.953,6.93-16.969,6.93-16.969,11.485-20.146,7.31-47.447,7.31-47.447l-1.778-8.512-.1-3.211a107.158,107.158,0,0,1,1.731-22.875c.618-3.34,1.256-7.372,1.744-11.817,1.032-9.394,4.358-19.087,5.892-23.194l.455-.081h.054c.624-.109,1.256-.217,1.894-.339h.122s.367-1.982.679-5.356c.183-2.152.333-4.88.333-8.016a90.191,90.191,0,0,0-4.283-27.9l.346-.5s.821-1.113,2.321-3.041h0c2.756-3.5,7.046-8.824,12.333-14.825,9.469-10.8,6.686-21.721,6.686-21.721s-6.856-25.122-9.91-40.2a45.721,45.721,0,0,0-7.521-17.886,35.6,35.6,0,0,0,.95-7.249c.2-4.466.047-9.123-1.962-13.134s-6.285-7.181-10.752-6.645a4.113,4.113,0,0,1-1.928,0,2.932,2.932,0,0,1-1.269-1.106c-2.613-3.6-2.783-8.451-1.968-12.822s2.484-8.553,3.231-12.938.407-9.252-2.383-12.727c-3.279-4.073-8.994-5.22-13.257-8.281-2.993-2.152-5.24-5.24-8.4-7.148s-6.109-1.181-9.537-.462c-5.763,1.215-11.241,1.772-16.691,4.249a44.454,44.454,0,0,0-14.546,10.582,13.807,13.807,0,0,0-3.245,5.118c-1.358,4.487,1.3,9.265.74,13.908-.394,3.292-2.335,6.157-3.876,9.1s-2.715,6.428-1.507,9.5c1.9,4.806,8.1,5.824,12.6,8.383a3.848,3.848,0,0,1,1.493,1.3c1.113,1.941-1.161,3.957-2.593,5.681a8.559,8.559,0,0,0-1.7,3.448,12.3,12.3,0,0,0-7.378,8.906c-1.527,6.835.821,15.463,2.892,21.164-2.26,12.7.679,17.709,2.844,19.63A10.894,10.894,0,0,1,296,359.043v.238c.143,2.308.387,4.609.713,6.9h0c-.075-.536-.149-1.106-.19-1.358-1.772,3.279-5.145,11.655-7.046,25.746a77.377,77.377,0,0,1-1.717,8.967,49.035,49.035,0,0,0-1.439,16.033l.339,4.568a1.439,1.439,0,0,1-.923-.305l2.383,4.365v7.365a27.151,27.151,0,0,1-1.806,9.713c-.17.448-.353.9-.55,1.358a7.9,7.9,0,0,0-.8,4c-5.125,7.853-16.874,51.866-16.874,51.866-6.374,14.431.523,23.757.523,23.757s3.34,40.177,3.964,42.254,2.009,26.568,2.009,26.568h0v1.948a4.571,4.571,0,0,0-1.161-.333c-5.586-.312-7.1,8.512-7.1,8.512L254.9,612.12s-5.22-.882-12.9,4.88S246.961,628.017,246.961,628.017ZM361.1,395.813l-.034-.122-.312.183h0l-.129.075-.061.041h0L355.294,377.4a30.871,30.871,0,0,1-.387-15.293l4.073-17.838h0v-4.29l12.944,34.5C372.753,379.121,365.062,390.382,361.1,395.813Z" transform="translate(-98.082 -87.52)"/>
  <path id="Pfad_254" data-name="Pfad 254" class="cls-22" d="M407.293,557s-5.227,12.714-6.557,24.911c-.482,4.4-1.106,8.376-1.717,11.675a106.7,106.7,0,0,0-1.67,22.583l.1,3.17,1.7,8.4s4.073,26.968-7.175,46.836c0,0-6.666,11.9-6.869,17.533l-4.514,1.745-9.123-2.559s4.405-15.8,2.973-26.866l.821-35.975s-5.926-9-6.129-25.291l-3.482-44.7Z" transform="translate(-138.596 -192.593)"/>
  <path id="Pfad_255" data-name="Pfad 255" class="cls-22" d="M337.8,547.62s-1.12,17.431-9.74,29.445-10.453,17.227-10.453,17.227l-10.616,21.463a12.293,12.293,0,0,0-1,8.03l1.045,4.833s5.742,19.481-.1,34.557l-2.769,29.12h-16.2s-1.358-24.2-1.948-26.248-3.9-41.731-3.9-41.731-6.788-9.231-.516-23.479c0,0,14.153-53.318,17.94-52.4S337.8,547.62,337.8,547.62Z" transform="translate(-110.747 -189.58)"/>
  <g id="Gruppe_11" data-name="Gruppe 11" class="cls-14" transform="translate(191.778 358.04)">
    <path id="Pfad_256" data-name="Pfad 256" d="M316.551,628.653l-1.039-4.833a12.218,12.218,0,0,1,.991-8.064l10.616-21.483s1.839-5.227,10.453-17.227c8.274-11.539,9.639-28.074,9.734-29.344l1.649-.081s-1.12,17.431-9.74,29.445-10.453,17.227-10.453,17.227l-10.616,21.463a12.293,12.293,0,0,0-1,8.03l1.045,4.833s5.742,19.481-.1,34.557l-2.769,29.12H313.68l2.769-29.12C322.294,648.1,316.551,628.653,316.551,628.653Z" transform="translate(-313.68 -547.62)"/>
  </g>
  <path id="Pfad_257" data-name="Pfad 257" class="cls-6" d="M390.109,692.125c.2-5.634,6.869-17.533,6.869-17.533,11.281-19.888,7.175-46.836,7.175-46.836l-1.738-8.4-.1-3.17a106.691,106.691,0,0,1,1.67-22.583c.6-3.3,1.229-7.276,1.711-11.675,1.283-11.743,6.177-23.961,6.537-24.857l1.683-.068s-5.227,12.714-6.557,24.911c-.482,4.4-1.106,8.376-1.717,11.675a106.691,106.691,0,0,0-1.67,22.583l.1,3.17,1.7,8.4s4.073,26.968-7.175,46.836c0,0-6.666,11.9-6.869,17.533l-4.514,1.745-.95-.265Z" transform="translate(-145.216 -192.593)"/>
  <path id="Pfad_258" data-name="Pfad 258" class="cls-23" d="M379.322,754.52a7.847,7.847,0,0,0,7.467-.923,24.1,24.1,0,0,0-.611,13.535c1.846,7.385-17.227-5.946-17.227-5.946l4.073-9.306S374.6,754.826,379.322,754.52Z" transform="translate(-139.656 -255.192)"/>
  <path id="Pfad_259" data-name="Pfad 259" class="cls-6" d="M380.747,754.925a7.622,7.622,0,0,0,6.062-1.357A24.1,24.1,0,0,0,386.2,767.1c1.846,7.385-17.227-5.946-17.227-5.946l4.073-9.306a5.819,5.819,0,0,0,4.65,2.62C378.744,754.592,379.749,754.735,380.747,754.925Z" transform="translate(-139.662 -255.182)"/>
  <path id="Pfad_260" data-name="Pfad 260" class="cls-22" d="M289.32,459.6h7.969V414.383l-5.98-1.073Z" transform="translate(-92.927 -132.766)"/>
  <path id="Pfad_261" data-name="Pfad 261" class="cls-19" d="M289.32,459.6h7.969V414.383l-5.98-1.073Z" transform="translate(-92.927 -132.766)"/>
  <path id="Pfad_262" data-name="Pfad 262" class="cls-24" d="M368.227,760.526s5.023-.312,7.277,4.2l2.769,2.152,1.358-3.177a26.473,26.473,0,0,1,3.136,17.126s.407,2.864-3.794,4.2c0,0-2.152,1.025-1.643,4.921s-7.582,9.639-18.144,7.276c0,0-9.231.21-10.358-1.948s.72-7.894.72-7.894,3.794-6.014,5.532-8.234c0,0,4.514-9.3,5.03-13.576S365.56,758.164,368.227,760.526Z" transform="translate(-133.075 -257.709)"/>
  <path id="Pfad_263" data-name="Pfad 263" class="cls-23" d="M308.249,763.32l.081-6.374s-9.17,2.64-16.6-.346c0,0,.624,6.408-.407,7.283s3.435,9.123,3.435,9.123l4.989,5.227,8.58-3.122,2.328-7.331S308.86,763.32,308.249,763.32Z" transform="translate(-114.672 -256.708)"/>
  <path id="Pfad_264" data-name="Pfad 264" class="cls-6" d="M308.249,763.32l.081-6.374s-9.17,2.64-16.6-.346c0,0,.624,6.408-.407,7.283s3.435,9.123,3.435,9.123l4.989,5.227,8.58-3.122,2.328-7.331S308.86,763.32,308.249,763.32Z" transform="translate(-114.672 -256.708)"/>
  <path id="Pfad_265" data-name="Pfad 265" class="cls-24" d="M274.817,763.1s4.874.563,4.256,6.788.258,0,.258,0,5.179,2.1,7.025,5.023,5.179-2.613,5.43-4.2,2.328-2.247,2.328-2.247,8.145,15.1,6.706,19.257-18.924,5.111-18.924,5.111-3.184-1.792-10.514,3.794-22.556,1.358-22.556,1.358-12.408-5.179-4.867-10.86,12.659-4.819,12.659-4.819l11.227-10.82S269.332,762.784,274.817,763.1Z" transform="translate(-98.725 -258.792)"/>
  <path id="Pfad_266" data-name="Pfad 266" class="cls-25" d="M353.481,236.513c3.1,1.88,5.308,4.935,8.247,7.059,4.181,3.021,9.795,4.147,13.012,8.179,2.715,3.435,3.068,8.234,2.335,12.564s-2.376,8.464-3.17,12.781-.631,9.1,1.935,12.659a2.872,2.872,0,0,0,1.242,1.093,4.073,4.073,0,0,0,1.894,0c4.385-.529,8.593,2.607,10.562,6.564s2.125,8.559,1.921,12.972c-.17,3.618-.577,7.31-2.165,10.569-2.715,5.539-8.363,8.96-13.935,11.58a107.921,107.921,0,0,1-11.125,4.494c-2.607.882-5.356,1.677-8.064,1.215-4.636-.8-7.921-5.016-12.32-6.666-3.6-1.358-7.6-.869-11.437-.529-3.272.285-7.012.278-9.265-2.111-2.892-3.068-1.588-8.016-.109-11.967a8.519,8.519,0,0,1-6.028-13.929c1.4-1.7,3.631-3.693,2.539-5.614a3.72,3.72,0,0,0-1.466-1.276c-4.419-2.525-10.508-3.536-12.367-8.274-1.195-3.048-.041-6.5,1.473-9.394s3.394-5.736,3.808-8.98c.543-4.589-2.036-9.306-.726-13.732a13.766,13.766,0,0,1,3.183-5.064,43.687,43.687,0,0,1,14.254-10.446c5.356-2.45,10.725-3,16.386-4.195C347.488,235.345,350.3,234.585,353.481,236.513Z" transform="translate(-119.185 -89.254)"/>
  <path id="Pfad_267" data-name="Pfad 267" class="cls-22" d="M324.675,337.756s-12.985-.679-15.442,10.392,5.328,26.927,5.328,26.927Z" transform="translate(-120.32 -122.165)"/>
  <path id="Pfad_268" data-name="Pfad 268" class="cls-19" d="M324.675,337.756s-12.985-.679-15.442,10.392,5.328,26.927,5.328,26.927Z" transform="translate(-120.32 -122.165)"/>
  <path id="Pfad_269" data-name="Pfad 269" class="cls-22" d="M320,358l4.921,3.9,22.963,1.025,14.336-9.842,14.58-25.02c-8.912-2.274-12.517-8.43-13.861-14.187a31.06,31.06,0,0,1-.285-11.851s-23.377-12.1-20.506,6.788a25.659,25.659,0,0,1,.217,7.019c-1.358,11.064-12.1,8.98-12.1,8.98l-4.12,6.353-4.718,15.612Z" transform="translate(-123.932 -109.463)"/>
  <path id="Pfad_270" data-name="Pfad 270" class="cls-6" d="M352.544,308.782a25.66,25.66,0,0,1,.217,7.019,20.723,20.723,0,0,0,20.574-1.928,31.06,31.06,0,0,1-.285-11.851S349.673,289.918,352.544,308.782Z" transform="translate(-134.308 -109.46)"/>
  <ellipse id="Ellipse_18" data-name="Ellipse 18" class="cls-22" cx="20.71" cy="20.71" rx="20.71" ry="20.71" transform="translate(206.358 165.973)"/>
  <path id="Pfad_271" data-name="Pfad 271" class="cls-7" d="M333.945,366.462c.5,0,1,.075,1.493.122,2.715.271,14.058.882,20.52-6.835,7.229-8.634,16.854-19.3,17.248-19.732L383,342.976s-7.752-2.756-12.9,11.661a14.933,14.933,0,0,0,5.043,17.18,15.516,15.516,0,0,0,6.408,2.715.034.034,0,0,1,0,.034v6.326h0l-4,17.648a30.592,30.592,0,0,0,.38,15.1l6.109,21.592c-.923.638-38.826,26.418-64.145,8.614h0c.1-.774,3.224-26.113,1.052-38.514a85.644,85.644,0,0,1-1.134-9.584c0-.081,0-.156,0-.238a10.806,10.806,0,0,0-3.713-7.331c-2.281-2.036-5.369-7.467-2.315-21.816a52.712,52.712,0,0,1,3.394-10.338l8.492-19.189h0L333.5,337v.054c-.679.842-9.754,12.177-10.738,19.481C321.795,363.475,320.607,365.607,333.945,366.462Z" transform="translate(-121.525 -121.873)"/>
  <path id="Pfad_272" data-name="Pfad 272" class="cls-22" d="M408.088,349.1s7.657,6.564,10.664,21.463,9.707,39.648,9.707,39.648,2.715,10.8-6.564,21.463-15.449,19.006-15.449,19.006l-6.109,9a7.663,7.663,0,0,1-4.4,3.109c-2.783.733-7.059,1.263-10.765-.767a6.272,6.272,0,0,1-2.715-7.921l1.358-3.143s-12.578,7.928-13.671,3.55,14.628-8.75,14.628-8.75,12.985-2.186,15.612-8.335c0,0,13.942-17.913,12.849-24.063l-13.467-36.091s-16.841-2.226-11.1-21.144S408.088,349.1,408.088,349.1Z" transform="translate(-140.022 -124.627)"/>
  <path id="Pfad_273" data-name="Pfad 273" class="cls-17" d="M307.385,527.384s30.762,6.15,38.012,5.328l.781,2.6s11.675,2.613,38.073-1.575q2.586-.407,5.369-.916l.618-.109s.36-1.955.645-5.288c.631-7.568.855-22.223-4.473-37.224L381.97,476.53s-27.436,16.447-45.6,14.933c-1.622-.136-3.231-.265-4.853-.319-3.726-.143-9.5,0-13.257-3.007l-7.874,1.358v22.4a26.838,26.838,0,0,1-1.778,9.584c-.17.448-.346.889-.543,1.358A7.128,7.128,0,0,0,307.385,527.384Z" transform="translate(-119.843 -166.744)"/>
  <path id="Pfad_274" data-name="Pfad 274" class="cls-6" d="M364.58,552.426V559.4s13.44,3.007,44.06-2.6c0,0,.36-1.955.645-5.288C399.89,553.017,373.981,556.642,364.58,552.426Z" transform="translate(-138.252 -190.829)"/>
  <path id="Pfad_275" data-name="Pfad 275" class="cls-6" d="M307.387,548.668s30.762,6.15,38.012,5.328l.781,2.6v-6.971c-3.5,1.453-28.509-4.575-37.57-6.835-.17.448-.346.889-.543,1.358a7.127,7.127,0,0,0-.679,4.521Z" transform="translate(-119.845 -188.028)"/>
  <path id="Pfad_276" data-name="Pfad 276" class="cls-17" d="M417.31,537.931l2.281,14.146q2.586-.407,5.369-.916c-.713-4.134-2.267-13.576-1.839-15.144l-2.871-2.457Z" transform="translate(-155.19 -185.063)"/>
  <path id="Pfad_277" data-name="Pfad 277" class="cls-6" d="M417.78,537.481l2.281,14.153q2.586-.414,5.369-.916c-.713-4.134-2.267-13.576-1.84-15.144l-2.871-2.464Z" transform="translate(-155.341 -184.919)"/>
  <g id="Gruppe_12" data-name="Gruppe 12" class="cls-26" transform="translate(197.093 309.766)">
    <path id="Pfad_278" data-name="Pfad 278" d="M339.294,496.946c-1.616-.136-3.231-.265-4.853-.319-3.625-.136-9.157,0-12.931-2.776l1.317-.231c3.774,2.993,9.5,2.864,13.257,3.007,1.622.054,3.231.183,4.853.319.529.048,1.072.075,1.622.088a30.45,30.45,0,0,1-3.265-.088Z" transform="translate(-321.51 -481.999)"/>
    <path id="Pfad_279" data-name="Pfad 279" d="M405.925,533.728q2.586-.407,5.369-.91l.624-.115s.36-1.955.638-5.288c.638-7.568.862-22.223-4.473-37.224l-4.181-12.9c.889-.5,1.358-.794,1.358-.794l4.439,13.671c5.328,15,5.1,29.656,4.473,37.224-.285,3.333-.645,5.288-.645,5.288l-.618.115q-2.776.5-5.369.91a169.08,169.08,0,0,1-27.66,2.376A174.446,174.446,0,0,0,405.925,533.728Z" transform="translate(-340.26 -476.5)"/>
    <path id="Pfad_280" data-name="Pfad 280" d="M360.582,559.3v.075H359.7Q360.2,559.341,360.582,559.3Z" transform="translate(-333.777 -503.097)"/>
  </g>
  <ellipse id="Ellipse_19" data-name="Ellipse 19" class="cls-23" cx="1.161" cy="2.389" rx="1.161" ry="2.389" transform="translate(264.781 350.73)"/>
  <path id="Pfad_281" data-name="Pfad 281" class="cls-22" d="M312.271,457.06c1.873-13.915,5.179-22.183,6.924-25.42.068.441.244,1.873.326,2.315.353,2.036.041,4.6.149,7.188l-1.738,31.468,2.328,9.842c2.186,7.792-5.912,1.636-5.912,1.636-1.677,3.693-4.751,3.285-4.751,3.285l-.421-5.647a48.777,48.777,0,0,1,1.412-15.836,75.464,75.464,0,0,0,1.683-8.831Z" transform="translate(-120.412 -152.324)"/>
  <path id="Pfad_282" data-name="Pfad 282" class="cls-19" d="M312.271,457.06c1.873-13.915,5.179-22.183,6.924-25.42.068.441.244,1.873.326,2.315.353,2.036.041,4.6.149,7.188l-1.738,31.468,2.328,9.842c2.186,7.792-5.912,1.636-5.912,1.636-1.677,3.693-4.751,3.285-4.751,3.285l-.421-5.647a48.777,48.777,0,0,1,1.412-15.836,75.464,75.464,0,0,0,1.683-8.831Z" transform="translate(-120.412 -152.324)"/>
  <path id="Pfad_283" data-name="Pfad 283" class="cls-22" d="M410.3,487.5c-1.473,1.907-2.281,3-2.281,3l-6.109,8.994a7.629,7.629,0,0,1-4.4,3.109c-2.783.733-7.059,1.269-10.765-.767a6.258,6.258,0,0,1-2.715-7.915l1.358-3.15s-12.578,7.928-13.671,3.557,14.628-8.749,14.628-8.749,12.985-2.186,15.612-8.342c0,0,1.134-1.453,2.715-3.679" transform="translate(-140.526 -165.79)"/>
  <path id="Pfad_284" data-name="Pfad 284" class="cls-17" d="M407.021,511.6s-14.872-1.446-19.583-9.951l-2.159,7.025s15.612,10.779,19.176,9.381Z" transform="translate(-144.902 -174.813)"/>
  <path id="Pfad_285" data-name="Pfad 285" class="cls-6" d="M406.245,511.5s-14.865-1.446-19.583-9.958l-2.152,7.005s15.612,10.779,19.169,9.381Z" transform="translate(-144.654 -174.778)"/>
  <path id="Pfad_286" data-name="Pfad 286" class="cls-17" d="M314.631,510.46s-5.206,1.846-6.231.821l2.342,4.31,4.426-3.394Z" transform="translate(-120.206 -177.643)"/>
  <path id="Pfad_287" data-name="Pfad 287" class="cls-6" d="M314.631,510.46s-5.206,1.846-6.231.821l2.342,4.31,4.426-3.394Z" transform="translate(-120.206 -177.643)"/>
  <path id="Pfad_288" data-name="Pfad 288" class="cls-6" d="M332.408,528.464V519.47l-2.138,9.211Z" transform="translate(-106.08 -166.867)"/>
  <path id="Pfad_289" data-name="Pfad 289" class="cls-6" d="M373.417,269.843a7.988,7.988,0,0,1-5.58,2.939,43.964,43.964,0,0,1-6.482,0c-3.394-.054-7.005.468-9.781,2.464A24.868,24.868,0,0,0,347.087,280c-4.195,5.125-10.019,9.924-16.63,9.387a4.31,4.31,0,0,1-3.089-1.3,4.955,4.955,0,0,1-.787-2.81,64.237,64.237,0,0,1,.4-12.666,26.7,26.7,0,0,1,1.914-7.555,25.794,25.794,0,0,1,4.6-6.571,28.149,28.149,0,0,1,8.03-6.435,14.4,14.4,0,0,1,10.046-1.3c3.957,1.079,7.039,4.174,10.813,5.77C366.7,258.331,378.142,263.171,373.417,269.843Z" transform="translate(-126 -94.096)"/>
  <path id="Pfad_290" data-name="Pfad 290" class="cls-25" d="M373.417,268.63a7.988,7.988,0,0,1-5.58,2.939,43.964,43.964,0,0,1-6.482,0c-3.394-.061-7.005.462-9.781,2.457a24.869,24.869,0,0,0-4.487,4.751c-4.195,5.125-10.019,9.924-16.63,9.388a4.283,4.283,0,0,1-3.088-1.3,4.935,4.935,0,0,1-.787-2.81,64.24,64.24,0,0,1,.4-12.666,26.7,26.7,0,0,1,1.914-7.555,25.618,25.618,0,0,1,4.6-6.564,28.053,28.053,0,0,1,8.03-6.442,14.4,14.4,0,0,1,10.046-1.3c3.957,1.079,7.039,4.174,10.813,5.77C366.7,257.118,378.142,261.944,373.417,268.63Z" transform="translate(-126 -93.704)"/>
  <path id="Pfad_291" data-name="Pfad 291" class="cls-22" d="M292.011,473.47l-.054,2.478-.557-2.369Z" transform="translate(-93.595 -152.09)"/>
  <path id="Pfad_292" data-name="Pfad 292" class="cls-19" d="M292.011,473.47l-.054,2.478-.557-2.369Z" transform="translate(-93.595 -152.09)"/>
  <g id="Gruppe_13" data-name="Gruppe 13" class="cls-26" transform="translate(247.101 221.368)">
    <path id="Pfad_293" data-name="Pfad 293" d="M398.847,355.108c-5.749,18.918,11.01,21.137,11.01,21.137l13.467,36.091c1.093,6.15-12.856,24.063-12.856,24.063-.971,2.294-3.394,4.039-6.041,5.328a9.462,9.462,0,0,0,3.584-3.937s13.942-17.906,12.849-24.056l-13.467-36.1s-16.752-2.22-11.01-21.137c1.921-6.319,4.751-9.2,7.616-10.229C402.023,347.858,400.211,350.607,398.847,355.108Z" transform="translate(-395.184 -346.27)"/>
  </g>
  <g id="Gruppe_14" data-name="Gruppe 14" class="cls-14" transform="translate(191.029 214.96)">
    <path id="Pfad_294" data-name="Pfad 294" d="M401,384.61a14.146,14.146,0,0,0,2.715,2.573,15.429,15.429,0,0,0,6.408,2.715v.713a15.381,15.381,0,0,1-5.81-2.573A14.084,14.084,0,0,1,401,384.61Z" transform="translate(-340.98 -352.178)"/>
    <path id="Pfad_295" data-name="Pfad 295" d="M323.133,421.663v.238a87.672,87.672,0,0,0,1.168,9.618c2.036,11.7-.631,34.937-1.011,38.147-.217-.143-.434-.278-.679-.434.1-.774,3.231-26.113,1.059-38.507a86.011,86.011,0,0,1-1.134-9.584V420.9a10.473,10.473,0,0,0-1.826-5.193,10.555,10.555,0,0,1,2.423,5.953Z" transform="translate(-315.19 -362.168)"/>
    <path id="Pfad_296" data-name="Pfad 296" d="M333.017,337.76l-6.638-.129a.034.034,0,0,0-.034,0l-8.485,19.182a52.885,52.885,0,0,0-3.394,10.338c-2.471,11.607-.916,17.39.971,20.248-2.125-2.5-4.317-8.213-1.582-21.042a52.325,52.325,0,0,1,3.36-10.345l8.546-19.182h0l7.826.156v.047C333.526,337.115,333.316,337.373,333.017,337.76Z" transform="translate(-312.577 -336.83)"/>
    <path id="Pfad_297" data-name="Pfad 297" d="M416.39,345.87l.115.034Z" transform="translate(-345.924 -339.734)"/>
    <path id="Pfad_298" data-name="Pfad 298" d="M385.705,344.374l-6.652-2h-.034c-.394.434-10.012,11.1-17.241,19.732-6.462,7.718-17.791,7.114-20.52,6.842-.5-.054-1-.1-1.493-.129-7.419-.475-10.338-1.358-11.315-3.231,1.391,1.358,4.453,2.036,10.7,2.416.5,0,1,.075,1.493.122,2.715.272,14.058.876,20.52-6.835,7.229-8.641,16.854-19.3,17.248-19.739h0l9.679,2.932A6.048,6.048,0,0,0,385.705,344.374Z" transform="translate(-317.676 -338.346)"/>
  </g>
  <path id="Pfad_299" data-name="Pfad 299" class="cls-6" d="M291.479,776.939s-9.367,2.559-11.18-1.459" transform="translate(-111.18 -262.773)"/>
  <path id="Pfad_300" data-name="Pfad 300" class="cls-6" d="M378.052,774.074s-10.86,2.8-13.372-1.534" transform="translate(-138.284 -261.828)"/>
  <path id="Pfad_301" data-name="Pfad 301" class="cls-27" d="M580.357,756.837c.156-1.358.38-2.715.625-4.073A28.388,28.388,0,0,0,579.624,739h0c-.251-.713-.434-1.113-.434-1.113-4.324-1.181-21.368,12.042-27.579,17.024-2.152,0-4.487.1-7.039.265-1.113.081-2.226.109-3.34.088h-4.073c-5.763-4.643-23.6-18.605-28.04-17.4,0,0-.183.4-.434,1.113h0a27.892,27.892,0,0,0-1.392,13.766c.244,1.358.468,2.715.625,4.073.333,2.98,1.582,8.7,6.109,12.564.971,7.059,4.6,16.338,7.4,21.972a15.73,15.73,0,0,0,.95,3.1c-1.154,4.453-2.484,10.263-2.1,12.218,0,0-6.028-1.459-6.638,5.8v.224c-2.179,1-4.9,3.285-1.84,8.077a3.143,3.143,0,0,0,1.575,1.283c.543.19,1.072.19,1.018-.57l3.767,4.242s6.828.787,6.91-3.177l.4.061c.916.136,1.873.251,2.858.353l.475,1.568s-5.125-.109-3.727,3.048c0,0,1.29,1.195,1.731.76,0,0-.679,2.07,2,2.07,0,0,2.871,1.52,3.991.434s3.441-2.715,3.659-3.394c.061-.183.088-1.792.1-4.018h.441c5.722.136,11.8-.048,17.323-.346h.448c0,2.41.034,4.188.095,4.378.224.679,2.552,2.287,3.666,3.394s3.984-.434,3.984-.434c2.661,0,2-2.07,2-2.07.448.434,1.738-.76,1.738-.76,1.4-3.156-3.733-3.048-3.733-3.048l.611-2.036,2.83-.238.448-.041c-.271,4.31,6.9,3.482,6.9,3.482l3.774-4.242c-.061.76.468.76,1.011.57a3.116,3.116,0,0,0,1.527-1.3c4.622-7.229-3.917-8.763-3.917-8.763a4.191,4.191,0,0,0-.808-.129,1.392,1.392,0,0,1,.034-.373h0a14.894,14.894,0,0,0,.054-2.864c-.319-1.31-2.423-3.394-5.084-3.7-1.738-.217-1.772-8.2-1.6-13.732a15.8,15.8,0,0,0,.272-3.15,16.617,16.617,0,0,0-.679-5.043c3.394-5.756,6.109-11.79,6.414-13.576C578.775,765.519,580.024,759.817,580.357,756.837Z" transform="translate(-183.981 -250.666)"/>
  <path id="Pfad_302" data-name="Pfad 302" class="cls-7" d="M577.429,835.114h0c-.271,3.76-1,9.795-1,9.795s-3.021.367-7.691.787l-3.17.272c-2.43.2-5.159.387-8.044.55-5.328.292-11.18.475-16.7.339-2.756-.061-5.43-.2-7.908-.448-1.106-.109-2.179-.237-3.2-.387-6.326-.943-10.86-2.749-11.247-5.919a18.324,18.324,0,0,1-.143-4.073c.59-7.127,6.394-5.688,6.394-5.688-.373-1.969,1.032-8.084,2.172-12.51.719-2.79,1.358-4.907,1.358-4.907l40.808-2.715h.136a2,2,0,0,1,2,2.1c-.244,4.894-.591,16.1,1.412,16.352,2.566.319,4.6,2.349,4.908,3.631A15.228,15.228,0,0,1,577.429,835.114Z" transform="translate(-187.624 -273.929)"/>
  <path id="Pfad_303" data-name="Pfad 303" class="cls-7" d="M539.743,758.959s-15.388,18.524-22.8,13.392c-.176-.122-.346-.244-.509-.373-4.982-3.774-6.292-9.856-6.638-12.944-.149-1.358-.367-2.668-.6-3.991a27.716,27.716,0,0,1,1.358-13.514h0c.244-.679.414-1.093.414-1.093C516.087,739.01,539.743,758.959,539.743,758.959Z" transform="translate(-184.596 -251.492)"/>
  <path id="Pfad_304" data-name="Pfad 304" class="cls-7" d="M531.459,761.222s-4.847,3.394-11.682,8.973a24.686,24.686,0,0,1-3.394,2.335c-4.982-3.774-6.292-9.856-6.639-12.944-.149-1.358-.367-2.668-.6-3.991A27.715,27.715,0,0,1,510.5,742.08h0C520.083,742.745,531.459,761.222,531.459,761.222Z" transform="translate(-184.58 -252.044)"/>
  <path id="Pfad_305" data-name="Pfad 305" class="cls-28" d="M531.459,761.222s-4.847,3.394-11.682,8.973a24.686,24.686,0,0,1-3.394,2.335c-4.982-3.774-6.292-9.856-6.639-12.944-.149-1.358-.367-2.668-.6-3.991A27.715,27.715,0,0,1,510.5,742.08h0C520.083,742.745,531.459,761.222,531.459,761.222Z" transform="translate(-184.58 -252.044)"/>
  <path id="Pfad_306" data-name="Pfad 306" class="cls-6" d="M528.711,762.756s-2.586,1.826-6.238,4.792a13.132,13.132,0,0,1-1.792,1.242,9.992,9.992,0,0,1-3.543-6.9c-.075-.719-.19-1.425-.319-2.138a14.838,14.838,0,0,1,.753-7.209h0C522.643,752.893,528.711,762.756,528.711,762.756Z" transform="translate(-187.106 -255.404)"/>
  <path id="Pfad_307" data-name="Pfad 307" class="cls-7" d="M569.05,758.959s15.388,18.524,22.8,13.392c.17-.122.346-.244.509-.373,4.982-3.774,6.292-9.856,6.638-12.944.149-1.358.366-2.668.6-3.991a27.633,27.633,0,0,0-1.358-13.514h0c-.244-.679-.421-1.093-.421-1.093C592.706,739.01,569.05,758.959,569.05,758.959Z" transform="translate(-203.932 -251.492)"/>
  <path id="Pfad_308" data-name="Pfad 308" class="cls-7" d="M581.22,761.222s4.853,3.394,11.689,8.973a24.671,24.671,0,0,0,3.36,2.335c4.982-3.774,6.292-9.856,6.638-12.944.149-1.358.366-2.668.6-3.991a27.632,27.632,0,0,0-1.358-13.514h0C592.61,742.745,581.22,761.222,581.22,761.222Z" transform="translate(-207.841 -252.044)"/>
  <path id="Pfad_309" data-name="Pfad 309" class="cls-28" d="M581.22,761.222s4.853,3.394,11.689,8.973a24.671,24.671,0,0,0,3.36,2.335c4.982-3.774,6.292-9.856,6.638-12.944.149-1.358.366-2.668.6-3.991a27.632,27.632,0,0,0-1.358-13.514h0C592.61,742.745,581.22,761.222,581.22,761.222Z" transform="translate(-207.841 -252.044)"/>
  <path id="Pfad_310" data-name="Pfad 310" class="cls-6" d="M589.05,762.758s2.573,1.819,6.2,4.752a12.428,12.428,0,0,0,1.785,1.235,10.024,10.024,0,0,0,3.523-6.862c.075-.679.19-1.419.319-2.125a14.866,14.866,0,0,0-.713-7.168h0C595.084,752.957,589.05,762.758,589.05,762.758Z" transform="translate(-210.357 -255.42)"/>
  <path id="Pfad_311" data-name="Pfad 311" class="cls-6" d="M573.125,810.23a36.858,36.858,0,0,1-5.892,7.507c-6.109,5.43-32.486,3.272-34.2,2.993-.36-.061-1.106-1.127-2.036-2.858.72-2.79,1.358-4.908,1.358-4.908Z" transform="translate(-191.71 -273.935)"/>
  <path id="Pfad_312" data-name="Pfad 312" class="cls-7" d="M548.254,765.344c-1.073.075-2.145.1-3.224.081-5.5-.1-24.049.149-26.106,7.636-2.423,8.824,8.41,32.452,10.114,32.738s28.074,2.423,34.2-2.993,14.1-22.4,13.677-23.941C576.919,778.865,584.521,762.832,548.254,765.344Z" transform="translate(-187.718 -259.431)"/>
  <path id="Pfad_313" data-name="Pfad 313" class="cls-6" d="M551.212,786.494s-13.576-2.091-19.943,11.268a16.291,16.291,0,0,0,1.2,16.42c2.118,2.98,5.227,5.2,9.55,3.394C551.633,813.618,551.212,786.494,551.212,786.494Z" transform="translate(-191.26 -266.272)"/>
  <path id="Pfad_314" data-name="Pfad 314" class="cls-6" d="M550.582,785.234s-13.576-2.091-19.943,11.268a16.291,16.291,0,0,0,1.2,16.42c2.118,2.98,5.227,5.2,9.55,3.394C551,812.358,550.582,785.234,550.582,785.234Z" transform="translate(-191.058 -265.868)"/>
  <path id="Pfad_315" data-name="Pfad 315" class="cls-7" d="M550.582,785.864s-13.576-2.091-19.943,11.268a16.291,16.291,0,0,0,1.2,16.42c2.118,2.98,5.227,5.2,9.55,3.394C551,812.988,550.582,785.864,550.582,785.864Z" transform="translate(-191.058 -266.07)"/>
  <path id="Pfad_316" data-name="Pfad 316" class="cls-28" d="M550.582,785.864s-13.576-2.091-19.943,11.268a16.291,16.291,0,0,0,1.2,16.42c2.118,2.98,5.227,5.2,9.55,3.394C551,812.988,550.582,785.864,550.582,785.864Z" transform="translate(-191.058 -266.07)"/>
  <path id="Pfad_317" data-name="Pfad 317" class="cls-29" d="M538.623,803.13s-1.853,1.711-1.14,2.138S538.623,803.13,538.623,803.13Z" transform="translate(-193.74 -271.654)"/>
  <path id="Pfad_318" data-name="Pfad 318" class="cls-29" d="M541.92,806.35s-1.011,2.233-.292,2.478,1.147-1.6,1.147-1.6Z" transform="translate(-195.041 -272.689)"/>
  <path id="Pfad_319" data-name="Pfad 319" class="cls-29" d="M535.382,811.32s-.991,2.634,0,2.634S535.382,811.32,535.382,811.32Z" transform="translate(-192.976 -274.285)"/>
  <path id="Pfad_320" data-name="Pfad 320" class="cls-30" d="M533.78,821.71s1.982,5.064,7.141,4.7" transform="translate(-192.603 -277.623)"/>
  <path id="Pfad_321" data-name="Pfad 321" class="cls-30" d="M540.61,823.91s2.036,2,4.27.57" transform="translate(-194.797 -278.329)"/>
  <path id="Pfad_322" data-name="Pfad 322" class="cls-6" d="M564,786.494s13.576-2.091,19.943,11.268a16.291,16.291,0,0,1-1.2,16.42c-2.111,2.98-5.227,5.2-9.55,3.394C563.55,813.618,564,786.494,564,786.494Z" transform="translate(-202.308 -266.272)"/>
  <path id="Pfad_323" data-name="Pfad 323" class="cls-6" d="M564.589,785.234s13.576-2.091,19.943,11.268a16.291,16.291,0,0,1-1.2,16.42c-2.111,2.98-5.227,5.2-9.55,3.394C564.188,812.358,564.589,785.234,564.589,785.234Z" transform="translate(-202.498 -265.868)"/>
  <path id="Pfad_324" data-name="Pfad 324" class="cls-7" d="M564.589,785.864s13.576-2.091,19.943,11.268a16.291,16.291,0,0,1-1.2,16.42c-2.111,2.98-5.227,5.2-9.55,3.394C564.188,812.988,564.589,785.864,564.589,785.864Z" transform="translate(-202.498 -266.07)"/>
  <path id="Pfad_325" data-name="Pfad 325" class="cls-28" d="M564.589,785.864s13.576-2.091,19.943,11.268a16.291,16.291,0,0,1-1.2,16.42c-2.111,2.98-5.227,5.2-9.55,3.394C564.188,812.988,564.589,785.864,564.589,785.864Z" transform="translate(-202.498 -266.07)"/>
  <path id="Pfad_326" data-name="Pfad 326" class="cls-29" d="M586.16,803.13s1.853,1.711,1.14,2.138S586.16,803.13,586.16,803.13Z" transform="translate(-209.428 -271.654)"/>
  <path id="Pfad_327" data-name="Pfad 327" class="cls-29" d="M582.815,806.35s1.011,2.233.292,2.478-1.147-1.6-1.147-1.6Z" transform="translate(-208.079 -272.689)"/>
  <path id="Pfad_328" data-name="Pfad 328" class="cls-29" d="M589.613,811.32s.984,2.634,0,2.634S589.613,811.32,589.613,811.32Z" transform="translate(-210.397 -274.285)"/>
  <path id="Pfad_329" data-name="Pfad 329" class="cls-30" d="M588.241,821.71s-1.982,5.064-7.141,4.7" transform="translate(-207.803 -277.623)"/>
  <path id="Pfad_330" data-name="Pfad 330" class="cls-30" d="M582.776,823.91s-2.036,2-4.276.57" transform="translate(-206.968 -278.329)"/>
  <path id="Pfad_331" data-name="Pfad 331" class="cls-29" d="M553.2,842.273c.36-.068,7.127-2.993,14.105,0Z" transform="translate(-198.841 -283.796)"/>
  <path id="Pfad_332" data-name="Pfad 332" class="cls-6" d="M529.725,857.788c-6.326-.944-10.86-2.749-11.247-5.919a18.324,18.324,0,0,1-.143-4.073,9.134,9.134,0,0,1,2.416-.882c1.147-.319,2.566-.1,5.559.753s2.776,4.378,3.394,8.973a3.8,3.8,0,0,1,.02,1.147Z" transform="translate(-187.624 -285.674)"/>
  <path id="Pfad_333" data-name="Pfad 333" class="cls-7" d="M518.879,847.566s-8.227,1.507-3.774,8.607a3.034,3.034,0,0,0,1.52,1.256c.523.183,1.025.183.971-.563l3.638,4.168s7.263.855,6.625-3.74-.428-8.145-3.394-8.973S520.039,847.247,518.879,847.566Z" transform="translate(-186.179 -285.885)"/>
  <path id="Pfad_334" data-name="Pfad 334" class="cls-30" d="M524.18,854.67s1.745,3.984,4.168.638" transform="translate(-189.519 -288.21)"/>
  <path id="Pfad_335" data-name="Pfad 335" class="cls-30" d="M518.28,857s.9,3.774,4.324.964" transform="translate(-187.624 -288.959)"/>
  <path id="Pfad_336" data-name="Pfad 336" class="cls-6" d="M601.3,846.868h0c-.272,3.76-1,9.795-1,9.795s-3.021.366-7.691.787a3.942,3.942,0,0,1,0-.787c.638-4.6.428-8.145,3.394-8.974C598.788,846.936,600.206,846.657,601.3,846.868Z" transform="translate(-211.494 -285.682)"/>
  <path id="Pfad_337" data-name="Pfad 337" class="cls-7" d="M602.254,847.566s8.234,1.507,3.781,8.607a3.061,3.061,0,0,1-1.521,1.256c-.523.183-1.032.183-.977-.563l-3.632,4.168s-7.27.855-6.625-3.74.428-8.145,3.394-8.973S601.114,847.247,602.254,847.566Z" transform="translate(-211.703 -285.885)"/>
  <path id="Pfad_338" data-name="Pfad 338" class="cls-30" d="M601.668,854.67s-1.751,3.984-4.168.638" transform="translate(-213.071 -288.21)"/>
  <path id="Pfad_339" data-name="Pfad 339" class="cls-30" d="M607.491,857s-.91,3.774-4.331.964" transform="translate(-214.889 -288.959)"/>
  <path id="Pfad_340" data-name="Pfad 340" class="cls-6" d="M546.486,856.928c-2.756-.061-5.43-.2-7.908-.448l-2.464-8.295a5.385,5.385,0,0,1-.224-1.514,5.281,5.281,0,0,1,10.555-.034C546.472,849.869,546.5,853.962,546.486,856.928Z" transform="translate(-193.28 -284)"/>
  <path id="Pfad_341" data-name="Pfad 341" class="cls-7" d="M535.155,848.1l2.905,9.788s-4.942-.109-3.591,2.993c0,0,1.242,1.174,1.67.747,0,0-.645,2.036,1.921,2.036,0,0,2.769,1.5,3.842.428s3.319-2.674,3.536-3.312c.136-.421.1-8.607.047-14.254a5.267,5.267,0,0,0-5.274-5.227h0a5.274,5.274,0,0,0-5.057,6.8Z" transform="translate(-192.749 -283.915)"/>
  <path id="Pfad_342" data-name="Pfad 342" class="cls-30" d="M540.731,869.47s-2.159,2.036-1.018,3.238" transform="translate(-194.402 -292.964)"/>
  <path id="Pfad_343" data-name="Pfad 343" class="cls-30" d="M539.056,867.56a2.931,2.931,0,0,0-2,2.5" transform="translate(-193.656 -292.351)"/>
  <path id="Pfad_344" data-name="Pfad 344" class="cls-6" d="M586.712,846.586a5.373,5.373,0,0,1-.217,1.514l-2.3,7.853c-2.43.2-5.159.387-8.044.55,0-2.932,0-6.835.048-9.951a5.274,5.274,0,0,1,10.548.034Z" transform="translate(-206.213 -283.914)"/>
  <path id="Pfad_345" data-name="Pfad 345" class="cls-7" d="M587.093,848.1l-2.905,9.788s4.948-.109,3.6,2.993c0,0-1.242,1.174-1.67.747,0,0,.638,2.036-1.928,2.036,0,0-2.769,1.5-3.842.428s-3.312-2.674-3.53-3.312c-.136-.421-.1-8.607-.048-14.254a5.267,5.267,0,0,1,5.274-5.227h0a5.274,5.274,0,0,1,5.05,6.8Z" transform="translate(-206.397 -283.915)"/>
  <path id="Pfad_346" data-name="Pfad 346" class="cls-30" d="M586.23,869.47s2.159,2.036,1.018,3.238" transform="translate(-209.451 -292.964)"/>
  <path id="Pfad_347" data-name="Pfad 347" class="cls-30" d="M587.63,867.56a2.931,2.931,0,0,1,2,2.5" transform="translate(-209.9 -292.351)"/>
  <path id="Pfad_348" data-name="Pfad 348" class="cls-6" d="M555.91,782.769s-10.053-.319-10.372,7.467,15.707,4.487,15.707,4.487,6.734-.9,5.559-5.634S563.179,783.2,555.91,782.769Z" transform="translate(-196.378 -265.114)"/>
  <path id="Pfad_349" data-name="Pfad 349" class="cls-6" d="M555.91,781.509s-10.053-.319-10.372,7.467,15.707,4.487,15.707,4.487,6.734-.9,5.559-5.634S563.179,781.937,555.91,781.509Z" transform="translate(-196.378 -264.709)"/>
  <path id="Pfad_350" data-name="Pfad 350" class="cls-29" d="M555.91,782.139s-10.053-.319-10.372,7.467,15.707,4.487,15.707,4.487,6.734-.9,5.559-5.634S563.179,782.567,555.91,782.139Z" transform="translate(-196.378 -264.911)"/>
  <path id="Pfad_351" data-name="Pfad 351" class="cls-6" d="M527.78,839.92s3.394,1.208,4.073,3.523" transform="translate(-190.675 -283.472)"/>
  <path id="Pfad_352" data-name="Pfad 352" class="cls-6" d="M597.216,837.4s-2.41,1.011-2.24,5.233" transform="translate(-212.257 -282.663)"/>
  <ellipse id="Ellipse_20" data-name="Ellipse 20" class="cls-7" cx="1.573" cy="2.609" rx="1.573" ry="2.609" transform="translate(335.868 572.616) rotate(-29.887)"/>
  <ellipse id="Ellipse_21" data-name="Ellipse 21" class="cls-7" cx="2.6" cy="1.568" rx="2.6" ry="1.568" transform="translate(383.643 573.229) rotate(-60)"/>
  <ellipse id="Ellipse_22" data-name="Ellipse 22" class="cls-28" cx="1.573" cy="2.609" rx="1.573" ry="2.609" transform="translate(335.868 572.616) rotate(-29.887)"/>
  <ellipse id="Ellipse_23" data-name="Ellipse 23" class="cls-28" cx="2.6" cy="1.568" rx="2.6" ry="1.568" transform="translate(383.643 573.229) rotate(-60)"/>
  <ellipse id="Ellipse_24" data-name="Ellipse 24" class="cls-1" cx="18.28" cy="3.088" rx="18.28" ry="3.088" transform="translate(112.462 482.956)"/>
  <ellipse id="Ellipse_25" data-name="Ellipse 25" class="cls-1" cx="18.28" cy="3.088" rx="18.28" ry="3.088" transform="translate(40.451 526.758)"/>
  <ellipse id="Ellipse_26" data-name="Ellipse 26" class="cls-7" cx="27.294" cy="4.616" rx="27.294" ry="4.616" transform="translate(12.403 486.045)"/>
  <path id="Pfad_353" data-name="Pfad 353" class="cls-7" d="M71.727,725.928A7.9,7.9,0,0,1,69.12,722a3.5,3.5,0,0,1,1.819-4c1.67-.638,3.455.516,4.806,1.683s2.905,2.5,4.677,2.26a7.12,7.12,0,0,1-2.2-6.666,2.715,2.715,0,0,1,.611-1.358c.923-.991,2.607-.563,3.72.217,3.523,2.484,4.514,7.276,4.527,11.594a21.382,21.382,0,0,0,.068-4.752c.007-1.575.448-3.394,1.792-4.222a5.431,5.431,0,0,1,2.715-.679c1.588-.054,3.353.1,4.439,1.263,1.358,1.439,1,3.862-.176,5.43a17.749,17.749,0,0,1-4.589,3.679,10.127,10.127,0,0,0-3.285,3.129,3.2,3.2,0,0,0-.244.557H77.883a27.452,27.452,0,0,1-6.157-4.215Z" transform="translate(-43.318 -242.815)"/>
  <ellipse id="Ellipse_27" data-name="Ellipse 27" class="cls-1" cx="18.28" cy="3.088" rx="18.28" ry="3.088" transform="translate(680.758 508.791)"/>
  <path id="Pfad_354" data-name="Pfad 354" class="cls-31" d="M1042.91,750.444s10.426-.319,13.576-2.559,16.033-4.908,16.813-1.317,15.673,17.845,3.9,17.94-27.348-1.833-30.484-3.747S1042.91,750.444,1042.91,750.444Z" transform="translate(-356.145 -252.921)"/>
  <path id="Pfad_355" data-name="Pfad 355" class="cls-32" d="M1077.4,765.929c-11.77.1-27.348-1.833-30.484-3.747-2.389-1.453-3.34-6.672-3.659-9.082h-.346s.679,8.41,3.794,10.318,18.714,3.842,30.484,3.747c3.394,0,4.575-1.235,4.507-3.027C1081.227,765.25,1079.931,765.929,1077.4,765.929Z" transform="translate(-356.145 -255.584)"/>
</svg>
