<svg xmlns="http://www.w3.org/2000/svg" width="772.503" height="549.172" viewBox="0 0 772.503 549.172">
  <defs>
    <style>
      .cls-1 {
        fill: #e6e6e6;
      }

      .cls-2 {
        fill: #2f2e41;
      }

      .cls-3 {
        fill: #a0616a;
      }

      .cls-4 {
        fill: #575a89;
      }

      .cls-5 {
        fill: #6c63ff;
      }

      .cls-6 {
        fill: #fff;
      }
    </style>
  </defs>
  <g id="join_icon" data-name="join icon" transform="translate(0)">
    <path id="Pfad_356" data-name="Pfad 356" class="cls-1" d="M268.37,715.074l-1.977-7.8a101.255,101.255,0,0,0-10.742-3.854l-.25,3.624-1.012-3.992c-4.527-1.293-7.607-1.862-7.607-1.862s4.16,15.819,12.886,27.914l10.167,1.786-7.9,1.139a40.962,40.962,0,0,0,3.533,3.744c12.693,11.782,26.831,17.187,31.577,12.074s-1.7-18.81-14.388-30.592a53.935,53.935,0,0,0-13.826-8.891Z" transform="translate(-168.142 -207.848)"/>
    <path id="Pfad_357" data-name="Pfad 357" class="cls-1" d="M290.951,703.992l2.338-7.7a101.257,101.257,0,0,0-7.2-8.852L284,690.416l1.2-3.941c-3.207-3.447-5.549-5.526-5.549-5.526s-4.616,15.693-3.4,30.556l7.78,6.784-7.35-3.108a40.963,40.963,0,0,0,1.089,5.032c4.776,16.647,14.084,28.582,20.791,26.658s8.272-16.979,3.5-33.626a53.93,53.93,0,0,0-7.24-14.757Z" transform="translate(-171.92 -205.235)"/>
    <path id="Pfad_358" data-name="Pfad 358" class="cls-1" d="M452.449,713.023l-1.858-7.329a95.156,95.156,0,0,0-10.1-3.622l-.235,3.406-.951-3.752c-4.255-1.215-7.15-1.75-7.15-1.75s3.91,14.869,12.111,26.236l9.556,1.679-7.424,1.07a38.49,38.49,0,0,0,3.321,3.519c11.93,11.074,25.218,16.154,29.679,11.348s-1.594-17.68-13.524-28.753a50.69,50.69,0,0,0-13-8.356Z" transform="translate(-192.078 -207.691)"/>
    <path id="Pfad_359" data-name="Pfad 359" class="cls-1" d="M473.672,702.607l2.2-7.234a95.163,95.163,0,0,0-6.771-8.32l-1.961,2.794,1.125-3.7c-3.014-3.24-5.216-5.194-5.216-5.194s-4.338,14.749-3.194,28.719l7.313,6.376-6.908-2.921a38.489,38.489,0,0,0,1.024,4.729c4.489,15.646,13.237,26.864,19.541,25.055s7.775-15.958,3.286-31.6a50.69,50.69,0,0,0-6.805-13.87Z" transform="translate(-195.629 -205.235)"/>
    <path id="Pfad_360" data-name="Pfad 360" class="cls-1" d="M812.317,718.515l-.936-3.693A47.947,47.947,0,0,0,806.293,713l-.118,1.716-.479-1.891c-2.144-.612-3.6-.882-3.6-.882a45.957,45.957,0,0,0,6.1,13.22l4.815.846-3.741.539a19.383,19.383,0,0,0,1.673,1.773c6.012,5.58,12.708,8.14,14.956,5.718s-.8-8.909-6.815-14.489a25.543,25.543,0,0,0-6.548-4.211Z" transform="translate(-239.844 -209.236)"/>
    <path id="Pfad_361" data-name="Pfad 361" class="cls-1" d="M823.018,713.267l1.107-3.645a47.956,47.956,0,0,0-3.412-4.193l-.988,1.408.567-1.867c-1.519-1.632-2.628-2.617-2.628-2.617a45.959,45.959,0,0,0-1.609,14.472l3.685,3.213-3.481-1.472a19.419,19.419,0,0,0,.516,2.383c2.262,7.884,6.671,13.537,9.847,12.626s3.918-8.042,1.656-15.926a25.543,25.543,0,0,0-3.429-6.99Z" transform="translate(-241.64 -207.998)"/>
    <path id="Pfad_362" data-name="Pfad 362" class="cls-1" d="M904.494,710.882l-1.232-4.858a63.046,63.046,0,0,0-6.692-2.4l-.156,2.258-.631-2.487c-2.82-.805-4.739-1.16-4.739-1.16s2.592,9.855,8.027,17.389l6.334,1.113-4.921.709a25.5,25.5,0,0,0,2.2,2.333c7.907,7.34,16.715,10.707,19.672,7.522s-1.056-11.718-8.963-19.058a33.594,33.594,0,0,0-8.613-5.539Z" transform="translate(-251.33 -207.983)"/>
    <path id="Pfad_363" data-name="Pfad 363" class="cls-1" d="M918.561,703.978l1.457-4.795a63.078,63.078,0,0,0-4.488-5.514l-1.3,1.852.746-2.455c-2-2.147-3.457-3.443-3.457-3.443s-2.876,9.776-2.117,19.035l4.847,4.226-4.579-1.936a25.525,25.525,0,0,0,.678,3.135c2.975,10.37,8.774,17.806,12.952,16.607s5.153-10.577,2.178-20.948a33.6,33.6,0,0,0-4.511-9.193Z" transform="translate(-253.683 -206.354)"/>
    <path id="Pfad_364" data-name="Pfad 364" class="cls-1" d="M727.639,685.888l5.6-6.487a107.848,107.848,0,0,0-3.2-11.725l-3.314,2,2.865-3.321c-1.637-4.739-3.021-7.773-3.021-7.773s-11.26,13.29-16.483,28.289l4.651,9.961-5.817-6.2A43.633,43.633,0,0,0,707.808,696c-2.527,18.269,1.392,33.9,8.752,34.922s15.375-12.967,17.9-31.236a57.431,57.431,0,0,0-.688-17.492Z" transform="translate(-227.571 -202.346)"/>
    <path id="Pfad_365" data-name="Pfad 365" class="cls-1" d="M747.139,699.285l8.143-2.661a107.837,107.837,0,0,0,3.323-11.691l-3.868,0,4.169-1.362c1.048-4.9,1.432-8.216,1.432-8.216s-16.509,5.557-28.732,15.7l-1.167,10.931-1.778-8.31a43.635,43.635,0,0,0-3.724,4.023c-11.606,14.333-16.334,29.743-10.56,34.419s19.864-3.153,31.47-17.486a57.435,57.435,0,0,0,8.453-15.329Z" transform="translate(-228.2 -204.512)"/>
    <path id="Pfad_366" data-name="Pfad 366" class="cls-1" d="M837.648,717.733l2.488-2.885a47.938,47.938,0,0,0-1.422-5.215l-1.474.887,1.274-1.477c-.728-2.108-1.344-3.457-1.344-3.457a45.959,45.959,0,0,0-7.331,12.581l2.069,4.43-2.587-2.755a19.381,19.381,0,0,0-.493,2.388c-1.124,8.125.619,15.079,3.892,15.531s6.838-5.767,7.962-13.892a25.546,25.546,0,0,0-.306-7.779Z" transform="translate(-243.252 -208.416)"/>
    <path id="Pfad_367" data-name="Pfad 367" class="cls-1" d="M846.32,723.692l3.622-1.183a47.968,47.968,0,0,0,1.478-5.2l-1.72,0,1.854-.606c.466-2.181.637-3.654.637-3.654a45.96,45.96,0,0,0-12.779,6.981l-.519,4.862-.791-3.7a19.386,19.386,0,0,0-1.656,1.789c-5.162,6.375-7.265,13.228-4.7,15.308s8.834-1.4,14-7.777a25.544,25.544,0,0,0,3.759-6.818Z" transform="translate(-243.532 -209.379)"/>
    <path id="Pfad_368" data-name="Pfad 368" class="cls-1" d="M157.017,761.166s608.309-62.7,772.035,0Z" transform="translate(-156.552 -211.994)"/>
    <path id="Pfad_369" data-name="Pfad 369" class="cls-1" d="M1012.014,301.3C1010.823,208.966,963.72,134.7,905.781,134.7c-34.818,0-65.724,26.82-85.105,68.262l22.787,57.174L811.971,224.9c-7.943,23.845-12.451,51.069-12.451,79.982a260.748,260.748,0,0,0,8.032,64.993l61.065-9.845-54.652,30.56c17.8,48.813,50.347,82.151,87.857,84.35L894.593,671.6l22.371.8-4.782-197.659c53.414-5.087,96.2-73.354,99.628-158.788L974.9,295.314Z" transform="translate(-239.512 -134.703)"/>
    <path id="Pfad_370" data-name="Pfad 370" class="cls-2" d="M442.83,176.812l29.4,5.17,9.8-49.115-23.68-10.34Z" transform="translate(-57.178 -15.821)"/>
    <path id="Pfad_371" data-name="Pfad 371" class="cls-2" d="M483.418,185.832l29.4,5.17,9.8-49.114-23.679-10.34Z" transform="translate(-62.419 -16.986)"/>
    <path id="Pfad_372" data-name="Pfad 372" class="cls-3" d="M523.631,556.815v20.422h14.924L536.984,557.6Z" transform="translate(-67.611 -71.897)"/>
    <path id="Pfad_373" data-name="Pfad 373" class="cls-3" d="M432.125,556.815v20.422H417.2l1.571-19.637Z" transform="translate(-53.869 -71.897)"/>
    <path id="Pfad_374" data-name="Pfad 374" class="cls-2" d="M594.224,468.208l-11.933,72.734a434.364,434.364,0,0,0-5.493,55.972l-2.211,66.88,15.71-1.571,11.782-76.192s30.634-113.111,41.631-90.331,16.5,95.044,16.5,95.044l4.713,70.694H682.2l1.571-92.688s9.426-129.605-14.139-140.6Z" transform="translate(-210.468 -172.593)"/>
    <path id="Pfad_375" data-name="Pfad 375" class="cls-2" d="M695.006,710.469s-17.281-11.782-18.852-2.356l-6.284,22.779s-9.426,18.066,11,18.066S695.006,735.6,695.006,735.6Z" transform="translate(-222.491 -208.27)"/>
    <path id="Pfad_376" data-name="Pfad 376" class="cls-2" d="M571.745,710.469s17.281-11.782,18.852-2.356l6.284,22.779s9.426,18.066-11,18.066S571.745,735.6,571.745,735.6Z" transform="translate(-209.984 -208.27)"/>
    <ellipse id="Ellipse_28" data-name="Ellipse 28" class="cls-3" cx="22.779" cy="22.779" rx="22.779" ry="22.779" transform="translate(404.57 105.135)"/>
    <path id="Pfad_377" data-name="Pfad 377" class="cls-3" d="M629.109,292.856s2.356,21.994-9.426,26.707l19.637,23.565,25.921-18.066s-18.852-3.927-15.71-14.924,3.142-12.568,3.142-12.568Z" transform="translate(-216.291 -155.124)"/>
    <path id="Pfad_378" data-name="Pfad 378" class="cls-4" d="M620.274,320.366s16.5,12.568,19.637,11.782,9.426-9.426,9.426-9.426,23.172.393,32.6,6.677-9.033,45.166-9.033,45.166,5.106,17.673-1.178,22.386,1.571,16.5,1.571,16.5-15.71,29.063-57.341,40.06c0,0-25.921,10.211-25.136,4.713s8.64-68.337,8.64-68.337v-65.2Z" transform="translate(-212.562 -158.676)"/>
    <path id="Pfad_379" data-name="Pfad 379" class="cls-2" d="M620.876,249.562s-11.9,3.965-12.5,19.625a27.776,27.776,0,0,0,.826,7.436c.67,2.839,1.1,8.947-4.091,16.929a167.587,167.587,0,0,0-9.511,16.36l-.037.074,13.065,1.633,2.778-21.656a107.842,107.842,0,0,1,8.563-30.4l.09-.2s5.716,10.615,17.148,10.615l-4.083-4.083s17.964,7.349,24.5,7.349c0,0,4.9,3.266,0,8.166s-14.7,16.331-8.982,25.313.817,11.432.817,11.432l8.982-4.9,4.083-2.45v3.266l21.23-2.45s5.716-.817-6.532-14.7c0,0-3.234-5.391-1.819-10.04a23.452,23.452,0,0,0,.892-10.967C673.546,260.606,662.78,230.172,620.876,249.562Z" transform="translate(-213.177 -148.725)"/>
    <path id="Pfad_380" data-name="Pfad 380" class="cls-5" d="M365.556,341.7H579.339V460.194H552.184v32.586L522.93,460.194H365.556Z" transform="translate(-47.201 -44.121)"/>
    <rect id="Rechteck_13" data-name="Rechteck 13" class="cls-6" width="143.673" height="6.418" transform="translate(497.083 338.805) rotate(180)"/>
    <rect id="Rechteck_14" data-name="Rechteck 14" class="cls-6" width="143.673" height="6.418" transform="translate(497.083 360.035) rotate(180)"/>
    <rect id="Rechteck_15" data-name="Rechteck 15" class="cls-6" width="143.673" height="6.418" transform="translate(497.083 381.265) rotate(180)"/>
    <path id="Pfad_381" data-name="Pfad 381" class="cls-3" d="M581.8,397.366l2.356,17.281,17.281,47.915s3.927,36.918,13.353,32.2-1.571-37.7-1.571-37.7L599.082,412.29l.786-15.71Z" transform="translate(-211.4 -168.517)"/>
    <path id="Pfad_382" data-name="Pfad 382" class="cls-4" d="M607.14,326.787l-7.085-2.31L596.929,326s-11,.785-12.568,8.64-7.069,56.555-7.069,56.555l29.063,1.571Z" transform="translate(-210.818 -159.207)"/>
    <path id="Pfad_383" data-name="Pfad 383" class="cls-3" d="M696.754,397.366,694.4,414.646l-17.281,47.915s-3.927,36.918-13.353,32.2,1.571-37.7,1.571-37.7l14.139-44.773-.786-15.71Z" transform="translate(-221.49 -168.517)"/>
    <path id="Pfad_384" data-name="Pfad 384" class="cls-4" d="M672.447,326.885l3.778-1.232a8.6,8.6,0,0,1,6.433.446h0s11,.785,12.568,8.64,7.069,56.555,7.069,56.555l-29.063,1.571Z" transform="translate(-223.104 -159.304)"/>
    <path id="Pfad_385" data-name="Pfad 385" class="cls-5" d="M289.916,17.333H0V178.026H36.825v44.19L76.5,178.026H289.916Z" transform="translate(0 -2.239)"/>
    <rect id="Rechteck_16" data-name="Rechteck 16" class="cls-6" width="194.839" height="8.704" transform="translate(47.538 62.298)"/>
    <rect id="Rechteck_17" data-name="Rechteck 17" class="cls-6" width="194.839" height="8.704" transform="translate(47.538 91.089)"/>
    <rect id="Rechteck_18" data-name="Rechteck 18" class="cls-6" width="194.839" height="8.704" transform="translate(47.538 119.88)"/>
    <ellipse id="Ellipse_29" data-name="Ellipse 29" class="cls-1" cx="7.838" cy="7.838" rx="7.838" ry="7.838" transform="translate(23.544 225.056)"/>
  </g>
</svg>
